<svg width="60" height="60" viewBox="0 0 60 60" fill="none" xmlns="http://www.w3.org/2000/svg">
<rect width="60" height="60" fill="white"/>
<path d="M10.7063 44.9771C9.95105 44.9771 9.25874 44.6638 8.81818 44.1624C8.31469 43.6611 8 42.9718 8 42.2824V16.3383C8 15.5863 8.31469 14.897 8.81818 14.4583C9.32168 13.957 10.014 13.6436 10.7063 13.6436V15.3983C10.4545 15.3983 10.2028 15.5236 10.014 15.649C9.82517 15.837 9.76224 16.025 9.76224 16.3383V42.2824C9.76224 42.5331 9.88811 42.7838 10.014 42.9718C10.2028 43.1598 10.3916 43.2224 10.7063 43.2224V44.9771ZM47.4615 40.4651V44.7264C47.4615 45.3531 47.3357 45.8544 46.8951 46.1678C46.3916 46.4811 45.7622 46.3558 45.007 45.6038L40.4126 41.2798H16.9371C16.1818 41.2798 15.4895 40.9664 15.049 40.4651C14.5455 39.9637 14.2308 39.2744 14.2308 38.5851V12.641C14.2308 11.889 14.5455 11.1996 15.049 10.761C15.5524 10.2596 16.2448 9.94629 16.9371 9.94629H50.3566C51.1119 9.94629 51.8042 10.2596 52.2448 10.761C52.7482 11.2623 53.0629 11.9516 53.0629 12.641V38.5851C53.0629 39.3371 52.7482 40.0264 52.2448 40.4651C51.7413 40.9664 51.0489 41.2798 50.3566 41.2798V39.5251C50.6084 39.5251 50.8601 39.3997 51.0489 39.2744C51.2378 39.0864 51.3007 38.8984 51.3007 38.5851V12.641C51.3007 12.3903 51.1748 12.1396 51.0489 11.9516C50.8601 11.7636 50.6713 11.701 50.3566 11.701H16.9371C16.6853 11.701 16.4336 11.8263 16.2448 11.9516C16.0559 12.1396 15.993 12.3276 15.993 12.641V38.5851C15.993 38.8357 16.1189 39.0864 16.2448 39.2744C16.4336 39.4624 16.6224 39.5251 16.9371 39.5251H40.7902H41.1678L41.4196 39.7757L45.7622 43.8491V40.4024H47.5245L47.4615 40.4651ZM45.951 44.7264C46.014 44.6638 46.014 44.6638 45.951 44.7264C45.8881 44.7891 45.8881 44.7891 45.951 44.7264ZM15.4895 44.0998V47.5464L19.8322 43.4731L20.0839 43.2224H20.4615H39.5315V44.9771H20.8392L16.2448 49.3011C15.4266 50.0531 14.8601 50.1785 14.3566 49.8651C13.8531 49.5518 13.7902 49.0505 13.7902 48.4238V44.1624H15.5524L15.4895 44.0998ZM15.2378 48.2985C15.1748 48.2985 15.1748 48.2985 15.2378 48.2985C15.3007 48.2985 15.3007 48.3611 15.2378 48.2985Z" fill="#DEE2F4"/>
<path d="M37.0139 19.0959C36.2586 19.0959 35.5034 18.7826 34.9999 18.2813C34.6223 17.9679 34.3705 17.5293 34.2447 17.0279H32.9859H31.7272C31.6013 17.5293 31.3496 17.9679 30.9719 18.2813C30.4684 18.7826 29.7132 19.0959 28.958 19.0959C28.5803 19.0959 28.2027 19.0333 27.888 18.9079C27.7621 18.8453 27.6992 18.8453 27.5733 18.7826L26.6922 19.6599L25.8111 20.5373C25.874 20.6626 25.937 20.7253 25.9999 20.8506C26.1258 21.1639 26.1887 21.54 26.1887 21.916C26.1887 22.668 25.874 23.42 25.3705 23.9213C25.0559 24.2973 24.6153 24.548 24.1118 24.6733V25.9266V27.2426C24.5524 27.368 24.9929 27.6813 25.3076 27.9946C25.8111 28.496 26.1258 29.1853 26.1258 29.9373C26.1258 30.3133 26.0628 30.6267 25.937 30.94C25.874 31.0653 25.874 31.128 25.8111 31.2533L26.7552 32.1933L27.6992 33.0707C27.8251 33.008 27.888 32.9453 28.0139 32.9453C28.3286 32.82 28.7062 32.7573 29.0838 32.7573C29.8391 32.7573 30.5314 33.0707 31.0978 33.572C31.4754 33.8853 31.7272 34.324 31.8531 34.8253H33.1118H34.3705C34.4964 34.324 34.7482 33.948 35.1258 33.572C35.6293 33.0707 36.3216 32.7573 37.1398 32.7573C37.5174 32.7573 37.895 32.82 38.2097 32.9453C38.3356 33.008 38.3985 33.008 38.5244 33.0707L39.4684 32.1933L40.4125 31.2533C40.3496 31.128 40.2866 31.0653 40.2866 30.94C40.1607 30.6267 40.0978 30.2507 40.0978 29.9373C40.0978 29.1853 40.4125 28.496 40.916 27.9946C41.2307 27.6186 41.6712 27.368 42.1118 27.2426V25.9266V24.6733C41.6083 24.548 41.1677 24.2973 40.8531 23.9213C40.3496 23.42 40.0349 22.668 40.0349 21.916C40.0349 21.54 40.0978 21.1639 40.2237 20.8506C40.2866 20.7253 40.3496 20.6626 40.3496 20.5373L39.9719 20.1613L41.0419 19.0959L41.923 19.9106L42.0489 20.0359L42.1118 20.1613L42.3006 20.5999L41.923 20.9759C41.7971 21.1013 41.6712 21.2266 41.6083 21.4146C41.5454 21.54 41.4824 21.728 41.4824 21.916C41.4824 22.292 41.6083 22.6053 41.86 22.856C42.1118 23.1066 42.4265 23.232 42.8041 23.232H43.5593V23.984V25.864V27.8066V27.932L43.4964 28.0573L43.3076 28.496H42.8041C42.4265 28.496 42.1118 28.684 41.86 28.9346C41.6083 29.1853 41.4824 29.4986 41.4824 29.8747C41.4824 30.0627 41.4824 30.188 41.5454 30.376C41.6083 30.5013 41.6712 30.6893 41.7971 30.8147L42.1118 31.1907L41.923 31.6293L41.86 31.7547L41.7342 31.88L40.3496 33.2587L38.9649 34.6373L38.8391 34.7627L38.7132 34.8253L38.2726 35.0133L37.895 34.7C37.7691 34.5747 37.6433 34.512 37.4545 34.4493C37.3286 34.3867 37.1398 34.324 36.951 34.324C36.5733 34.324 36.2586 34.4493 36.0069 34.7C35.7552 34.9507 35.6293 35.264 35.5663 35.64V36.392H34.8111H32.923H31.0349H30.2796V35.64C30.2796 35.264 30.0908 34.9507 29.8391 34.7C29.5873 34.4493 29.2726 34.324 28.895 34.324C28.7062 34.324 28.5174 34.3867 28.3915 34.4493C28.2027 34.512 28.0768 34.6373 27.951 34.7L27.5733 35.0133L27.1328 34.8253L27.0069 34.7627L26.881 34.6373L25.4964 33.2587L24.1118 31.88L23.9859 31.7547L23.923 31.6293L23.7342 31.1907L24.0489 30.8147C24.1747 30.6893 24.2377 30.564 24.3006 30.376C24.3635 30.2507 24.3635 30.0627 24.3635 29.8747C24.3635 29.4986 24.2377 29.1853 23.9859 28.9346C23.7342 28.684 23.4195 28.5586 23.0419 28.496H22.5384L22.3496 28.0573L22.2866 27.932V27.8066V25.864V23.984V23.232H23.0419C23.4195 23.232 23.7342 23.044 23.9859 22.856C24.2377 22.6053 24.3635 22.292 24.3635 21.916C24.3635 21.728 24.3006 21.54 24.2377 21.4146C24.1747 21.2266 24.0489 21.1013 23.923 20.9759L23.5454 20.5999L23.7342 20.1613L23.7971 20.0359L23.923 19.9106L25.3076 18.5319L26.6293 17.2159L27.1328 16.7146L27.6992 17.2159C27.8251 17.3413 27.951 17.4039 28.1398 17.4666C28.2656 17.5293 28.4545 17.5919 28.6433 17.5919C29.0209 17.5919 29.3356 17.4666 29.5873 17.2159C29.8391 16.9653 29.9649 16.6519 29.9649 16.2759V15.5239H30.7202H32.6083H34.4964H35.2517V16.2759C35.2517 16.6519 35.3775 16.9653 35.6293 17.2159C35.881 17.4666 36.1957 17.5919 36.5733 17.5919V19.0959H37.0139ZM38.8391 17.0906C39.4684 17.0906 39.9719 17.5919 39.9719 18.2186C39.9719 18.8453 39.4684 19.3466 38.8391 19.3466C38.2097 19.3466 37.7062 18.8453 37.7062 18.2186C37.7062 17.5919 38.2097 17.0906 38.8391 17.0906ZM32.9859 21.8533C34.1188 21.8533 35.1258 22.292 35.8181 23.044C36.5733 23.796 37.0139 24.7986 37.0139 25.864C37.0139 26.992 36.5733 27.9946 35.8181 28.684C35.0628 29.436 34.0559 29.8747 32.9859 29.8747C31.8531 29.8747 30.8461 29.436 30.1538 28.684C29.3985 27.932 28.958 26.9293 28.958 25.864C28.958 24.736 29.3985 23.7333 30.1538 23.044C30.909 22.292 31.916 21.8533 32.9859 21.8533ZM34.7482 24.1093C34.3076 23.6706 33.6782 23.3573 32.9859 23.3573C32.2936 23.3573 31.6642 23.608 31.2237 24.1093C30.7831 24.548 30.4684 25.1746 30.4684 25.864C30.4684 26.5533 30.7202 27.18 31.2237 27.6186C31.6642 28.0573 32.2936 28.3706 32.9859 28.3706C33.6782 28.3706 34.3076 28.12 34.7482 27.6186C35.1887 27.18 35.5034 26.5533 35.5034 25.864C35.5034 25.1746 35.2517 24.548 34.7482 24.1093Z" fill="#236EFF"/>
</svg>
