<svg width="40" height="51" viewBox="0 0 40 51" fill="none" xmlns="http://www.w3.org/2000/svg">
<path d="M24.3929 18.4738C24.0461 18.4512 23.7455 18.2934 23.4912 18.0905C23.26 17.8876 23.075 17.6171 22.9594 17.3692L20.1617 11.2375C20.1386 11.1924 20.1155 11.1473 20.0924 11.1023C20.0461 11.1473 19.9999 11.2375 19.9536 11.3502L19.5143 12.3647C18.9825 13.6045 17.3872 12.7479 17.7802 11.8011L18.2889 10.6514C18.4739 10.2231 18.7282 9.90748 19.0057 9.68206C19.3294 9.41154 19.7224 9.29883 20.0924 9.29883C20.4623 9.29883 20.8322 9.41154 21.1328 9.65951C21.4103 9.8624 21.6415 10.1555 21.8265 10.5161L24.6242 16.6478C24.6473 16.6703 24.6473 16.6929 24.6704 16.738L31.7224 17.3692C32.1155 17.4142 32.4854 17.527 32.7629 17.7073C33.0866 17.9102 33.2947 18.2032 33.4103 18.5414C33.5259 18.8795 33.5259 19.2628 33.3872 19.6234C33.2716 19.939 33.0403 20.2772 32.6704 20.5928L27.5606 25.0112C27.5374 25.0337 27.5374 25.0563 27.5143 25.1014C27.4912 25.169 27.4912 25.2141 27.4912 25.2817L28.9247 31.7966C29.0172 32.2474 29.0172 32.6307 28.9016 32.9688C28.786 33.352 28.5548 33.6676 28.2542 33.8705C27.9536 34.0734 27.6068 34.1636 27.2137 34.1636C26.8669 34.141 26.497 34.0509 26.1733 33.848L20.0924 30.2637L14.0114 33.848C13.6646 34.0509 13.3178 34.1636 12.971 34.1636C12.601 34.1861 12.2311 34.0734 11.9305 33.8705C11.6299 33.6676 11.3987 33.3746 11.2831 32.9688C11.1906 32.6307 11.1675 32.2474 11.26 31.7966L12.6935 25.2817C12.6935 25.2366 12.6935 25.169 12.6704 25.1014C12.6473 25.0563 12.6473 25.0112 12.6242 25.0112L7.51433 20.5928C7.16751 20.2772 6.93629 19.9616 6.79756 19.6234C6.65884 19.2402 6.65884 18.8795 6.77444 18.5414C6.89005 18.2032 7.12126 17.9102 7.42184 17.7073C7.6993 17.527 8.06924 17.3917 8.4623 17.3692L15.5143 16.738C16.9247 16.6027 16.8554 18.3836 15.7687 18.4963L8.60103 19.1275C8.57791 19.1275 8.55479 19.1275 8.53167 19.1275C8.55479 19.1726 8.60103 19.2177 8.6704 19.2628L13.7802 23.6812C14.0577 23.9291 14.2427 24.2447 14.3583 24.5829C14.4739 24.921 14.497 25.3042 14.4045 25.6424L12.971 32.1573C12.9479 32.2249 12.9479 32.2925 12.9479 32.3601C12.971 32.3601 12.9941 32.3376 13.0172 32.3376L19.1675 28.7082C19.4218 28.5504 19.7224 28.4828 20.023 28.4828C20.3236 28.4828 20.6242 28.5504 20.8785 28.7082L27.0288 32.3376C27.0519 32.3601 27.075 32.3601 27.0981 32.3601C27.0981 32.3151 27.075 32.2474 27.075 32.1573L25.6415 25.6424C25.5721 25.3042 25.5953 24.921 25.6877 24.5829C25.8033 24.2447 25.9883 23.9066 26.2658 23.6812L31.3756 19.2628C31.445 19.2177 31.4912 19.1726 31.5143 19.1275C31.4912 19.1275 31.4681 19.1275 31.445 19.1275L24.2773 18.4963L24.3929 18.4738Z" fill="#236EFF"/>
<path d="M19.2139 48.0049C19.5145 48.1402 19.815 48.2303 20.0694 48.2303C20.3006 48.2303 20.5549 48.1627 20.763 48.05C23.8613 46.0211 26.3121 44.6686 29.4335 42.9779C29.8497 42.7524 30.289 42.5045 30.7514 42.2565C32.948 41.0617 34.7514 39.2132 36.0231 37.1618C37.4104 34.9301 38.1734 32.4729 38.1734 30.3088L38.1965 11.4404C38.1965 11.2826 38.1965 11.1699 38.1965 11.0572C38.1965 10.8769 38.1965 10.7867 38.1965 10.7642C38.1965 10.7416 38.104 10.6289 37.9422 10.4035C36.7399 9.45668 35.7688 8.35208 34.9364 7.17985C34.104 5.98508 33.4335 4.6776 32.8324 3.32503C32.6936 2.98688 32.4624 2.80654 32.2081 2.69383C31.8844 2.55857 31.422 2.49094 30.9364 2.42331C28.8786 2.17534 27.3988 2.01754 25.8266 1.90483C24.2312 1.79211 22.5434 1.74703 20.0925 1.74703L9.06358 2.42331C8.60116 2.44586 8.18497 2.51348 7.83815 2.64874C7.58381 2.76146 7.3526 2.96434 7.21387 3.30248C6.5896 4.6776 5.91908 5.96254 5.10983 7.15731C4.27746 8.35208 3.30636 9.43413 2.10405 10.3809C1.9422 10.6064 1.84971 10.7191 1.84971 10.7416C1.84971 10.7416 1.84971 10.8543 1.84971 11.0347C1.84971 11.1474 1.84971 11.2601 1.84971 11.4179L1.87283 30.2863C1.87283 32.4278 2.63584 34.9075 4.02312 37.1393C5.2948 39.2132 7.09827 41.0392 9.2948 42.234C9.75723 42.4819 10.1965 42.7299 10.6127 42.9553C13.711 44.646 16.1618 45.9761 19.237 47.9824L19.2139 48.0049ZM20.0462 49.9887C19.4913 49.9887 18.9133 49.8309 18.3353 49.5604L18.2659 49.5378L18.2197 49.5153C15.1445 47.4864 12.7399 46.1789 9.68786 44.5333C9.27168 44.3079 8.83237 44.0599 8.36994 43.812C5.87283 42.4594 3.86127 40.3854 2.42775 38.0861C0.878613 35.5838 0.0231214 32.8111 0.0231214 30.3313L0 11.463C0 11.3277 0 11.215 0 11.1023C0 10.7416 0 10.5613 0.0693642 10.2908C0.16185 9.9977 0.300578 9.79482 0.601156 9.38905L0.67052 9.29888L0.739884 9.18616L0.83237 9.11853C1.91908 8.26191 2.79769 7.29256 3.56069 6.21051C4.3237 5.10591 4.94798 3.91114 5.52601 2.6262C5.87283 1.8372 6.40462 1.3638 7.05202 1.07074C7.63006 0.80023 8.25434 0.710058 8.92486 0.687515L19.9538 0.0112305H20C22.5665 0.0112305 24.3237 0.0563161 25.9191 0.16903C27.5607 0.281744 29.0636 0.439544 31.1214 0.687515C31.7457 0.755144 32.3468 0.845315 32.9249 1.09329C33.5723 1.38634 34.104 1.8372 34.474 2.6262C35.052 3.8886 35.6763 5.10591 36.4393 6.21051C37.1792 7.29256 38.0578 8.28445 39.1676 9.11853L39.2601 9.18616L39.3295 9.29888L39.3988 9.38905C39.6994 9.81736 39.8382 9.9977 39.9306 10.2908C40 10.5613 40 10.7416 40 11.1023C40 11.215 40 11.3277 40 11.463L39.9769 30.3313C39.9769 32.8111 39.1214 35.5838 37.5723 38.0861C36.1387 40.3854 34.1272 42.4594 31.6301 43.812C31.1676 44.0599 30.7283 44.3079 30.3121 44.5333C27.2601 46.2015 24.8555 47.509 21.7803 49.5153L21.7341 49.5378C21.2023 49.8534 20.6243 50.0112 20.0462 50.0112V49.9887Z" fill="#DEE2F4"/>
<path d="M17.2951 16.2645C18.0486 16.2645 18.6595 15.6691 18.6595 14.9345C18.6595 14.2 18.0486 13.6045 17.2951 13.6045C16.5415 13.6045 15.9307 14.2 15.9307 14.9345C15.9307 15.6691 16.5415 16.2645 17.2951 16.2645Z" fill="#236EFF"/>
</svg>
