<svg width="36" height="50" viewBox="0 0 36 50" fill="none" xmlns="http://www.w3.org/2000/svg">
<path d="M36 24.8718V44.9744C36 46.359 35.4359 47.5897 34.6154 48.5128C33.7436 49.4359 32.5128 50 31.1795 50H4.82051C3.48718 50 2.25641 49.4359 1.38462 48.5128C0.512821 47.5897 0 46.359 0 44.9744V9.89744V9.53846L0.205128 9.28205L8.5641 0.25641L8.82051 0H9.17949H31.1795C32.5128 0 33.7436 0.564103 34.6154 1.48718C35.4872 2.41026 36 3.64103 36 5.02564V6.35897H34.3077V5.02564C34.3077 4.10256 33.9487 3.28205 33.3846 2.66667C32.8205 2.05128 32.0513 1.69231 31.1795 1.69231H9.58974L1.69231 10.2051V44.9744C1.69231 45.8974 2.05128 46.7179 2.61538 47.3333C3.17949 47.9487 3.94872 48.3077 4.82051 48.3077H31.1795C32.0513 48.3077 32.8205 47.9487 33.3846 47.3333C33.9487 46.7179 34.3077 45.8974 34.3077 44.9744V24.8718H36ZM12.1026 4.10256V6.61538C12.1026 8 11.5897 9.23077 10.7179 10.1538C9.84615 11.0769 8.61539 11.641 7.28205 11.641H4.35897V9.94872H7.28205C8.15385 9.94872 8.92308 9.58974 9.48718 8.97436C10.0513 8.35897 10.4103 7.53846 10.4103 6.66667V4.15385H12.1026V4.10256Z" fill="#DEE2F4"/>
<path d="M18.3076 32.6665L22.205 29.2306L31.4358 21.1281L32.564 22.4101L23.3332 30.5127L19.4358 33.9486L18.3076 32.6665ZM33.6409 19.1793C34.3589 19.1793 34.923 19.7435 34.923 20.4614C34.923 21.1793 34.3589 21.7435 33.6409 21.7435C32.923 21.7435 32.3589 21.1793 32.3589 20.4614C32.3589 19.7435 32.923 19.1793 33.6409 19.1793ZM33.6922 18.564L33.8461 16.564L32.6153 15.1281L31.282 13.5896L29.2307 13.1793C29.2307 13.1793 29.2307 13.1793 29.1794 13.2306L13.4358 27.0768L12.3076 25.7947L28.0512 11.9486C28.2563 11.7435 28.4102 11.6409 28.6153 11.5896C28.8717 11.487 29.0768 11.487 29.3332 11.5383H29.3845H29.4358L31.5896 11.9999C31.7435 12.0511 31.8461 12.0511 31.9999 12.1537C32.1537 12.2563 32.3076 12.3588 32.4614 12.5127L33.8461 14.1024L35.1794 15.5896C35.282 15.7435 35.3845 15.8973 35.4871 16.0511C35.5384 16.2563 35.5896 16.4101 35.5896 16.6152L35.4358 18.7691L33.7435 18.6665L33.6922 18.564ZM31.6409 16.9229L17.1794 29.5383L16.0512 28.2563L30.5127 15.6409L31.6409 16.9229ZM17.1281 35.3845L10.4102 36.3588C10.1025 36.4101 9.84605 36.4101 9.64093 36.4101C9.28195 36.3588 8.97426 36.2563 8.71785 35.9999C8.46144 35.7435 8.41016 35.4358 8.41016 35.0255C8.41016 34.8204 8.46144 34.564 8.564 34.2563L10.564 27.7947L12.205 28.3076L10.205 34.7178L16.8717 33.7435L17.1281 35.4358V35.3845Z" fill="#236EFF"/>
</svg>
