<svg width="51" height="44" viewBox="0 0 51 44" fill="none" xmlns="http://www.w3.org/2000/svg">
<path d="M20.2744 26.6667H15.7975C14.3366 26.6667 14.3837 25.8007 14.3837 25.1752C14.3837 25.079 14.3837 25.4158 14.3837 25.1271V21.9517C14.3837 19.8347 15.9389 18.1508 17.494 16.4188C18.7193 15.0716 19.9445 13.7245 20.2744 12.3292V8.33588C20.2744 7.37364 20.8399 5.97838 21.6881 4.53501C22.5364 3.04353 23.6674 1.50393 24.657 0.541687C24.9398 0.253013 25.3168 0.0605635 25.7409 0.0124512C26.1651 0.0124512 26.5892 0.156788 27.0604 0.589799C27.2489 0.782248 27.4846 1.02281 27.6731 1.26337C27.9087 1.50393 28.0972 1.79261 28.3328 2.08128L26.9662 3.18786C26.7777 2.9473 26.5892 2.70674 26.3536 2.46618C26.1651 2.27373 25.9766 2.08128 25.8352 1.88883C24.9869 2.75485 23.9502 4.102 23.1962 5.44914C22.5364 6.65195 22.018 7.75853 22.018 8.384V26.1374H25.7881H29.5581V8.384C29.5581 8.28777 29.5581 8.14343 29.511 7.9991C29.4638 7.80665 29.4167 7.56609 29.3225 7.32552L30.9718 6.70006C31.1132 7.03685 31.2075 7.32552 31.2546 7.56609C31.3017 7.85476 31.3488 8.14343 31.3488 8.384V12.3773C31.6787 13.7726 32.904 15.1678 34.1292 16.4669C35.6844 18.1989 37.2395 19.8828 37.2395 21.9998V25.1752C37.2395 25.4639 37.2395 25.079 37.2395 25.2233C37.2395 25.8007 37.2395 26.7148 35.8258 26.7148H31.3488V26.811C31.3488 27.1478 31.2075 27.3884 31.019 27.6289C30.8305 27.8214 30.5477 27.9657 30.2178 27.9657H25.7881H21.3583C21.0755 27.9657 20.7928 27.8214 20.5571 27.6289C20.3686 27.4365 20.2273 27.1478 20.2273 26.811V26.7148L20.2744 26.6667ZM29.0868 3.42843C29.7937 3.42843 30.4063 4.05389 30.4063 4.77557C30.4063 5.49726 29.7937 6.12272 29.0868 6.12272C28.3799 6.12272 27.7673 5.49726 27.7673 4.77557C27.7673 4.05389 28.3799 3.42843 29.0868 3.42843ZM16.1274 24.8865H20.2744V15.9376C19.8031 16.515 19.2848 17.0923 18.7664 17.6697C17.4469 19.1612 16.1274 20.5564 16.1274 21.9998V24.8865ZM31.3488 15.9857V24.9346H35.4959V22.0479C35.4959 20.6526 34.1764 19.2093 32.8569 17.7178C32.3385 17.1404 31.8201 16.6112 31.3488 15.9857ZM23.4789 9.29813C23.7617 8.81701 24.1387 8.48022 24.5628 8.19155C25.0812 7.90287 25.5996 7.75853 26.1651 7.75853C26.7306 7.75853 27.2489 7.95098 27.7202 8.23966C28.0972 8.48022 28.4742 8.86512 28.7098 9.29813L27.2018 10.2123C27.0604 10.0198 26.9191 9.82736 26.7306 9.73114C26.5421 9.5868 26.3064 9.53869 26.1179 9.53869C25.8823 9.53869 25.6467 9.5868 25.4582 9.73114C25.2697 9.82736 25.0812 10.0198 24.9398 10.2604L23.4789 9.29813Z" fill="#236EFF"/>
<path d="M6.41942 42.2072H45.5335C47.5599 42.2072 48.1254 41.2931 48.9736 39.6573H7.07918H2.97927C3.82753 41.2931 4.39303 42.2072 6.41942 42.2072ZM45.5335 43.9874H6.41942C3.26202 43.9874 2.55514 42.6402 1.32988 40.2827C1.28276 40.1384 1.14138 39.9459 1.32988 40.2827L1.14138 39.9459C1.04713 39.7535 0.952881 39.4648 0.952881 39.2243C0.952881 39.0318 1.00001 38.7912 1.09426 38.5988C1.18851 38.3582 1.37701 38.1658 1.61264 38.0214C1.80114 37.9252 2.03676 37.829 2.31952 37.829H7.03205H44.4025V14.8794C44.4025 14.3983 44.1668 13.9653 43.837 13.6285C43.4599 13.2917 42.9887 13.0512 42.4703 13.0512H34.082V11.271H42.4703C43.4599 11.271 44.3553 11.6559 45.0622 12.3295C45.722 12.9549 46.1932 13.8691 46.1932 14.8794V37.829H49.6334C49.9161 37.829 50.1518 37.8771 50.3403 38.0214C50.5759 38.1658 50.7644 38.3582 50.8586 38.5988C50.9529 38.7912 51 39.0318 51 39.2243C51 39.4648 50.9058 39.7535 50.8115 39.9459L50.623 40.2827C50.7644 39.994 50.6701 40.1384 50.623 40.2827C49.3977 42.6402 48.6909 43.9874 45.5335 43.9874ZM48.9736 39.6573C48.9736 39.7054 48.9736 39.7054 48.9736 39.6573V39.6573ZM50.623 40.2827C50.5759 40.3789 50.5288 40.4271 50.623 40.2827V40.2827ZM1.32988 40.2827C1.37701 40.4271 1.37701 40.3789 1.32988 40.2827V40.2827ZM2.97927 39.6573C2.97927 39.7054 2.97927 39.7054 2.97927 39.6573V39.6573ZM28.6626 27.2443C28.7097 28.9282 28.8511 30.4197 29.2281 31.6225C29.4166 32.2961 29.6993 32.8734 30.0763 33.4027C30.2649 32.9697 30.5476 32.5848 30.8304 32.3442C31.2545 31.9593 31.7729 31.7187 32.2912 31.6225C32.7154 31.5744 33.1395 31.5744 33.5165 31.7187C34.1763 30.2754 35.213 29.5056 36.344 29.2169C36.9566 29.0726 37.6164 29.0726 38.229 29.1688C38.8417 29.3131 39.4543 29.5537 39.9255 29.9386C41.0566 30.8046 41.7634 32.1999 41.5278 33.8838L39.7842 33.6432C39.9255 32.681 39.5014 31.8631 38.8417 31.3819C38.5589 31.1414 38.1819 30.997 37.8049 30.9008C37.4279 30.8046 37.0509 30.8046 36.6739 30.9008C35.967 31.0933 35.3073 31.6225 34.8831 32.681C35.1188 32.9697 35.3073 33.3064 35.4958 33.6913L33.8464 34.3168C33.6579 33.8357 33.3751 33.547 33.0452 33.4027C32.8567 33.3064 32.6211 33.3064 32.4326 33.3064C32.2441 33.3545 32.0556 33.4027 31.9142 33.5951C31.5844 33.8838 31.3487 34.413 31.3016 35.2309L31.2074 37.0592L29.8407 35.9045C28.6626 34.846 27.9086 33.5951 27.4373 32.1517C27.0132 30.7565 26.8247 29.1207 26.7776 27.2443L28.5212 27.1962L28.6626 27.2443ZM24.9397 27.2924C24.8926 29.1688 24.7041 30.7565 24.2799 32.1999C23.8087 33.6913 23.0547 34.9423 21.8765 35.9526L20.5099 37.1073L20.4157 35.279C20.3685 34.4611 20.1329 33.9319 19.803 33.6432C19.6616 33.4989 19.4731 33.4027 19.2846 33.3545C19.0961 33.3064 18.8605 33.3545 18.672 33.4508C18.3421 33.5951 18.0123 33.8838 17.8709 34.3649L16.2215 33.7394C16.5985 32.7772 17.2583 32.1517 18.0123 31.815C18.4835 31.6225 19.049 31.5263 19.5203 31.6225C20.0386 31.7187 20.557 31.9593 20.9812 32.3442C21.2639 32.6329 21.5467 32.9697 21.7352 33.4027C22.1122 32.8734 22.3949 32.248 22.5834 31.6225C22.9604 30.3716 23.1018 28.9282 23.1489 27.2443L24.8926 27.2924H24.9397ZM15.656 30.8046C15.5617 30.8046 15.4204 30.8046 15.3732 30.7565C14.525 30.7084 13.7239 30.9008 13.1583 31.3819C12.5928 31.815 12.1687 32.5366 12.0745 33.547C12.0745 33.6432 12.0745 33.7876 12.0273 33.8838L10.2837 33.7876C10.2837 33.6432 10.2837 33.4989 10.3308 33.3545C10.5193 31.815 11.1791 30.7084 12.1216 29.9867C13.0641 29.265 14.2422 28.9763 15.4675 29.0244C15.6089 29.0244 15.7502 29.0244 15.8916 29.0726L15.7031 30.8527L15.656 30.8046ZM5.75967 35.3272V14.9275C5.75967 13.9172 6.18379 13.0512 6.89068 12.3776C7.55043 11.704 8.49294 11.3191 9.48257 11.3191H17.8709V13.0993H9.48257C8.96419 13.0993 8.49294 13.3398 8.11593 13.6766C7.78606 14.0134 7.55043 14.4464 7.55043 14.9275V35.3272H5.80679H5.75967Z" fill="#DEE2F4"/>
</svg>
