<svg width="537" height="500" viewBox="0 0 537 500" fill="none" xmlns="http://www.w3.org/2000/svg">
<circle cx="247" cy="248" r="247" fill="#F0F2FC"/>
<path fill-rule="evenodd" clip-rule="evenodd" d="M353.978 112.733C354.248 112.913 354.607 113.004 355.057 113.274C356.496 116.696 357.035 117.687 356.766 118.047C356.496 118.317 356.586 118.137 356.406 118.857C356.226 119.758 359.553 123.901 360.093 125.161C360.542 126.332 360.632 127.413 360.183 128.584C359.463 130.745 358.204 132.816 356.676 134.527C355.327 135.968 353.888 136.959 352.629 136.689C351.1 136.328 351.37 134.978 351.55 133.537C351.64 133.086 352.539 131.916 352.449 131.465C352 128.674 350.021 126.332 348.582 123.901C347.323 122.73 345.165 121.469 343.996 120.118C342.288 118.137 341.928 116.066 344.086 114.895C344.806 114.535 346.424 112.553 347.323 112.643C349.032 112.823 351.82 111.473 353.978 112.733Z" fill="#202249"/>
<path fill-rule="evenodd" clip-rule="evenodd" d="M296.875 104.808C295.706 107.96 296.606 110.752 299.123 111.923C299.123 111.923 299.123 111.923 299.213 112.013C299.303 112.013 299.393 112.103 299.483 112.103C299.753 112.193 300.023 112.283 300.293 112.373C303.26 113.274 307.756 114.084 310.544 114.625C321.515 116.696 337.881 118.047 345.525 120.929C348.492 118.677 349.392 114.625 347.413 112.103C339.05 108.14 327.72 102.917 323.044 101.206C321.965 100.846 320.616 100.576 319.087 100.576C326.191 94.1815 333.655 87.3371 336.532 81.3933C338.601 77.2506 338.96 71.3969 340.309 67.7946C328.799 71.2168 326.551 64.1923 324.482 61.7607C322.684 64.4625 322.684 63.9221 320.885 66.804C314.681 76.4401 305.508 90.1289 299.303 100.215C298.224 101.656 297.235 103.367 296.875 104.808Z" fill="url(#paint0_linear_12_5)"/>
<path opacity="0.3" fill-rule="evenodd" clip-rule="evenodd" d="M334.464 106.069C329.788 103.908 325.472 102.107 323.044 101.206C321.964 100.846 320.616 100.576 319.087 100.576C326.191 94.1815 333.655 87.3371 336.532 81.3933C338.601 77.2506 338.96 71.3969 340.309 67.7946C337.072 68.7852 334.554 68.8753 332.576 68.5151L332.845 70.7665C323.943 79.5921 307.756 100.215 306.228 113.724C311.623 114.985 326.551 116.876 328.889 117.146C329.608 113.094 332.216 109.942 334.464 106.069ZM326.371 64.3724C325.651 63.3818 325.022 62.3911 324.482 61.7607C323.313 63.4718 322.954 63.8321 322.324 64.7326L326.371 64.3724Z" fill="#1E2353"/>
<path fill-rule="evenodd" clip-rule="evenodd" d="M333.025 157.402C334.644 159.653 330.238 170.911 329.248 173.342C328.349 175.413 328.619 176.764 330.867 176.764C332.576 176.764 335.363 174.333 337.072 172.712C340.219 169.65 340.399 166.588 341.388 165.237L342.467 164.877C343.277 164.426 345.615 161.364 345.705 160.194C345.435 159.383 344.985 158.032 344.536 157.042C342.827 153.89 342.467 155.241 340.129 153.259C337.432 155.15 339.32 155.961 333.025 157.402Z" fill="#202249"/>
<path fill-rule="evenodd" clip-rule="evenodd" d="M312.342 118.677C317.109 127.863 328.889 148.576 333.025 157.762C336.712 158.573 340.399 156.411 340.759 153.53C338.061 144.704 333.745 130.205 331.587 125.522C330.148 122.46 327.54 118.407 325.112 115.255C332.126 105.439 343.187 90.039 346.424 80.9431C350.741 68.6053 345.795 61.5808 339.05 57.7083C336.622 56.3574 334.104 58.5188 332.845 57.0779C329.968 62.6615 327.36 70.3163 325.741 77.1607C323.403 86.7068 312.253 106.97 311.443 113.814C311.353 115.255 311.533 116.606 312.073 117.687C312.163 118.047 312.253 118.407 312.342 118.677Z" fill="url(#paint1_linear_12_5)"/>
<path opacity="0.3" fill-rule="evenodd" clip-rule="evenodd" d="M500.106 483.861L177.724 302.305C173.678 300.414 167.653 298.702 163.696 301.134L153.444 307.348C151.376 308.609 144.632 312.751 149.128 315.183C162.437 322.388 460.09 490.975 473.578 498.36C476.096 499.711 479.873 500.251 483.83 499.891C487.697 499.531 491.743 498.54 494.891 496.559L498.937 494.037C501.815 492.236 503.434 490.345 503.613 488.454C503.793 486.743 502.624 485.032 500.106 483.861Z" fill="#2940CC"/>
<path fill-rule="evenodd" clip-rule="evenodd" d="M214.684 6.466C212.435 5.20519 209.828 4.7549 207.4 5.65548L201.914 7.81686C199.936 18.0834 482.841 489.085 485.358 491.696L490.214 489.895C493.452 488.634 495.07 485.302 495.52 482.06L536.616 201.08C537.245 196.397 535.896 191.444 533.289 187.482C531.85 185.32 530.051 183.429 527.803 182.168L214.684 6.466Z" fill="url(#paint2_linear_12_5)"/>
<path fill-rule="evenodd" clip-rule="evenodd" d="M522.498 184.15L209.288 8.53738C203.353 5.20525 197.688 8.44732 196.699 15.5619L155.603 296.542C154.524 303.656 158.48 312.212 164.415 315.454L477.625 491.066C483.56 494.398 489.225 491.246 490.215 484.041L531.31 203.062C532.389 195.857 528.433 187.392 522.498 184.15Z" fill="url(#paint3_linear_12_5)"/>
<path fill-rule="evenodd" clip-rule="evenodd" d="M522.498 184.15L209.288 8.53738C203.353 5.20525 197.688 8.44732 196.698 15.5619L195.35 25.0179L529.961 212.608L531.4 203.062C532.389 195.857 528.433 187.392 522.498 184.15Z" fill="#3F4A93"/>
<path fill-rule="evenodd" clip-rule="evenodd" d="M207.399 15.5615C209.738 16.1018 211.626 18.8936 211.446 21.8655C211.356 24.8374 209.288 26.7286 206.95 26.1883C204.612 25.6479 202.723 22.8562 202.903 19.8843C202.993 16.9124 204.972 15.0211 207.399 15.5615Z" fill="#5858F0"/>
<path fill-rule="evenodd" clip-rule="evenodd" d="M218.191 21.7754C220.529 22.3157 222.417 25.1075 222.237 28.0794C222.147 31.0513 220.079 32.9425 217.741 32.4021C215.403 31.8618 213.514 29.07 213.694 26.0981C213.784 23.1262 215.852 21.235 218.191 21.7754Z" fill="#5858F0"/>
<path fill-rule="evenodd" clip-rule="evenodd" d="M229.881 28.6203C232.219 29.1607 234.107 31.9525 233.928 34.9244C233.838 37.8963 231.769 39.7875 229.431 39.2471C227.093 38.7068 225.205 35.915 225.385 32.9431C225.475 29.9712 227.543 28.08 229.881 28.6203Z" fill="#5858F0"/>
<path opacity="0.5" fill-rule="evenodd" clip-rule="evenodd" d="M484.459 281.502L428.166 250.612C424.929 248.811 421.692 248.541 418.994 249.621C415.577 250.972 412.969 254.394 412.249 259.437L405.865 305.277C404.516 314.283 409.462 324.909 416.926 329.052L473.219 359.942C480.683 364.084 487.787 360.122 489.046 351.116L495.43 305.277C496.869 296.361 491.923 285.644 484.459 281.502Z" fill="url(#paint4_linear_12_5)"/>
<path opacity="0.5" fill-rule="evenodd" clip-rule="evenodd" d="M402.088 120.389L525.465 180.637L522.228 183.969L510.358 266.822C509.189 275.288 502.714 279.07 495.97 275.198L380.416 209.185L370.344 186.761L402.088 120.389Z" fill="url(#paint5_linear_12_5)"/>
<path opacity="0.5" fill-rule="evenodd" clip-rule="evenodd" d="M247.146 248.27L170.89 205.943L168.372 209.816L155.872 295.28L234.827 339.138C243.19 343.821 251.193 339.318 252.632 329.232L259.646 275.017C261.085 264.841 255.509 252.863 247.146 248.27Z" fill="url(#paint6_linear_12_5)"/>
<path fill-rule="evenodd" clip-rule="evenodd" d="M243.819 267.002L234.737 326.98L236.176 327.16L240.132 325.63C244.449 323.918 246.697 319.416 247.326 315.003L254.071 263.039C254.97 256.645 253.082 249.981 249.575 244.668C247.686 241.786 245.168 239.174 242.111 237.463L84.0222 149.657C81.0546 147.946 77.4576 147.315 74.2203 148.576L70.7132 149.927C69.0046 150.558 68.4651 151.098 68.4651 151.188C69.9938 166.498 246.067 251.242 243.819 267.002Z" fill="#E5F2FF"/>
<path fill-rule="evenodd" clip-rule="evenodd" d="M238.064 238.904L79.9755 151.188C76.4684 149.207 73.0513 148.937 70.1737 150.108C66.4867 151.549 63.699 155.241 62.9796 160.734L56.2353 212.698C54.7964 222.424 60.102 233.861 68.1953 238.274L226.284 325.99C234.287 330.403 241.931 326.17 243.37 316.534L250.114 264.571C251.463 254.845 246.067 243.407 238.064 238.904Z" fill="url(#paint7_linear_12_5)"/>
<path opacity="0.5" fill-rule="evenodd" clip-rule="evenodd" d="M236.176 255.115L127.096 195.046C126.287 194.596 125.478 194.506 124.758 194.776C123.859 195.136 123.229 196.037 123.05 197.298L122.42 200.99C122.06 203.331 123.319 206.033 125.298 207.114L234.377 267.182C236.266 268.263 238.154 267.182 238.424 264.931L239.053 261.238C239.413 258.897 238.154 256.195 236.176 255.115ZM175.476 269.254C177.364 270.334 178.713 273.036 178.354 275.378L177.724 279.07C177.364 281.411 175.566 282.402 173.678 281.321L118.823 251.782C116.935 250.702 115.676 248 115.946 245.659L116.575 241.966C116.755 240.705 117.384 239.805 118.284 239.445C119.003 239.174 119.812 239.264 120.622 239.715L175.476 269.254ZM232.938 277.449C234.827 278.53 236.176 281.231 235.816 283.573L235.186 287.265C234.827 289.607 233.028 290.597 231.14 289.517L122.06 229.448C120.172 228.367 118.913 225.666 119.183 223.324L119.812 219.632C119.992 218.371 120.622 217.471 121.521 217.11C122.24 216.84 123.05 216.93 123.859 217.38L232.938 277.449Z" fill="#FFFCF1"/>
<path opacity="0.5" fill-rule="evenodd" clip-rule="evenodd" d="M92.3851 193.966C87.2594 191.084 81.7739 194.956 81.7739 202.431C81.7739 206.304 83.3926 210.266 86.0004 212.788C86.7198 213.418 87.3493 213.958 88.0687 214.319C93.1944 217.2 98.6799 213.328 98.59 205.853C98.59 201.981 96.9713 198.018 94.3635 195.497C93.734 194.866 93.1045 194.326 92.3851 193.966ZM87.3493 217.831C86.3601 217.291 85.4609 216.57 84.5616 215.76C81.0545 212.427 78.8963 207.024 78.8064 201.801C78.7165 191.804 86.0903 186.581 93.0146 190.453C94.0038 190.994 94.903 191.714 95.8922 192.615C99.3993 195.947 101.557 201.35 101.557 206.574C101.647 216.48 94.2735 221.703 87.3493 217.831ZM111 209.365C112.169 209.996 112.888 211.797 112.618 213.328L111.359 219.182C111 220.713 109.831 221.343 108.572 220.713L107.942 220.353C107.043 219.812 106.054 220.082 105.514 220.983C105.155 221.613 104.795 222.154 104.435 222.694C103.806 223.505 103.716 224.855 104.165 226.026L104.525 226.837C105.154 228.368 104.795 230.079 103.716 230.709L99.4892 233.051C98.9497 233.321 98.3202 233.321 97.7806 232.961C97.2411 232.69 96.7015 232.06 96.4317 231.34L96.0721 230.529C95.8023 229.809 95.2627 229.178 94.7232 228.908C94.3635 228.728 94.0937 228.638 93.734 228.638C93.1045 228.638 92.565 228.638 91.9355 228.548C90.9463 228.458 90.137 229.178 89.8672 230.259L89.6874 231.069C89.3277 232.6 88.1586 233.231 86.8997 232.6L82.1336 229.989C80.9646 229.358 80.2452 227.557 80.515 226.026L80.6948 225.306C80.9646 224.135 80.6049 222.784 79.7956 221.883C79.256 221.343 78.8064 220.713 78.3568 220.172C78.087 219.812 77.8172 219.542 77.4575 219.362C76.918 219.092 76.2885 219.002 75.7489 219.272L75.2094 219.542C74.6698 219.812 74.0404 219.812 73.5008 219.452C72.9613 219.182 72.4217 218.551 72.1519 217.831L69.724 211.797C69.0945 210.266 69.4542 208.555 70.5333 208.015L71.0728 207.744C71.8822 207.294 72.3318 206.123 72.1519 204.863C72.062 204.052 71.9721 203.242 71.8822 202.431C71.7922 201.17 71.1628 199.999 70.2635 199.459L69.634 199.099C68.465 198.469 67.7456 196.667 68.0154 195.136L69.2743 189.283C69.634 187.752 70.8031 187.121 72.062 187.752L72.6915 188.112C73.5907 188.652 74.5799 188.382 75.1195 187.481C75.4792 186.851 75.8389 186.311 76.2885 185.77C76.918 184.96 77.0079 183.609 76.5583 182.438L76.1986 181.628C75.5691 180.097 75.9288 178.386 77.0079 177.755L81.2344 175.414C81.7739 175.144 82.4034 175.144 82.943 175.504C83.4825 175.774 84.0221 176.404 84.2918 177.125L84.6515 177.935C84.9213 178.656 85.4609 179.286 86.0004 179.556C86.3601 179.737 86.6299 179.827 86.9896 179.827C87.6191 179.827 88.2486 179.827 88.7881 179.917C89.7773 180.007 90.5866 179.376 90.8564 178.206L91.0362 177.395C91.3959 175.864 92.565 175.234 93.8239 175.864L98.59 178.476C99.759 179.106 100.478 180.907 100.209 182.438L100.029 183.249C99.759 184.42 100.119 185.77 100.928 186.581C101.468 187.121 101.917 187.752 102.367 188.382C102.637 188.742 102.906 189.012 103.266 189.193C103.806 189.463 104.435 189.553 104.975 189.283L105.514 189.012C106.054 188.742 106.683 188.742 107.223 189.103C107.762 189.373 108.302 190.003 108.572 190.724L111 196.757C111.629 198.288 111.269 200 110.19 200.63L109.651 200.9C108.841 201.35 108.392 202.521 108.572 203.782C108.662 204.592 108.752 205.403 108.841 206.213C108.931 207.474 109.561 208.645 110.46 209.185L111 209.365Z" fill="#FFFCF1"/>
<path opacity="0.5" fill-rule="evenodd" clip-rule="evenodd" d="M229.341 49.9629L195.26 33.4824L181.771 117.866L180.062 129.754L215.493 148.936C221.698 152.358 227.543 149.116 228.622 141.642L238.514 69.7756C239.593 62.2108 235.546 53.3851 229.341 49.9629Z" fill="url(#paint8_linear_12_5)"/>
<path fill-rule="evenodd" clip-rule="evenodd" d="M225.205 70.0464L214.594 138.85L215.673 139.031L218.73 137.86C222.057 136.509 223.766 133.087 224.306 129.755L233.118 67.0745C233.838 62.1213 232.309 57.0781 229.611 52.9354C228.172 50.684 226.284 48.7027 223.856 47.4419L158.57 11.9592C156.232 10.6084 153.534 10.1581 151.016 11.1487L148.319 12.2294C146.97 12.7697 146.52 13.13 146.61 13.22C147.869 24.7474 226.913 57.9787 225.205 70.0464Z" fill="#E5F2FF"/>
<path fill-rule="evenodd" clip-rule="evenodd" d="M220.798 48.5225L155.603 13.0398C152.905 11.5088 150.297 11.3287 148.049 12.2293C145.171 13.31 143.103 16.1918 142.474 20.4245L133.661 83.1046C132.582 90.5794 136.628 99.405 142.833 102.827L208.119 138.31C214.324 141.732 220.169 138.49 221.248 131.015L230.061 68.3351C231.05 60.7703 226.913 51.9447 220.798 48.5225Z" fill="url(#paint9_linear_12_5)"/>
<path fill-rule="evenodd" clip-rule="evenodd" d="M208.658 121.379L143.103 86.1664C141.574 85.3559 140.135 86.1664 139.866 88.0576C139.596 89.8588 140.585 92.0202 142.114 92.8307L207.669 128.043C209.198 128.854 210.637 128.043 210.907 126.152C211.176 124.351 210.187 122.189 208.658 121.379ZM211.626 102.287C213.155 103.097 214.144 105.259 213.874 107.06C213.604 108.951 212.076 109.761 210.637 108.951L145.081 73.7385C143.553 72.928 142.563 70.7666 142.833 68.9654C143.103 67.0742 144.542 66.2637 146.07 67.0742L211.626 102.287ZM218.37 59.0591L152.815 23.8466C151.286 23.0361 149.847 23.8466 149.578 25.6477L148.858 30.3307C148.588 32.1319 149.578 34.2932 151.106 35.1038L216.662 70.3163C218.19 71.1268 219.629 70.3163 219.899 68.5151L220.618 63.8321C220.888 62.031 219.899 59.8696 218.37 59.0591ZM214.593 83.3746C216.122 84.1852 217.111 86.3465 216.842 88.1477C216.572 90.0389 215.043 90.8494 213.604 90.0389L148.049 54.8264C146.52 54.0159 145.531 51.9445 145.801 50.0533C146.07 48.1621 147.509 47.3516 149.038 48.1621L214.593 83.3746Z" fill="#FFFCF1"/>
<path fill-rule="evenodd" clip-rule="evenodd" d="M481.492 302.845L473.758 350.756L474.927 350.936L478.254 349.675C481.851 348.234 483.74 344.452 484.279 340.85L490.035 299.603C490.754 294.29 489.225 288.706 486.258 284.203C484.639 281.772 482.571 279.61 480.053 278.169L429.425 250.342C426.907 248.901 423.94 248.36 421.242 249.441L418.364 250.612C416.925 251.152 416.476 251.603 416.476 251.693C417.735 264.391 483.38 289.697 481.492 302.845Z" fill="#E5F2FF"/>
<path fill-rule="evenodd" clip-rule="evenodd" d="M476.726 279.43L426.098 251.603C423.13 249.981 420.253 249.711 417.915 250.702C414.857 251.873 412.519 255.025 411.89 259.528L406.135 300.774C404.965 308.879 409.372 318.425 416.116 322.208L466.744 350.035C473.489 353.728 479.873 350.216 481.042 342.11L486.797 300.864C487.877 292.759 483.38 283.123 476.726 279.43Z" fill="#FAFBFF"/>
<path fill-rule="evenodd" clip-rule="evenodd" d="M454.604 282.312C454.964 283.032 455.144 283.843 455.054 284.653C454.964 285.283 454.694 286.274 454.155 287.715L443.364 317.704C443.004 318.695 442.734 319.505 442.464 320.046C442.195 320.586 441.925 320.946 441.475 321.126C441.115 321.306 440.576 321.216 439.946 320.766C438.328 319.775 437.608 318.335 437.788 316.623C437.878 316.173 438.148 315.092 438.688 313.471L449.479 283.482C450.018 281.861 450.558 280.871 450.917 280.42C451.277 279.97 451.996 279.97 452.896 280.6C453.705 280.961 454.245 281.501 454.604 282.312ZM457.482 290.056L456.493 298.432L472.409 316.984L454.514 314.732L453.525 323.108L479.244 325.089L480.053 317.974L457.482 290.056ZM412.519 283.752L435.18 311.67L436.17 303.295L420.343 284.653L438.148 287.085L439.137 278.619L413.419 276.548L412.519 283.752Z" fill="url(#paint10_linear_12_5)"/>
<path fill-rule="evenodd" clip-rule="evenodd" d="M282.577 284.204C283.477 277.99 288.243 275.198 293.188 278.08L366.567 319.506C371.513 322.388 374.751 329.773 373.851 335.987L364.05 402.539C363.15 408.753 358.384 411.545 353.438 408.663L280.059 367.237C275.113 364.355 271.876 356.97 272.775 350.756L282.577 284.204Z" fill="#FAFBFF"/>
<path fill-rule="evenodd" clip-rule="evenodd" d="M291.57 352.017L317.109 316.534L322.144 354.178L334.554 340.58L341.928 380.835L291.57 352.017Z" fill="url(#paint11_linear_12_5)"/>
<path fill-rule="evenodd" clip-rule="evenodd" d="M333.745 318.065C336.442 318.605 338.511 321.847 338.331 325.27C338.151 328.692 335.723 330.943 333.025 330.403C330.328 329.863 328.259 326.621 328.439 323.198C328.619 319.776 330.957 317.525 333.745 318.065Z" fill="#FFDB59"/>
<path opacity="0.2" fill-rule="evenodd" clip-rule="evenodd" d="M288.602 293.75C289.322 288.526 293.278 286.275 297.415 288.617L358.384 323.019C362.521 325.36 365.219 331.484 364.409 336.707L356.316 392.003C355.597 397.226 351.64 399.477 347.503 397.136L286.534 362.734C282.397 360.392 279.7 354.268 280.509 349.045L288.602 293.75Z" fill="url(#paint12_linear_12_5)"/>
<path fill-rule="evenodd" clip-rule="evenodd" d="M381.675 341.841C382.574 335.627 387.34 332.835 392.286 335.717L465.665 377.143C470.611 380.025 473.848 387.41 472.949 393.624L463.147 460.176C462.248 466.39 457.482 469.182 452.536 466.3L379.157 424.874C374.211 421.992 370.974 414.607 371.873 408.393L381.675 341.841Z" fill="#FAFBFF"/>
<path fill-rule="evenodd" clip-rule="evenodd" d="M390.578 409.654L416.206 374.081L421.152 411.815L433.652 398.216L441.026 438.472L390.578 409.654Z" fill="url(#paint13_linear_12_5)"/>
<path fill-rule="evenodd" clip-rule="evenodd" d="M432.753 375.702C435.45 376.242 437.519 379.484 437.339 382.906C437.159 386.328 434.731 388.58 432.033 388.039C429.335 387.499 427.267 384.257 427.447 380.835C427.717 377.413 430.055 375.161 432.753 375.702Z" fill="#FFDB59"/>
<path opacity="0.2" fill-rule="evenodd" clip-rule="evenodd" d="M387.61 351.296C388.329 346.073 392.286 343.821 396.423 346.163L457.392 380.565C461.529 382.906 464.226 389.03 463.417 394.254L455.324 449.549C454.604 454.772 450.648 457.024 446.511 454.682L385.542 420.28C381.405 417.939 378.707 411.815 379.517 406.592L387.61 351.296Z" fill="url(#paint14_linear_12_5)"/>
<path fill-rule="evenodd" clip-rule="evenodd" d="M270.707 7.36631C264.142 11.2388 267.29 20.0644 273.225 29.4304C281.678 42.7589 261.265 57.7085 288.962 65.2733C286.084 57.1681 298.044 54.1963 303.979 43.1192C310.814 30.331 307.037 17.4528 298.224 6.55579C291.12 -2.35991 278.171 -2.26985 270.707 7.36631Z" fill="url(#paint15_linear_12_5)"/>
<path fill-rule="evenodd" clip-rule="evenodd" d="M283.656 91.48L285.275 97.5139C285.815 98.7747 286.084 99.1349 287.973 98.3244C288.962 97.8741 288.692 95.7127 288.422 94.1818C288.153 92.4707 288.332 91.0297 288.512 90.3993C288.692 89.6789 289.142 89.2286 289.681 88.7783C290.76 87.8777 292.109 87.2473 291.3 84.4555C290.85 83.0146 290.94 81.8439 290.94 80.3129L287.073 80.0427C287.163 83.4649 285.635 85.8064 284.016 88.6882C283.117 90.1292 283.297 89.859 283.656 91.48Z" fill="url(#paint16_linear_12_5)"/>
<path fill-rule="evenodd" clip-rule="evenodd" d="M297.415 53.1155V52.9353C297.415 52.6652 297.325 52.395 297.325 52.1248C296.336 45.5506 294.357 34.4735 292.829 28.7099C290.131 18.6234 281.498 22.1356 281.588 28.1695C281.678 33.8431 286.983 46.181 288.152 51.4944C287.703 55.3669 286.084 74.8193 286.624 78.1515C286.714 78.7819 286.983 79.2322 286.983 79.9526C286.983 80.493 286.804 80.6731 286.624 81.3935C288.152 81.5737 289.681 81.8438 291.12 82.2041C291.21 81.7538 291.21 81.1234 291.39 80.6731C291.659 79.9526 292.289 79.5924 292.649 78.962C294.087 75.9 296.605 59.9598 297.235 54.7365C297.325 54.2862 297.415 53.7459 297.415 53.1155Z" fill="url(#paint17_linear_12_5)"/>
<path opacity="0.35" fill-rule="evenodd" clip-rule="evenodd" d="M296.246 59.3293C296.785 57.9784 297.505 53.5656 297.505 51.6744C297.505 47.7118 295.976 44.3797 295.526 41.8581L281.498 27.8992C281.588 30.5108 284.645 37.4453 285.904 42.5786C287.883 50.5036 292.109 57.4381 296.246 59.3293Z" fill="#3469C0"/>
<path fill-rule="evenodd" clip-rule="evenodd" d="M339.41 60.2301C337.432 66.7142 328.169 71.8475 318.997 69.8663C316.749 67.4347 316.119 68.1552 314.141 66.1739C312.342 64.3727 310.004 61.9412 306.857 58.6991C305.058 55.9073 298.134 54.8266 295.077 53.5658C291.57 52.215 288.512 49.3331 287.073 43.8396C286.354 41.1379 283.386 32.9426 282.217 30.2409C279.07 22.3159 285.904 19.434 290.491 22.3159C293.458 23.5767 299.933 25.1076 303.17 25.738C305.058 26.0983 306.317 26.3684 308.835 26.5486C312.702 26.9088 316.839 29.7006 319.806 32.1321C327.81 38.4362 338.691 51.3144 339.41 60.2301Z" fill="url(#paint18_linear_12_5)"/>
<path fill-rule="evenodd" clip-rule="evenodd" d="M293.009 19.0735C293.818 22.4957 295.886 25.8278 298.494 28.3494C297.505 31.8617 290.85 34.3833 288.692 32.0418C288.512 31.5915 288.332 30.5108 288.063 30.1506C287.703 29.1599 287.343 28.2594 287.073 27.5389L293.009 19.0735Z" fill="url(#paint19_linear_12_5)"/>
<path fill-rule="evenodd" clip-rule="evenodd" d="M273.585 14.3904C273.944 17.0921 274.754 19.3435 277.092 21.595C277.631 22.1353 277.901 22.6757 278.081 23.216C278.98 26.368 279.61 27.0885 281.678 28.5294C283.656 29.9703 284.376 30.961 285.545 31.051C286.714 31.1411 287.793 30.5107 288.602 29.9703C290.311 28.7095 292.289 25.2873 293.188 23.0359C293.908 21.3248 293.458 20.9646 293.009 19.3435C293.548 16.4617 291.48 16.2816 290.85 16.6418C288.962 17.6325 290.221 19.7938 289.591 21.0546C282.757 22.4956 275.833 16.3716 273.585 14.3904Z" fill="#FFA698"/>
<path fill-rule="evenodd" clip-rule="evenodd" d="M273.585 14.3904C277.362 20.6944 285.635 22.2254 289.501 20.9646C282.757 22.4956 275.833 16.3716 273.585 14.3904Z" fill="#FF9080"/>
<path fill-rule="evenodd" clip-rule="evenodd" d="M278.89 21.9557C277.541 21.9557 276.912 21.9557 275.473 21.5955C276.462 22.2259 277.901 22.7662 278.89 21.9557Z" fill="#532862"/>
<path fill-rule="evenodd" clip-rule="evenodd" d="M281.768 21.595C283.117 21.505 283.746 21.505 285.095 21.0547C284.106 21.6851 282.757 22.3155 281.768 21.595Z" fill="#532862"/>
<path fill-rule="evenodd" clip-rule="evenodd" d="M282.577 27.899C283.117 27.7189 283.297 27.809 283.746 27.7189C283.926 27.7189 284.736 27.5388 285.005 27.4487C284.736 27.7189 284.466 28.1692 284.286 28.2593C283.836 28.4394 283.477 28.5294 282.937 28.5294C282.847 28.6195 282.128 28.0791 282.577 27.899Z" fill="#FF9180"/>
<path fill-rule="evenodd" clip-rule="evenodd" d="M279.52 22.676C279.969 25.0175 278.71 26.0982 281.138 26.1883C278.351 26.8187 279.7 25.0175 279.52 22.676Z" fill="#EF9183"/>
<path opacity="0.35" fill-rule="evenodd" clip-rule="evenodd" d="M317.378 68.2448C317.288 68.2448 317.288 68.2448 317.198 68.2448C316.209 67.5243 315.4 67.5243 314.051 66.1735C312.252 64.3723 309.914 61.9408 306.767 58.6987C305.868 57.2578 303.62 56.2672 301.192 55.5467C301.551 49.0626 301.372 34.2031 303.53 32.3118C306.497 29.6101 310.454 27.899 313.871 31.3212C320.256 37.8054 313.961 62.0308 317.378 68.2448Z" fill="#3469C0"/>
<path fill-rule="evenodd" clip-rule="evenodd" d="M308.386 76.9806L304.429 61.7609L307.127 59.3293L332.576 73.5584L330.238 76.2602L319.177 83.6449L308.386 76.9806Z" fill="#4A9FF8"/>
<path fill-rule="evenodd" clip-rule="evenodd" d="M304.429 61.8508L302.541 55.907C313.062 61.7607 323.673 67.6145 334.194 73.5583L330.148 76.26L304.429 61.8508Z" fill="#E5F2FF"/>
<path opacity="0.5" fill-rule="evenodd" clip-rule="evenodd" d="M252.542 97.6946C254.161 85.5368 263.423 80.3135 273.135 86.0772L373.312 144.615C383.024 150.288 389.588 164.878 387.88 176.945L372.592 292.759C370.974 304.917 361.711 310.14 352 304.377L251.823 245.839C242.111 240.076 235.546 225.576 237.255 213.509L252.542 97.6946Z" fill="url(#paint20_linear_12_5)"/>
<path fill-rule="evenodd" clip-rule="evenodd" d="M256.049 97.064C256.229 95.7132 256.499 89.8594 258.028 88.6887C260.186 87.0676 264.053 84.7261 265.132 84.456C268.099 83.6454 271.606 84.1858 275.113 86.2571L368.815 140.652C377.808 145.965 383.923 159.474 382.394 170.731L368.186 278.35C367.646 282.312 366.298 285.464 364.319 287.626C362.97 289.157 359.913 291.228 357.305 292.579C354.607 293.93 350.83 290.147 349.122 289.157L255.42 234.672C246.427 229.359 240.312 215.85 241.841 204.593L256.049 97.064Z" fill="#E5F2FF"/>
<path fill-rule="evenodd" clip-rule="evenodd" d="M252.812 99.3153C254.341 88.0581 262.884 83.195 271.876 88.5084L365.039 142.993C374.031 148.307 380.146 161.815 378.617 173.072L364.409 280.601C362.88 291.858 354.337 296.722 345.345 291.408L252.182 236.923C243.19 231.61 237.075 218.101 238.604 206.844L252.812 99.3153Z" fill="#FAFBFF"/>
<path fill-rule="evenodd" clip-rule="evenodd" d="M252.812 99.3153C254.341 88.0581 262.883 83.195 271.876 88.5084L365.039 142.993C374.031 148.307 380.146 161.815 378.617 173.072L377.178 183.789L251.373 110.212L252.812 99.3153Z" fill="url(#paint21_linear_12_5)"/>
<path fill-rule="evenodd" clip-rule="evenodd" d="M267.74 99.7657C269.808 100.216 271.337 102.738 271.247 105.259C271.157 107.781 269.358 109.492 267.29 108.952C265.222 108.501 263.693 105.98 263.783 103.458C263.963 100.936 265.671 99.2253 267.74 99.7657Z" fill="#FAFBFF"/>
<path fill-rule="evenodd" clip-rule="evenodd" d="M278.71 106.61C280.779 107.06 282.307 109.582 282.218 112.103C282.128 114.625 280.329 116.336 278.261 115.796C276.193 115.346 274.664 112.824 274.754 110.302C274.844 107.781 276.642 106.07 278.71 106.61Z" fill="#FAFBFF"/>
<path fill-rule="evenodd" clip-rule="evenodd" d="M289.681 113.454C291.75 113.904 293.278 116.426 293.189 118.947C293.099 121.469 291.3 123.18 289.232 122.64C287.164 122.19 285.635 119.668 285.725 117.146C285.815 114.625 287.613 112.914 289.681 113.454Z" fill="#FAFBFF"/>
<path opacity="0.2" fill-rule="evenodd" clip-rule="evenodd" d="M272.505 131.556C282.037 133.807 289.321 145.245 288.692 157.042C288.152 168.84 279.969 176.585 270.437 174.333C260.905 172.082 253.621 160.645 254.251 148.847C254.88 137.05 263.063 129.305 272.505 131.556Z" fill="url(#paint22_linear_12_5)"/>
<path fill-rule="evenodd" clip-rule="evenodd" d="M272.056 141.372C277.182 142.633 281.138 148.757 280.779 155.151C280.509 161.545 276.102 165.688 270.977 164.517C265.851 163.256 261.894 157.132 262.254 150.738C262.524 144.344 266.93 140.202 272.056 141.372Z" fill="url(#paint23_linear_12_5)"/>
<path opacity="0.2" fill-rule="evenodd" clip-rule="evenodd" d="M294.447 154.431C294.807 151.909 296.695 150.828 298.674 152.089L359.553 187.212C361.532 188.472 362.88 191.444 362.521 193.966L361.891 198.919C361.532 201.441 359.643 202.521 357.665 201.261L296.785 166.138C294.807 164.877 293.458 161.905 293.818 159.384L294.447 154.431Z" fill="#955CF1"/>
<path opacity="0.2" fill-rule="evenodd" clip-rule="evenodd" d="M292.019 172.712C292.199 171.271 293.368 170.641 294.537 171.361L330.507 192.074C331.676 192.795 332.486 194.596 332.306 196.037L331.946 199.009C331.766 200.45 330.597 201.08 329.428 200.36L293.458 179.646C292.289 178.926 291.48 177.125 291.66 175.684L292.019 172.712Z" fill="#955CF1"/>
<path opacity="0.2" fill-rule="evenodd" clip-rule="evenodd" d="M251.373 177.395C251.643 175.594 252.992 174.783 254.43 175.684L359.553 236.113C360.992 237.013 361.981 239.175 361.711 241.066L361.351 243.497C361.082 245.299 359.733 246.109 358.294 245.209L253.171 184.78C251.733 183.879 250.743 181.718 251.013 179.827L251.373 177.395Z" fill="#955CF1"/>
<path opacity="0.2" fill-rule="evenodd" clip-rule="evenodd" d="M249.215 195.136C249.484 193.335 250.833 192.525 252.272 193.425L357.395 253.854C358.834 254.754 359.823 256.916 359.553 258.807L359.193 261.239C358.923 263.04 357.575 263.85 356.136 262.95L251.013 202.521C249.574 201.62 248.585 199.459 248.855 197.568L249.215 195.136Z" fill="#955CF1"/>
<path opacity="0.2" fill-rule="evenodd" clip-rule="evenodd" d="M246.877 211.977C247.146 210.176 248.495 209.366 249.934 210.266L355.147 270.695C356.585 271.595 357.575 273.757 357.305 275.648L356.945 278.079C356.675 279.881 355.327 280.691 353.888 279.791L248.765 219.362C247.326 218.461 246.337 216.3 246.607 214.409L246.877 211.977Z" fill="#955CF1"/>
<path fill-rule="evenodd" clip-rule="evenodd" d="M382.754 87.2475C383.114 84.906 381.495 83.1048 382.574 81.5739C383.653 79.8628 387.43 78.692 389.049 78.1517C391.297 77.3412 393.994 77.6113 396.782 79.1423L508.649 143.173C515.214 146.956 519.53 156.682 518.361 164.877L505.772 252.773C505.232 256.826 503.433 259.708 500.916 261.239C499.387 262.139 495.34 263.94 493.452 263.67C492.103 263.49 493.182 261.689 491.743 260.879L379.966 196.848C373.402 193.065 369.085 183.339 370.254 175.144L382.754 87.2475Z" fill="#E5F2FF"/>
<path fill-rule="evenodd" clip-rule="evenodd" d="M379.426 88.5985C380.596 80.4032 386.89 76.7109 393.365 80.4933L505.232 144.524C511.796 148.307 516.113 158.033 514.944 166.228L502.354 254.124C501.185 262.32 494.891 266.012 488.416 262.23L376.549 198.199C369.984 194.416 365.668 184.69 366.837 176.495L379.426 88.5985Z" fill="url(#paint24_linear_12_5)"/>
<path fill-rule="evenodd" clip-rule="evenodd" d="M370.704 180.457C370.794 179.737 371.333 179.467 371.873 179.737L495.88 250.972C496.419 251.333 496.779 252.143 496.689 252.864L496.329 255.025C496.239 255.745 495.7 256.016 495.16 255.745L371.153 184.51C370.614 184.15 370.254 183.339 370.344 182.619L370.704 180.457Z" fill="#6D6AFD"/>
<path fill-rule="evenodd" clip-rule="evenodd" d="M370.794 180.547C370.884 179.826 371.423 179.556 371.963 179.916L421.961 208.645C422.501 209.005 422.86 209.815 422.77 210.446L422.411 212.517C422.321 213.237 421.781 213.508 421.242 213.147L371.243 184.419C370.704 184.059 370.344 183.248 370.434 182.618L370.794 180.547Z" fill="#B269EB"/>
<path fill-rule="evenodd" clip-rule="evenodd" d="M419.803 138.22C420.073 136.239 421.601 135.428 423.13 136.239L457.572 155.961C459.1 156.862 460.179 159.204 459.91 161.095L455.234 193.876C454.964 195.857 453.435 196.667 451.906 195.857L417.465 176.134C415.936 175.234 414.857 172.892 415.127 171.001L419.803 138.22Z" fill="url(#paint25_linear_12_5)"/>
<path fill-rule="evenodd" clip-rule="evenodd" d="M439.496 152.539C433.561 149.117 427.806 152.449 426.817 159.924C425.738 167.399 429.695 176.314 435.63 179.737C441.565 183.159 447.32 179.827 448.309 172.352C449.388 164.787 445.432 155.961 439.496 152.539Z" fill="url(#paint26_linear_12_5)"/>
<path fill-rule="evenodd" clip-rule="evenodd" d="M433.921 156.142L432.033 169.74L443.543 170.101L433.921 156.142Z" fill="#FAFBFF"/>
<path fill-rule="evenodd" clip-rule="evenodd" d="M300.023 86.7067C299.033 88.3277 299.573 91.84 299.213 93.5511C298.943 94.9019 298.224 97.4235 297.684 98.5042C297.505 98.9545 291.03 104.718 290.58 104.448C289.681 103.818 289.142 99.2247 290.311 97.8738C291.48 96.523 292.379 95.2622 292.559 94.1815C292.739 93.1008 292.649 89.4985 293.188 88.9581C294.267 87.6973 295.346 87.3371 295.796 85.7161L300.023 86.7067Z" fill="url(#paint27_linear_12_5)"/>
<path fill-rule="evenodd" clip-rule="evenodd" d="M312.612 64.6428C312.702 64.2826 312.792 63.9224 312.882 63.4721C314.591 56.4476 316.299 44.47 316.029 37.5355C315.849 32.2221 313.332 27.7192 307.127 29.5204C305.238 30.0607 302.99 31.5017 302.72 34.0233C302.361 36.9952 302.81 42.0384 303.08 47.1717C303.35 51.2243 303.26 58.609 303.44 61.5809C303.44 61.671 303.35 61.761 303.35 61.8511C301.372 65.8136 296.785 78.7819 295.796 82.9245C295.616 83.645 295.796 84.3655 295.796 84.9058C295.796 85.3561 295.616 85.8064 295.257 86.4368C296.695 87.6075 297.864 88.2379 299.483 88.5982C299.663 88.1479 300.113 87.4274 300.382 87.0672C300.652 86.6169 301.911 86.2567 302.361 85.7163C304.969 82.6544 311.713 68.5153 312.522 64.823C312.612 64.7329 312.612 64.7329 312.612 64.6428Z" fill="url(#paint28_linear_12_5)"/>
<path opacity="0.3" fill-rule="evenodd" clip-rule="evenodd" d="M213.604 424.963L269.898 392.813C276.013 390.021 284.825 387.77 291.12 391.012C296.785 393.984 306.227 400.018 310.364 402.449C313.511 404.25 324.482 410.824 317.648 414.517C297.595 425.414 277.721 437.752 257.398 448.829C253.531 450.9 247.956 451.711 242.021 451.17C236.176 450.72 230.061 448.919 225.385 446.217C221.968 444.236 218.64 442.345 215.403 440.363C210.997 437.752 208.659 434.78 208.389 431.898C208.029 429.196 209.828 426.675 213.604 424.963Z" fill="#2940CC"/>
<path fill-rule="evenodd" clip-rule="evenodd" d="M234.287 423.252C235.366 423.252 239.143 419.74 242.65 421.451C246.877 423.613 254.88 421.721 258.927 422.712C259.646 422.892 261.085 422.352 261.355 422.892C262.254 424.423 263.063 426.764 260.905 428.295C259.286 429.376 255.959 430.907 253.711 431.718C251.373 432.528 247.326 433.879 244.629 434.329C241.661 434.78 240.312 434.96 239.143 435.86C237.524 436.671 235.906 437.031 235.007 436.851C233.028 436.581 230.78 435.41 229.701 433.159C229.341 432.438 229.341 429.286 229.701 427.215C229.971 425.594 230.87 423.793 231.589 422.081L234.287 423.252Z" fill="#FAFBFF"/>
<path fill-rule="evenodd" clip-rule="evenodd" d="M242.92 415.688C241.571 418.93 242.021 423.883 238.783 425.594C236.625 426.765 233.388 426.765 231.859 423.433C231.05 421.631 232.129 418.479 231.859 414.427L242.92 415.688Z" fill="#FFA495"/>
<path fill-rule="evenodd" clip-rule="evenodd" d="M243.819 420.731C246.247 421.452 252.992 421.001 257.218 421.272C259.017 421.452 260.635 421.362 261.535 423.073C262.344 424.604 261.894 425.864 260.096 427.125C258.477 428.206 255.869 429.557 253.621 430.277C251.283 431.088 247.236 432.439 244.539 432.889C241.571 433.339 240.222 433.519 239.053 434.42C237.435 435.23 235.816 435.591 234.917 435.411C232.938 435.14 230.69 433.699 229.611 431.448C229.251 430.728 229.251 427.846 229.611 425.774C229.701 425.414 229.791 424.964 229.881 424.604C230.241 421.452 231.23 420.101 232.219 420.641C233.568 421.362 234.107 422.712 234.647 423.883C235.097 424.784 235.726 425.414 236.535 425.684C238.154 426.225 239.683 425.324 240.582 423.883C241.122 422.983 241.481 421.812 241.661 420.641C241.661 420.551 241.661 420.461 241.661 420.281C242.021 417.489 243.37 417.759 243.1 418.3C243.01 418.84 243.1 420.101 243.819 420.731Z" fill="#193161"/>
<path fill-rule="evenodd" clip-rule="evenodd" d="M260.635 422.622C260.635 423.703 262.254 423.793 261.804 425.684C262.614 424.873 261.535 422.622 260.995 422.352C260.815 422.172 260.635 422.082 260.635 422.622Z" fill="#FAFBFF"/>
<path fill-rule="evenodd" clip-rule="evenodd" d="M261.894 412.176C262.884 411.815 265.222 407.222 269.088 407.673C270.707 407.853 273.225 407.402 275.743 406.682C279.879 405.511 285.545 401.819 286.534 402.449C288.692 403.8 288.872 406.142 287.343 408.303C286.264 409.924 284.196 411.995 282.397 413.526C280.509 415.147 277.721 417.579 275.383 418.93C273.135 420.191 272.416 420.101 270.797 422.262C269.538 423.613 268.099 424.333 267.2 424.513C264.862 424.964 261.445 423.433 260.186 421.902C259.376 419.38 258.028 416.949 258.927 413.166L261.894 412.176Z" fill="#FAFBFF"/>
<path fill-rule="evenodd" clip-rule="evenodd" d="M267.38 401.368C267.29 404.881 269.538 409.293 267.2 412.085C265.671 413.976 262.614 415.147 260.006 412.626C258.567 411.185 258.387 407.853 256.679 404.25L267.38 401.368Z" fill="#FFA495"/>
<path fill-rule="evenodd" clip-rule="evenodd" d="M274.754 405.691C275.024 405.601 275.203 405.601 275.473 405.511C279.61 404.34 285.095 401.549 286.084 402.089C288.243 403.44 288.602 404.971 287.163 407.132C286.084 408.753 284.016 410.824 282.218 412.355C280.329 413.976 277.541 416.408 275.203 417.759C272.955 419.02 272.236 418.93 270.617 421.091C269.358 422.442 267.919 423.162 267.02 423.342C264.682 423.793 261.175 422.262 259.916 420.731C259.377 418.84 258.567 417.038 258.477 414.697C258.118 411.635 258.387 410.014 259.736 410.104C262.254 410.194 263.243 411.455 264.322 412.175C266.571 413.526 268.009 411.725 268.369 409.564C268.459 408.663 268.369 407.672 268.189 406.592C268.189 406.502 268.099 406.412 268.099 406.322C267.38 403.62 268.729 403.35 268.729 403.98C268.819 405.421 269.628 406.141 270.797 406.322C271.966 406.322 273.675 405.781 274.754 405.691Z" fill="#193161"/>
<path fill-rule="evenodd" clip-rule="evenodd" d="M285.814 402.359C286.264 403.349 287.793 402.719 288.152 404.61C288.512 403.529 286.534 401.999 285.994 401.908C285.724 401.999 285.545 401.999 285.814 402.359Z" fill="#FAFBFF"/>
<path fill-rule="evenodd" clip-rule="evenodd" d="M264.952 307.348C265.851 317.435 270.887 349.676 269.538 358.501C267.47 371.83 268.009 387.86 268.009 401.999C267.649 407.943 259.466 411.005 257.128 407.222C255.24 394.614 252.542 383.537 251.373 376.513C250.114 368.678 250.564 359.132 252.542 353.998C251.733 348.325 247.866 333.825 244.719 323.739C243.549 320.137 236.985 308.339 243.819 296.632L264.952 307.348Z" fill="url(#paint29_linear_12_5)"/>
<path fill-rule="evenodd" clip-rule="evenodd" d="M268.189 398.216C268.189 399.297 268.189 400.828 268.189 401.909C267.829 407.853 259.556 411.095 257.218 407.312C257.038 406.412 256.858 405.421 256.769 404.52C259.916 407.943 266.121 403.44 268.189 398.216Z" fill="url(#paint30_linear_12_5)"/>
<path opacity="0.3" fill-rule="evenodd" clip-rule="evenodd" d="M269.718 352.467C267.02 365.796 259.556 383.627 255.42 397.046C253.261 385.519 247.956 365.976 252.542 353.998C252.092 350.756 250.653 344.722 248.855 338.148C252.452 331.394 249.035 325.991 250.653 316.534C260.096 314.913 245.887 303.386 265.761 315.544C267.739 329.863 269.358 338.869 269.718 352.467Z" fill="#1E2353"/>
<path fill-rule="evenodd" clip-rule="evenodd" d="M264.322 365.165C258.927 377.503 248.855 401.639 243.549 416.768C240.762 420.821 230.96 420.371 230.96 416.588C233.118 403.98 235.636 384.438 240.222 373.361C241.571 369.939 246.697 361.833 248.585 359.402C250.024 353.818 251.823 338.779 253.171 330.583C251.913 323.829 246.517 312.572 256.948 302.756C261.175 305.728 274.214 307.619 280.059 304.287C281.048 331.034 274.484 342.111 264.322 365.165Z" fill="url(#paint31_linear_12_5)"/>
<path fill-rule="evenodd" clip-rule="evenodd" d="M244.629 414.067C244.359 414.697 243.909 416.048 243.729 416.679C240.852 420.821 230.78 420.371 230.78 416.498C230.87 415.868 230.96 415.238 231.14 414.607C233.568 417.129 240.852 417.129 244.629 414.067Z" fill="url(#paint32_linear_12_5)"/>
<path fill-rule="evenodd" clip-rule="evenodd" d="M297.594 159.744C297.235 160.554 296.875 161.365 296.425 162.175L294.807 165.507C294.447 163.886 293.188 163.256 292.109 164.066C291.839 164.337 291.48 164.697 291.3 165.147C291.12 164.697 289.861 163.706 288.152 166.138C287.073 166.048 286.534 166.498 286.084 167.308C285.814 167.849 285.545 168.479 285.365 169.019C285.095 169.92 284.825 170.641 284.825 171.361C284.825 172.982 284.915 174.693 284.825 176.584C284.735 178.656 282.397 181.267 281.138 182.798L288.872 185.23C290.041 183.789 290.67 182.708 291.839 181.447C293.008 180.187 294.537 180.097 295.706 179.106C296.336 178.566 296.695 177.845 297.864 176.314C298.764 175.053 299.303 173.612 300.112 172.262C300.922 170.821 300.922 171.091 301.012 169.47C301.102 168.209 301.461 166.948 301.551 166.228C299.933 165.417 298.764 167.398 298.764 169.29C297.864 169.83 297.235 171.091 297.055 171.631C295.796 170.01 296.515 169.29 297.055 167.218C297.864 165.777 298.404 164.427 298.853 162.986C299.123 162.355 299.303 161.635 299.573 160.914C299.933 159.744 299.483 158.843 299.123 158.663C299.033 158.573 298.224 158.663 297.594 159.744Z" fill="url(#paint33_linear_12_5)"/>
<path fill-rule="evenodd" clip-rule="evenodd" d="M300.832 166.228C299.663 166.408 298.943 167.939 298.943 169.47C298.134 169.921 297.505 171.091 297.325 171.632C297.774 171.001 298.943 169.74 299.393 169.65C299.393 168.209 299.933 167.039 300.832 166.228ZM294.987 165.238L294.807 165.508C294.717 165.147 294.537 164.787 294.357 164.517C294.267 165.598 293.728 166.408 293.278 166.949C294.267 166.498 294.717 166.048 294.987 165.238ZM291.3 165.147C291.21 165.057 291.12 164.877 290.85 164.697C290.67 165.688 290.4 166.138 289.951 166.949C290.76 166.408 291.12 165.868 291.3 165.147ZM288.242 166.138C288.062 166.138 287.883 166.138 287.703 166.138C287.523 167.219 287.343 167.849 286.803 168.57C287.613 167.849 288.062 167.309 288.242 166.138Z" fill="#FF8978"/>
<path fill-rule="evenodd" clip-rule="evenodd" d="M268.549 204.412C272.416 197.658 275.473 189.193 280.868 182.258C281.318 181.718 282.397 181.267 282.757 180.637C283.296 179.736 283.926 178.926 284.465 178.025C286.983 178.115 290.131 179.376 292.289 181.538C292.019 182.438 291.66 183.339 291.39 184.239C291.03 185.32 291.749 187.481 291.39 188.562C288.692 197.928 285.814 205.853 281.858 214.499C276.462 221.433 252.632 266.012 240.132 249.891C238.963 244.128 240.492 239.355 243.46 234.672C245.078 232.06 247.506 229.808 249.125 228.187C252.992 224.135 262.614 210.446 268.549 204.412Z" fill="url(#paint34_linear_12_5)"/>
<path fill-rule="evenodd" clip-rule="evenodd" d="M241.931 271.235C242.83 279.16 240.402 286.905 242.83 294.11C242.92 294.83 243.01 297.802 243.1 298.612C244.718 307.978 264.412 317.434 280.868 308.429C280.958 307.258 280.868 306.087 280.958 303.926C280.689 301.945 281.498 299.783 281.498 298.522C281.498 293.479 279.879 290.867 280.689 285.194C282.217 273.666 288.602 262.679 285.095 253.584C284.375 251.602 283.027 250.702 281.498 249.531C277.631 246.379 257.488 236.112 251.373 235.392C233.748 233.05 240.942 262.589 241.931 271.235Z" fill="url(#paint35_linear_12_5)"/>
<path opacity="0.35" fill-rule="evenodd" clip-rule="evenodd" d="M282.487 276.819C284.735 268.353 287.793 260.428 285.095 253.584C284.376 251.603 283.027 250.702 281.498 249.531C277.631 246.379 278.171 254.845 272.056 254.124C270.887 265.201 276.372 275.468 282.487 276.819Z" fill="#6266D7"/>
<path fill-rule="evenodd" clip-rule="evenodd" d="M270.077 231.789C269.898 234.581 269.988 238.634 270.527 241.516C264.772 241.336 256.769 239.805 255.869 235.482C255.869 234.941 255.959 234.401 255.959 233.951C255.869 233.861 255.779 233.861 255.689 233.771C253.621 232.42 250.204 231.339 248.046 228.818C244.539 224.765 242.65 219.362 245.438 213.958C250.474 204.052 262.614 203.872 269.448 211.887C270.797 213.418 269.808 215.039 270.527 216.57C270.707 216.84 271.246 217.02 271.876 217.56C272.775 218.281 275.293 224.495 275.203 227.737C275.203 228.998 272.146 230.889 270.887 231.609C270.707 231.699 270.437 231.699 270.077 231.789Z" fill="#FFA698"/>
<path fill-rule="evenodd" clip-rule="evenodd" d="M270.077 231.79C269.898 234.581 269.988 238.634 270.527 241.516C264.772 241.336 256.769 239.805 255.869 235.482C255.869 234.942 255.959 234.401 255.959 233.951C255.869 233.861 255.779 233.861 255.689 233.771C251.283 229.628 257.128 224.945 264.592 228.998C265.851 230.979 267.739 231.97 270.077 231.79Z" fill="url(#paint36_linear_12_5)"/>
<path fill-rule="evenodd" clip-rule="evenodd" d="M275.203 227.737C275.203 228.278 272.775 229.178 271.876 229.268C272.505 223.145 266.75 222.154 267.56 216.21C268.099 212.608 264.412 211.347 265.851 208.645C267.2 209.546 268.369 210.536 269.448 211.887C270.797 213.418 269.808 215.039 270.527 216.57C270.707 216.84 271.246 217.021 271.876 217.561C272.685 218.281 275.293 224.495 275.203 227.737Z" fill="url(#paint37_linear_12_5)"/>
<path fill-rule="evenodd" clip-rule="evenodd" d="M267.2 225.216C267.11 223.865 266.57 223.595 266.031 223.955C265.491 224.315 265.132 225.576 265.222 226.927C265.401 229.178 267.56 231.249 268.998 229.448C267.38 230.259 266.66 228.278 266.57 226.837C266.66 225.846 266.93 225.035 267.2 225.216Z" fill="#FFB49C"/>
<path fill-rule="evenodd" clip-rule="evenodd" d="M266.75 226.116C267.56 226.746 268.009 227.197 268.009 227.557C268.009 227.827 267.829 228.187 267.02 227.917C266.75 227.377 266.66 226.746 266.75 226.116Z" fill="#FF9D8E"/>
<path fill-rule="evenodd" clip-rule="evenodd" d="M255.779 235.392C254.071 235.932 252.452 237.644 252.812 238.814C254.52 245.749 267.2 247.28 275.113 245.659C275.203 245.659 272.146 241.606 270.617 241.066C265.671 241.516 257.308 239.445 255.779 235.392Z" fill="#726CDE"/>
<path fill-rule="evenodd" clip-rule="evenodd" d="M255.24 234.942C253.172 232.69 249.575 231.61 247.236 228.998C244.988 226.386 242.47 222.424 243.999 218.371C241.301 209.996 250.384 203.332 258.117 201.891C263.603 200.81 266.84 206.664 264.502 210.626C266.57 212.968 266.48 215.94 266.301 216.75C265.851 219.182 265.941 219.452 266.66 221.253C267.29 222.694 268.729 226.116 266.031 223.955C264.232 222.514 263.063 225.666 263.603 227.737C263.873 228.728 264.232 229.898 263.963 231.88C263.513 236.293 256.409 236.203 255.24 234.942Z" fill="#562E65"/>
<path fill-rule="evenodd" clip-rule="evenodd" d="M246.517 214.589C244.719 206.484 255.33 202.341 259.556 202.251C263.783 202.161 267.11 209.095 262.074 211.437C258.657 213.058 251.913 209.906 246.517 214.589Z" fill="url(#paint38_linear_12_5)"/>
<path fill-rule="evenodd" clip-rule="evenodd" d="M330.957 226.026C330.687 226.657 330.687 227.017 330.597 227.647C330.147 228.638 329.968 229.449 329.788 230.169C329.518 231.52 329.608 232.511 329.608 234.222C329.608 235.212 329.788 235.753 329.968 236.743C328.978 238.725 327.36 239.985 325.831 241.606L330.687 245.299C332.755 243.948 334.374 242.507 336.083 241.336C337.521 240.796 338.061 240.436 338.421 239.985C339.59 238.815 342.827 235.302 343.097 233.951C343.277 232.421 342.917 228.908 342.557 226.927C341.658 221.974 339.769 216.841 339.5 219.092C339.05 219.632 339.41 224.135 339.14 224.766C337.971 226.116 337.431 226.657 335.993 228.188C335.093 228.728 334.464 229.268 334.104 229.359C333.565 229.449 333.295 229.178 333.295 228.728C333.295 228.278 333.565 227.377 333.834 226.116C333.834 223.955 333.295 222.784 332.216 222.874C331.676 222.964 331.317 223.235 331.137 223.865C331.047 224.495 331.047 225.216 330.957 226.026Z" fill="url(#paint39_linear_12_5)"/>
<path fill-rule="evenodd" clip-rule="evenodd" d="M281.858 246.74C288.602 247.73 301.461 255.115 310.454 259.168C315.4 252.053 321.964 243.588 326.011 240.706C326.461 240.346 327.63 239.715 327.989 239.265C328.619 238.544 329.158 237.824 329.698 237.013C332.216 237.374 335.903 240.526 335.813 241.967C335.363 242.687 335.003 243.498 334.554 244.308C334.284 244.848 334.374 246.019 334.194 246.65C332.845 251.603 325.292 263.13 321.784 268.263C319.716 271.235 319.087 272.946 317.648 273.847C315.4 275.288 312.522 274.477 306.767 273.036C302.001 271.866 286.444 268.984 279.34 265.201C274.304 262.59 270.437 257.727 272.415 252.233C273.854 248.811 277.631 246.109 281.858 246.74Z" fill="url(#paint40_linear_12_5)"/>
<defs>
<linearGradient id="paint0_linear_12_5" x1="322.432" y1="72.1546" x2="322.425" y2="115.841" gradientUnits="userSpaceOnUse">
<stop stop-color="#324179"/>
<stop offset="1" stop-color="#0C124D"/>
</linearGradient>
<linearGradient id="paint1_linear_12_5" x1="329.695" y1="74.9428" x2="329.665" y2="149.359" gradientUnits="userSpaceOnUse">
<stop stop-color="#324179"/>
<stop offset="1" stop-color="#0C124D"/>
</linearGradient>
<linearGradient id="paint2_linear_12_5" x1="364.651" y1="148.612" x2="317.732" y2="432.961" gradientUnits="userSpaceOnUse">
<stop stop-color="#303A7D"/>
<stop offset="1" stop-color="#EAEFFF"/>
</linearGradient>
<linearGradient id="paint3_linear_12_5" x1="391.806" y1="94.7952" x2="303.755" y2="387.926" gradientUnits="userSpaceOnUse">
<stop stop-color="#C583B7"/>
<stop offset="0.994075" stop-color="#725EA6"/>
</linearGradient>
<linearGradient id="paint4_linear_12_5" x1="442.035" y1="323.626" x2="469.655" y2="265.624" gradientUnits="userSpaceOnUse">
<stop stop-color="#965CF2"/>
<stop offset="1" stop-color="#FF8ADC"/>
</linearGradient>
<linearGradient id="paint5_linear_12_5" x1="438.468" y1="220.98" x2="489.613" y2="146.378" gradientUnits="userSpaceOnUse">
<stop stop-color="#965CF2"/>
<stop offset="1" stop-color="#FF8ADC"/>
</linearGradient>
<linearGradient id="paint6_linear_12_5" x1="198.283" y1="297.1" x2="230.363" y2="227.234" gradientUnits="userSpaceOnUse">
<stop stop-color="#965CF2"/>
<stop offset="1" stop-color="#FF8ADC"/>
</linearGradient>
<linearGradient id="paint7_linear_12_5" x1="159.283" y1="220.968" x2="146.573" y2="257.351" gradientUnits="userSpaceOnUse">
<stop stop-color="#1C8EF4"/>
<stop offset="1" stop-color="#00CFDD"/>
</linearGradient>
<linearGradient id="paint8_linear_12_5" x1="202.361" y1="119.863" x2="228.35" y2="33.0714" gradientUnits="userSpaceOnUse">
<stop stop-color="#965CF2"/>
<stop offset="1" stop-color="#FF8ADC"/>
</linearGradient>
<linearGradient id="paint9_linear_12_5" x1="194.922" y1="32.4633" x2="165.298" y2="129.621" gradientUnits="userSpaceOnUse">
<stop stop-color="#6D6AFE"/>
<stop offset="1" stop-color="#3FB0F7"/>
</linearGradient>
<linearGradient id="paint10_linear_12_5" x1="444.298" y1="304.827" x2="452.986" y2="287.978" gradientUnits="userSpaceOnUse">
<stop stop-color="#965CF2"/>
<stop offset="1" stop-color="#FF8ADC"/>
</linearGradient>
<linearGradient id="paint11_linear_12_5" x1="339.976" y1="330.24" x2="319.078" y2="362.703" gradientUnits="userSpaceOnUse">
<stop stop-color="#FF66BC"/>
<stop offset="0.56" stop-color="#FF8AE6"/>
<stop offset="1" stop-color="#FFBBA8"/>
</linearGradient>
<linearGradient id="paint12_linear_12_5" x1="345.576" y1="341.864" x2="291.201" y2="344.196" gradientUnits="userSpaceOnUse">
<stop stop-color="#FF66BC"/>
<stop offset="0.56" stop-color="#FF8AE6"/>
<stop offset="1" stop-color="#FFBBA8"/>
</linearGradient>
<linearGradient id="paint13_linear_12_5" x1="420.135" y1="412.147" x2="430.194" y2="384.544" gradientUnits="userSpaceOnUse">
<stop stop-color="#965CF2"/>
<stop offset="1" stop-color="#FF8ADC"/>
</linearGradient>
<linearGradient id="paint14_linear_12_5" x1="422.743" y1="423.641" x2="419.067" y2="354.826" gradientUnits="userSpaceOnUse">
<stop stop-color="#965CF2"/>
<stop offset="1" stop-color="#FF8ADC"/>
</linearGradient>
<linearGradient id="paint15_linear_12_5" x1="287.249" y1="5.29426" x2="287.319" y2="54.6376" gradientUnits="userSpaceOnUse">
<stop stop-color="#5A2D68"/>
<stop offset="1" stop-color="#22043D"/>
</linearGradient>
<linearGradient id="paint16_linear_12_5" x1="288.628" y1="89.5638" x2="286.514" y2="88.8139" gradientUnits="userSpaceOnUse">
<stop stop-color="#FF8A78"/>
<stop offset="1" stop-color="#FFA799"/>
</linearGradient>
<linearGradient id="paint17_linear_12_5" x1="289.647" y1="72.7671" x2="289.351" y2="30.3979" gradientUnits="userSpaceOnUse">
<stop stop-color="#965CF2"/>
<stop offset="1" stop-color="#FF8ADC"/>
</linearGradient>
<linearGradient id="paint18_linear_12_5" x1="316.569" y1="63.0678" x2="306.446" y2="30.9196" gradientUnits="userSpaceOnUse">
<stop stop-color="#965CF2"/>
<stop offset="1" stop-color="#FF8ADC"/>
</linearGradient>
<linearGradient id="paint19_linear_12_5" x1="291.66" y1="26.5249" x2="294.219" y2="29.6322" gradientUnits="userSpaceOnUse">
<stop stop-color="#FF8A78"/>
<stop offset="1" stop-color="#FFA799"/>
</linearGradient>
<linearGradient id="paint20_linear_12_5" x1="327.861" y1="255.501" x2="278.535" y2="61.7414" gradientUnits="userSpaceOnUse">
<stop stop-color="#965CF2"/>
<stop offset="1" stop-color="#FF8ADC"/>
</linearGradient>
<linearGradient id="paint21_linear_12_5" x1="323.765" y1="130.202" x2="314.476" y2="139.164" gradientUnits="userSpaceOnUse">
<stop stop-color="#6D6AFE"/>
<stop offset="1" stop-color="#3FB0F7"/>
</linearGradient>
<linearGradient id="paint22_linear_12_5" x1="274.824" y1="148.266" x2="270.716" y2="154.069" gradientUnits="userSpaceOnUse">
<stop stop-color="#6D6AFE"/>
<stop offset="1" stop-color="#3FB0F7"/>
</linearGradient>
<linearGradient id="paint23_linear_12_5" x1="278.165" y1="147.893" x2="265.587" y2="157.416" gradientUnits="userSpaceOnUse">
<stop stop-color="#6D6AFE"/>
<stop offset="1" stop-color="#3FB0F7"/>
</linearGradient>
<linearGradient id="paint24_linear_12_5" x1="449.116" y1="143.849" x2="430.519" y2="205.747" gradientUnits="userSpaceOnUse">
<stop stop-color="#6D6AFE"/>
<stop offset="1" stop-color="#3FB0F7"/>
</linearGradient>
<linearGradient id="paint25_linear_12_5" x1="434.959" y1="174.062" x2="443.492" y2="147.861" gradientUnits="userSpaceOnUse">
<stop stop-color="#965CF2"/>
<stop offset="1" stop-color="#FF8ADC"/>
</linearGradient>
<linearGradient id="paint26_linear_12_5" x1="433.61" y1="172.825" x2="441.384" y2="159.605" gradientUnits="userSpaceOnUse">
<stop stop-color="#6D6AFE"/>
<stop offset="1" stop-color="#3FB0F7"/>
</linearGradient>
<linearGradient id="paint27_linear_12_5" x1="296.562" y1="96.0868" x2="294.792" y2="95.2699" gradientUnits="userSpaceOnUse">
<stop stop-color="#FF8A78"/>
<stop offset="1" stop-color="#FFA799"/>
</linearGradient>
<linearGradient id="paint28_linear_12_5" x1="307.248" y1="78.5611" x2="303.481" y2="38.1043" gradientUnits="userSpaceOnUse">
<stop stop-color="#965CF2"/>
<stop offset="1" stop-color="#FF8ADC"/>
</linearGradient>
<linearGradient id="paint29_linear_12_5" x1="261.212" y1="321.493" x2="248.097" y2="384.148" gradientUnits="userSpaceOnUse">
<stop stop-color="#40457F"/>
<stop offset="1" stop-color="#1E2353"/>
</linearGradient>
<linearGradient id="paint30_linear_12_5" x1="264.092" y1="401.648" x2="259.171" y2="408.698" gradientUnits="userSpaceOnUse">
<stop stop-color="#3773B9"/>
<stop offset="1" stop-color="#003C76"/>
</linearGradient>
<linearGradient id="paint31_linear_12_5" x1="272.871" y1="328.568" x2="228.185" y2="389.425" gradientUnits="userSpaceOnUse">
<stop stop-color="#40457F"/>
<stop offset="1" stop-color="#1E2353"/>
</linearGradient>
<linearGradient id="paint32_linear_12_5" x1="238.94" y1="416.035" x2="231.516" y2="417.931" gradientUnits="userSpaceOnUse">
<stop stop-color="#3773B9"/>
<stop offset="1" stop-color="#003C76"/>
</linearGradient>
<linearGradient id="paint33_linear_12_5" x1="285.406" y1="181.516" x2="294.815" y2="168.088" gradientUnits="userSpaceOnUse">
<stop stop-color="#FF8A78"/>
<stop offset="1" stop-color="#FFA799"/>
</linearGradient>
<linearGradient id="paint34_linear_12_5" x1="265.842" y1="215.116" x2="276.723" y2="235.502" gradientUnits="userSpaceOnUse">
<stop stop-color="#A77EF7"/>
<stop offset="1" stop-color="#5E65D6"/>
</linearGradient>
<linearGradient id="paint35_linear_12_5" x1="263.727" y1="248.162" x2="257.264" y2="304.726" gradientUnits="userSpaceOnUse">
<stop stop-color="#A77EF7"/>
<stop offset="1" stop-color="#5E65D6"/>
</linearGradient>
<linearGradient id="paint36_linear_12_5" x1="264.062" y1="231.69" x2="262.051" y2="236.739" gradientUnits="userSpaceOnUse">
<stop stop-color="#FF8A78"/>
<stop offset="1" stop-color="#FFA799"/>
</linearGradient>
<linearGradient id="paint37_linear_12_5" x1="270.862" y1="217.55" x2="267.896" y2="223.237" gradientUnits="userSpaceOnUse">
<stop stop-color="#FFB89E"/>
<stop offset="1" stop-color="#FFA799"/>
</linearGradient>
<linearGradient id="paint38_linear_12_5" x1="264.59" y1="203.711" x2="251.514" y2="211.19" gradientUnits="userSpaceOnUse">
<stop stop-color="#8A4791"/>
<stop offset="1" stop-color="#562E65"/>
</linearGradient>
<linearGradient id="paint39_linear_12_5" x1="330.833" y1="237.493" x2="339.607" y2="225.919" gradientUnits="userSpaceOnUse">
<stop stop-color="#FF8A78"/>
<stop offset="1" stop-color="#FFA799"/>
</linearGradient>
<linearGradient id="paint40_linear_12_5" x1="303.56" y1="241.793" x2="306.221" y2="295.682" gradientUnits="userSpaceOnUse">
<stop stop-color="#A77EF7"/>
<stop offset="1" stop-color="#5E65D6"/>
</linearGradient>
</defs>
</svg>
