<svg width="402" height="412" viewBox="0 0 402 412" fill="none" xmlns="http://www.w3.org/2000/svg">
<circle r="32" transform="matrix(-1 0 0 1 32 32)" fill="#F0F2FC"/>
<circle cx="201" cy="211" r="201" fill="#F0F2FC"/>
<path fill-rule="evenodd" clip-rule="evenodd" d="M68.9 236.417C70.1 236.317 71.3 235.917 72.4 235.317L73.4 237.117C72 237.817 70.6 238.417 69.1 238.517L68.9 236.417ZM147.1 109.617L146.1 107.817L142.5 109.817L143.5 111.617L147.1 109.617ZM141.7 112.617L140.7 110.817L137.1 112.817L138.1 114.617L141.7 112.617ZM136.2 115.617L135.2 113.817L131.6 115.817L132.6 117.617L136.2 115.617ZM130.7 118.717L129.7 116.917L126.1 118.917L127.1 120.717L130.7 118.717ZM125.3 121.717L124.3 119.917L120.7 121.917L121.7 123.717L125.3 121.717ZM119.8 124.717L118.8 122.917L115.2 124.917L116.2 126.717L119.8 124.717ZM114.4 127.717L113.4 125.917L109.8 127.917L110.8 129.717L114.4 127.717ZM108.9 130.817L107.9 129.017L104.3 131.017L105.3 132.817L108.9 130.817ZM103.5 133.817L102.5 132.017L98.9 134.017L99.9 135.817L103.5 133.817ZM98 136.817L97 135.017L93.4 137.017L94.4 138.817L98 136.817ZM92.5 139.817L91.5 138.017L87.9 140.017L88.9 141.817L92.5 139.817ZM87.1 142.917L86.1 141.117L82.5 143.117L83.5 144.917L87.1 142.917ZM81.6 145.917L80.6 144.117L77 146.117L78 147.917L81.6 145.917ZM76.2 148.917L75.2 147.117L71.6 149.117L72.6 150.917L76.2 148.917ZM70.7 151.917L69.7 150.117L66.1 152.117L67.1 153.917L70.7 151.917ZM65.2 155.017L64.2 153.217C63 153.917 61.7 154.517 60.5 155.317L61.7 157.017C62.8 156.217 64.1 155.617 65.2 155.017ZM60.2 158.217C59.2 159.117 58.4 160.117 57.6 161.117L55.9 159.917C56.7 158.717 57.7 157.617 58.8 156.617L60.2 158.217ZM56.6 162.817C56 164.017 55.4 165.217 55 166.417L53 165.817C53.4 164.417 54 163.117 54.7 161.817L56.6 162.817ZM54.5 168.317C54.2 169.617 54.1 170.917 54.1 172.217H52C52 170.717 52.2 169.317 52.5 167.817L54.5 168.317ZM54.2 174.217C54.3 175.617 54.6 177.017 54.7 178.317L52.6 178.617C52.4 177.217 52.2 175.817 52.1 174.517L54.2 174.217ZM55 180.417L52.9 180.717L53.4 184.817L55.5 184.517L55 180.417ZM55.8 186.517L53.7 186.817L54.2 190.917L56.3 190.617L55.8 186.517ZM56.6 192.717L54.5 193.017L55 197.117L57.1 196.817L56.6 192.717ZM57.4 198.917L55.3 199.217L55.8 203.317L57.9 203.017L57.4 198.917ZM58.2 205.117L56.1 205.417L56.6 209.517L58.7 209.217L58.2 205.117ZM59 211.317L56.9 211.617L57.4 215.717L59.5 215.417L59 211.317ZM59.9 217.517L57.8 217.817L58.3 221.917L60.4 221.617L59.9 217.517ZM60.7 223.717L58.6 224.017L59.1 228.117L61.2 227.817L60.7 223.717ZM61.5 229.817C61.7 230.917 62.2 232.317 62.9 233.317L61.2 234.417C60.4 233.117 59.8 231.717 59.5 230.217L61.5 229.817ZM64 234.717L64.2 234.917C65.1 235.717 66 236.117 67.1 236.317L66.7 238.317C65.2 238.017 63.8 237.317 62.7 236.317L62.5 236.217L64 234.717Z" fill="white"/>
<path fill-rule="evenodd" clip-rule="evenodd" d="M310.6 116.217L309.6 114.417L306 116.417L307 118.217L310.6 116.217ZM322.6 193.817L323.6 195.617L327.2 193.617L326.2 191.817L322.6 193.817ZM328 190.717L329 192.517L332.6 190.517L331.6 188.717L328 190.717ZM333.5 187.717L334.5 189.517L338.1 187.517L337.1 185.717L333.5 187.717ZM338.9 184.717L339.9 186.517C341.3 185.717 342.3 185.217 343.6 184.117L342.2 182.517C341.2 183.517 340.2 184.017 338.9 184.717ZM343.7 181.217C344.6 180.217 345.3 179.217 346 178.017L347.8 179.017C347.1 180.317 346.2 181.417 345.2 182.517L343.7 181.217ZM346.9 176.317C347.4 175.117 347.9 173.917 348.2 172.617L350.2 173.117C349.9 174.517 349.4 175.917 348.8 177.217L346.9 176.317ZM348.5 170.617C348.7 169.317 348.7 168.017 348.6 166.717L350.7 166.517C350.9 167.917 350.8 169.417 350.6 170.917L348.5 170.617ZM348.3 164.617L350.4 164.317L349.9 160.217L347.8 160.517L348.3 164.617ZM347.5 158.517L349.6 158.217L349.1 154.117L347 154.417L347.5 158.517ZM346.7 152.317L348.8 152.017L348.3 147.917L346.2 148.217L346.7 152.317ZM345.9 146.117L348 145.817L347.5 141.717L345.4 142.017L345.9 146.117ZM345.1 139.917L347.2 139.617L346.7 135.517L344.6 135.817L345.1 139.917ZM344.3 133.717L346.4 133.417L345.9 129.317L343.8 129.617L344.3 133.717ZM343.5 127.517L345.6 127.217L345.1 123.117L343 123.417L343.5 127.517ZM342.6 121.317L344.7 121.017L344.2 116.917L342.1 117.217L342.6 121.317ZM341.8 115.117L343.9 114.817C343.7 113.417 343.6 112.017 343.3 110.617L341.3 111.017C341.6 112.417 341.7 113.817 341.8 115.117ZM340.8 109.217C340.3 107.917 339.8 106.917 338.9 106.017L340.4 104.617C341.5 105.717 342.2 107.117 342.7 108.517L340.8 109.217ZM337.5 104.917C337.2 104.717 336.9 104.617 336.6 104.517C335.8 104.217 334.9 104.117 334.1 104.117L334 102.017C335.2 101.917 336.3 102.117 337.4 102.517C337.8 102.717 338.2 102.817 338.6 103.117L337.5 104.917ZM332.3 104.417C331.7 104.617 330.8 104.917 330.2 105.317L328.7 106.117L327.7 104.317L329.2 103.517C329.9 103.117 330.9 102.717 331.7 102.517L332.3 104.417ZM327 107.117L326 105.317L322.4 107.317L323.4 109.117L327 107.117ZM321.5 110.117L320.5 108.317L316.9 110.317L317.9 112.117L321.5 110.117ZM316.1 113.117L315.1 111.317L311.5 113.317L312.5 115.117L316.1 113.117Z" fill="white"/>
<path fill-rule="evenodd" clip-rule="evenodd" d="M198.7 82.4167L197.7 80.6168L194.1 82.6168L195.1 84.4167L198.7 82.4167ZM231.5 93.4167L231 89.7168L233.1 89.4167L233.6 93.1168L231.5 93.4167ZM230.7 87.6168L232.8 87.3167L232.3 83.2168L230.2 83.5168L230.7 87.6168ZM229.9 81.4167L232 81.1168C231.8 79.7168 231.7 78.3167 231.4 76.9167L229.4 77.3167C229.6 78.6167 229.7 80.1167 229.9 81.4167ZM228.9 75.4167C228.4 74.1167 227.9 73.1168 227 72.2168L228.5 70.8167C229.6 71.9167 230.3 73.3168 230.8 74.7168L228.9 75.4167ZM225.6 71.2168C225.3 71.0168 225 70.9167 224.7 70.8167C223.9 70.5167 223 70.4167 222.2 70.4167L222.1 68.3167C223.3 68.2167 224.4 68.4167 225.5 68.8167C225.9 69.0167 226.3 69.1167 226.7 69.4167L225.6 71.2168ZM220.4 70.6168C219.8 70.8168 218.9 71.1168 218.3 71.5168L216.8 72.3167L215.8 70.5168L217.3 69.7168C218 69.3168 219 68.9168 219.8 68.7168L220.4 70.6168ZM215 73.3167L214 71.5168L210.4 73.5168L211.4 75.3167L215 73.3167ZM209.6 76.3167L208.6 74.5168L205 76.5168L206 78.3167L209.6 76.3167ZM204.1 79.4167L203.1 77.6168L199.5 79.6168L200.5 81.4167L204.1 79.4167Z" fill="white"/>
<path opacity="0.3" fill-rule="evenodd" clip-rule="evenodd" d="M99.9 358.317L294.6 248.917C297.6 247.617 301.9 246.317 304.8 248.117L312.2 252.617C313.7 253.517 318.6 256.517 315.3 258.317C305.7 263.517 128.9 363.517 119.1 368.817C117.2 369.817 114.5 370.217 111.7 369.917C108.9 369.717 105.9 368.917 103.7 367.517L100.7 365.717C98.6 364.417 97.4 363.017 97.3 361.617C97.2 360.317 98.1 359.117 99.9 358.317Z" fill="#2940CC"/>
<path fill-rule="evenodd" clip-rule="evenodd" d="M277.9 62.8168C279.3 62.0168 280.9 61.7168 282.4 62.3168L285.8 63.6168C287 70.0168 110.3 363.917 108.7 365.517L105.7 364.417C103.7 363.617 102.7 361.517 102.4 359.517L76.7001 184.117C76.3001 181.217 77.2001 178.117 78.8001 175.617C79.7001 174.317 80.8001 173.117 82.2001 172.317L277.9 62.8168Z" fill="#303A7D"/>
<path fill-rule="evenodd" clip-rule="evenodd" d="M85.6 173.617L281.3 64.0167C285 61.9167 288.5 63.9167 289.2 68.4167L314.9 243.817C315.6 248.317 313.1 253.617 309.4 255.617L113.6 365.217C109.9 367.317 106.4 365.317 105.7 360.817L80 185.417C79.4 181.017 81.9 175.717 85.6 173.617Z" fill="url(#paint0_linear_33_3)"/>
<path fill-rule="evenodd" clip-rule="evenodd" d="M85.6 173.617L281.3 64.0167C285 61.9167 288.5 63.9167 289.2 68.4167L290.1 74.3167L80.9 191.417L80 185.417C79.4 181.017 81.9 175.717 85.6 173.617Z" fill="#3F4A93"/>
<path fill-rule="evenodd" clip-rule="evenodd" d="M282.5 68.4168C281 68.7168 279.9 70.5168 280 72.3168C280.1 74.1168 281.3 75.4168 282.8 75.0168C284.3 74.7168 285.4 72.9168 285.3 71.1168C285.3 69.3168 284 68.1168 282.5 68.4168Z" fill="#303A7D"/>
<path fill-rule="evenodd" clip-rule="evenodd" d="M275.7 72.3168C274.2 72.6168 273.1 74.4168 273.2 76.2168C273.3 78.0168 274.5 79.3168 276 78.9168C277.5 78.6168 278.6 76.8168 278.5 75.0168C278.5 73.2168 277.2 72.0168 275.7 72.3168Z" fill="#303A7D"/>
<path fill-rule="evenodd" clip-rule="evenodd" d="M268.4 76.6168C266.9 76.9168 265.8 78.7168 265.9 80.5168C266 82.3168 267.2 83.6168 268.7 83.2168C270.2 82.9168 271.3 81.1168 271.2 79.3168C271.2 77.4168 269.9 76.2168 268.4 76.6168Z" fill="#303A7D"/>
<path opacity="0.5" fill-rule="evenodd" clip-rule="evenodd" d="M81.8999 198.117L183.9 141.517C186.2 140.217 188.5 140.017 190.4 140.817C192.8 141.817 194.7 144.217 195.2 147.817L201.6 196.917C202.5 203.317 199 210.917 193.7 213.917L92.3999 270.017L88.9999 268.617L88.0999 262.417L81.8999 198.117Z" fill="url(#paint1_linear_33_3)"/>
<path fill-rule="evenodd" clip-rule="evenodd" d="M75.0999 215.017L82.6999 266.617L81.7999 266.717L79.2999 265.717C76.5999 264.617 75.0999 261.817 74.6999 259.017L68.5999 212.417C67.9999 208.417 69.2 204.217 71.5 200.817C72.7 199.017 74.2999 197.317 76.1999 196.317L175.8 141.117C177.7 140.017 179.9 139.617 182 140.417L184.2 141.317C185.3 141.717 185.6 142.017 185.6 142.117C184.6 151.817 73.5999 205.217 75.0999 215.017Z" fill="#303A7D"/>
<path fill-rule="evenodd" clip-rule="evenodd" d="M78.7 197.417L178.3 142.217C180.5 141.017 182.7 140.817 184.5 141.517C186.8 142.417 188.6 144.817 189.1 148.217L195.2 194.817C196.1 200.917 192.7 208.117 187.7 210.917L88.1 266.117C83 268.917 78.2 266.217 77.3 260.117L71.2 213.517C70.3 207.417 73.6 200.217 78.7 197.417Z" fill="url(#paint2_linear_33_3)"/>
<path opacity="0.5" fill-rule="evenodd" clip-rule="evenodd" d="M76.7999 216.817L133.5 185.617C134 185.317 134.5 185.317 135 185.417C135.6 185.617 136 186.217 136.1 187.017L136.5 189.317C136.7 190.817 135.9 192.517 134.7 193.217L77.9999 224.417C76.7999 225.117 75.5999 224.417 75.3999 223.017L74.9999 220.717C74.7999 219.217 75.5999 217.517 76.7999 216.817Z" fill="#6DC6D9"/>
<path opacity="0.5" fill-rule="evenodd" clip-rule="evenodd" d="M78.9 230.917L135.6 199.717C136.1 199.417 136.6 199.417 137.1 199.517C137.7 199.717 138.1 200.317 138.2 201.117L138.6 203.417C138.8 204.917 138 206.617 136.8 207.317L80.1 238.517C78.9 239.217 77.7 238.517 77.5 237.117L77.1 234.817C76.9 233.317 77.7 231.517 78.9 230.917Z" fill="#6DC6D9"/>
<path opacity="0.5" fill-rule="evenodd" clip-rule="evenodd" d="M115.1 225.717L137.7 213.717C138.2 213.417 138.7 213.417 139.2 213.517C139.8 213.717 140.2 214.317 140.3 215.117L140.7 217.417C140.9 218.917 140.1 220.617 138.9 221.317L116.3 233.317C115.1 234.017 113.9 233.317 113.7 231.917L113.3 229.617C113.1 228.117 113.9 226.417 115.1 225.717Z" fill="#6DC6D9"/>
<path opacity="0.5" fill-rule="evenodd" clip-rule="evenodd" d="M187.5 171.217C189.3 186.917 180.5 206.117 168 214.017C155.5 221.917 143.5 211.717 142.2 199.917C140.9 188.117 143.1 183.217 146.7 175.417C148.9 176.617 151.1 177.817 153.2 179.017C150.9 184.017 149.4 187.217 150.3 194.817C151.1 202.417 158.9 209.017 166.9 203.917C174.9 198.817 180.5 186.517 179.4 176.417C182 174.617 184.8 172.917 187.5 171.217Z" fill="white"/>
<path opacity="0.3" fill-rule="evenodd" clip-rule="evenodd" d="M178.6 155.317C183.3 157.817 186.6 163.417 187.5 171.217C184.8 172.917 182.1 174.617 179.4 176.317C178.8 171.317 176.7 167.717 173.7 166.117C175.3 162.517 176.9 158.917 178.6 155.317Z" fill="white"/>
<path opacity="0.2" fill-rule="evenodd" clip-rule="evenodd" d="M161.6 157.117C167.9 153.117 173.9 152.717 178.5 155.317C176.9 158.917 175.2 162.517 173.6 166.117C170.6 164.517 166.7 164.717 162.7 167.317C158.7 169.817 155.3 174.217 153 179.217C150.8 178.017 148.6 176.817 146.5 175.617C150 167.817 155.3 161.117 161.6 157.117Z" fill="white"/>
<path opacity="0.5" fill-rule="evenodd" clip-rule="evenodd" d="M223.1 130.217L290.5 92.9167C291.2 92.5167 291.9 92.2167 292.6 92.1167L302.3 158.117C301.6 158.817 300.9 159.417 300.1 159.817L232.6 197.017C228.5 199.317 224.5 197.117 223.8 192.117L216.9 143.217C216.2 138.317 219 132.417 223.1 130.217Z" fill="url(#paint3_linear_33_3)"/>
<path fill-rule="evenodd" clip-rule="evenodd" d="M225.3 138.617L233 188.917L232.3 189.017L230.4 188.317C228.3 187.517 227.2 185.317 226.9 183.117L220.4 136.717C220 133.617 220.9 130.317 222.6 127.717C223.5 126.317 224.7 125.017 226.2 124.217L303.4 81.4167C304.9 80.6167 306.6 80.3167 308.2 80.9167L309.9 81.6167C310.8 81.9167 311 82.2168 311 82.2168C310.1 89.6168 224.1 131.017 225.3 138.617Z" fill="#283482"/>
<path fill-rule="evenodd" clip-rule="evenodd" d="M228 125.017L305.2 82.2167C306.9 81.2167 308.6 81.1167 310 81.7167C311.8 82.4167 313.1 84.2167 313.5 86.9167L320 133.317C320.7 138.017 318.1 143.617 314.2 145.817L237 188.617C233.1 190.817 229.3 188.717 228.7 184.017L222.2 137.617C221.5 132.717 224.1 127.117 228 125.017Z" fill="white"/>
<path opacity="0.5" fill-rule="evenodd" clip-rule="evenodd" d="M231.9 153.417L311.2 109.417C311.6 109.217 312 109.117 312.3 109.317C312.7 109.517 313.1 109.917 313.1 110.517L313.4 112.317C313.6 113.417 312.9 114.817 312 115.317L232.7 159.317C231.8 159.817 230.9 159.317 230.7 158.217L230.4 156.417C230.3 155.217 230.9 153.917 231.9 153.417ZM272.4 154.317C271.5 154.817 270.8 156.217 271 157.317L271.3 159.117C271.5 160.217 272.4 160.717 273.3 160.217L315.2 137.117C316.1 136.617 316.8 135.217 316.6 134.117L316.3 132.317C316.2 131.717 315.9 131.217 315.5 131.117C315.2 131.017 314.8 131.017 314.4 131.217L272.4 154.317ZM233.5 164.317C232.6 164.817 231.9 166.217 232.1 167.317L232.4 169.117C232.6 170.217 233.5 170.717 234.4 170.217L313.7 126.217C314.6 125.717 315.3 124.317 315.1 123.217L314.8 121.417C314.7 120.817 314.4 120.317 314 120.217C313.7 120.117 313.3 120.117 312.9 120.317L233.5 164.317Z" fill="url(#paint4_linear_33_3)"/>
<path opacity="0.5" fill-rule="evenodd" clip-rule="evenodd" d="M269.6 114.317C271 113.517 272.4 114.317 272.6 116.017C272.9 117.717 271.9 119.717 270.5 120.517C269.1 121.317 267.7 120.517 267.5 118.817C267.2 117.117 268.2 115.117 269.6 114.317ZM266.1 119.617C266.5 122.217 268.6 123.417 270.7 122.217C272.9 121.017 274.3 117.917 273.9 115.317C273.5 112.717 271.4 111.517 269.3 112.717C267.2 113.817 265.7 116.917 266.1 119.617ZM262.8 119.917L261.4 120.717C261.4 121.217 261.5 121.717 261.5 122.217C261.6 122.717 261.7 123.117 261.8 123.617L263.2 122.817C263.6 124.017 264.2 125.017 265 125.717L264.2 127.517C264.8 128.017 265.4 128.417 266.2 128.617L267 126.817C268 127.117 269.1 127.017 270.2 126.617L270.5 128.317C270.9 128.217 271.3 128.017 271.7 127.817C272.1 127.617 272.5 127.317 272.9 127.017L272.7 125.317C273.8 124.517 274.7 123.417 275.5 122.117L276.7 122.817C277.2 121.917 277.7 120.917 278.1 119.917L276.9 119.217C277.4 117.817 277.6 116.317 277.6 114.917L279 114.117C279 113.617 278.9 113.117 278.9 112.617C278.8 112.117 278.7 111.717 278.6 111.217L277.2 112.017C276.8 110.817 276.2 109.817 275.4 109.117L276.2 107.317C275.6 106.817 275 106.417 274.2 106.217L273.4 108.017C272.4 107.717 271.3 107.817 270.2 108.217L269.9 106.517C269.5 106.617 269.1 106.817 268.7 107.117C268.3 107.317 267.9 107.617 267.5 107.817L267.8 109.517C266.7 110.317 265.8 111.417 265 112.617L263.8 111.917C263.3 112.817 262.8 113.817 262.4 114.817L263.6 115.517C263 117.017 262.8 118.417 262.8 119.917Z" fill="url(#paint5_linear_33_3)"/>
<path fill-rule="evenodd" clip-rule="evenodd" d="M186.3 68.7167C183.9 70.0167 182.5 71.6167 180.9 73.8167C180.9 73.4167 180.9 74.8167 180.9 72.6167C180.9 70.4167 182.2 66.8167 180.4 65.0167C179.7 64.3167 176.4 63.0167 175.6 62.7167C174.1 62.3167 172.3 62.5167 170.4 63.6167C167.5 65.2167 164.9 68.2167 163 71.9167C161.1 75.6167 159.9 81.8167 159.9 84.0167C159.9 86.2167 159.9 84.8167 159.9 85.2167C158.3 84.7167 156.8 84.7167 154.3 86.1167C151.8 87.5167 148.7 90.8167 146.7 94.6167C144.7 98.4167 143.5 102.817 143.5 106.917C143.5 110.117 144.2 112.717 145.5 114.517C146.8 116.317 149.2 117.417 150.9 118.017C155.9 119.817 165.4 109.817 170.5 107.017C175.9 104.017 181.2 101.117 186.5 98.1167C189.4 96.5167 192 93.4167 193.8 89.7167C195.6 86.0167 196.8 81.7167 196.7 77.7167C196.7 75.3167 198.4 71.8167 196.2 70.1167C192.8 67.4167 189.1 67.2167 186.3 68.7167Z" fill="#5C64AB"/>
<path fill-rule="evenodd" clip-rule="evenodd" d="M189.1 70.0167C186.7 71.3167 185.3 72.9167 183.7 75.1167C183.7 74.7167 183.7 76.1167 183.7 73.9167C183.7 71.7167 182.5 66.8167 180.6 65.2167C178.7 63.6167 176.1 63.3167 173.2 64.9167C170.3 66.5167 167.7 69.5167 165.8 73.2167C163.9 76.9167 162.7 83.1167 162.7 85.3167C162.7 87.5167 162.7 86.1167 162.7 86.5167C161.1 86.0167 159.6 86.0167 157.1 87.4167C154.6 88.8167 151.5 92.1167 149.5 95.9167C147.5 99.7167 146.3 104.117 146.3 108.217C146.3 112.417 147.5 115.517 149.5 117.117C151.4 118.717 154.1 118.917 157.1 117.317C162.5 114.317 167.9 111.317 173.3 108.317C178.7 105.317 184 102.417 189.3 99.4167C192.2 97.8167 194.8 94.7167 196.6 91.0167C198.4 87.3167 199.6 83.0167 199.5 79.0167C199.5 75.0167 198.3 72.0167 196.4 70.4167C194.6 68.6167 191.5 68.6167 189.1 70.0167Z" fill="url(#paint6_linear_33_3)"/>
<path fill-rule="evenodd" clip-rule="evenodd" d="M183.5 89.9167L188.5 87.1167L180.7 100.517L172.8 96.0167L177.8 93.2167V80.4167L183.5 77.1167V89.9167Z" fill="white"/>
<path fill-rule="evenodd" clip-rule="evenodd" d="M166.3 95.3167L161.3 98.1167L169.2 84.6167L177 89.2167L172.1 92.0167V104.717L166.3 108.017V95.3167Z" fill="white"/>
<path opacity="0.5" fill-rule="evenodd" clip-rule="evenodd" d="M278.4 250.017L312.8 230.017L303.6 169.117L264.6 191.817C264.4 191.917 264.3 192.217 264.4 192.617L275.8 246.917C276 247.817 276.2 248.517 276.5 249.017C276.8 249.517 277.1 249.817 277.4 250.017C277.9 250.117 278.2 250.117 278.4 250.017Z" fill="url(#paint7_linear_33_3)"/>
<path fill-rule="evenodd" clip-rule="evenodd" d="M281.2 240.417L325.1 214.917L314.9 166.517C314.7 166.417 314.5 166.417 314.2 166.517L270.3 192.017C271.1 190.117 276.9 226.217 281.2 240.417Z" fill="url(#paint8_linear_33_3)"/>
<path fill-rule="evenodd" clip-rule="evenodd" d="M314.8 166.617C296.4 187.717 274.4 200.817 276.5 219.117L281.1 240.517L325 215.017L314.8 166.617Z" fill="#DD3F8F"/>
<path fill-rule="evenodd" clip-rule="evenodd" d="M281.8 186.517L282.8 235.517L328.8 208.917L328.6 160.317L281.8 186.517Z" fill="#F2F3FB"/>
<path fill-rule="evenodd" clip-rule="evenodd" d="M282.6 186.917L281.7 186.317L281.8 235.017L282.8 235.517L282.6 186.917Z" fill="#C6DBF1"/>
<path fill-rule="evenodd" clip-rule="evenodd" d="M328.6 160.317L327.7 159.817L281.7 186.317L282.6 186.917L328.6 160.317Z" fill="#DCE8F8"/>
<path fill-rule="evenodd" clip-rule="evenodd" d="M284.4 225.017V228.117L327 203.517V200.417L284.4 225.017ZM284.3 189.717V192.817L326.9 168.217V165.117L284.3 189.717ZM284.3 194.817L326.9 170.217V173.317L284.3 197.917V194.817ZM284.3 199.817L326.9 175.217V178.317L284.3 202.917V199.817ZM284.3 204.817L326.9 180.217V183.317L284.3 207.917V204.817ZM284.3 209.917L326.9 185.317V188.417L284.3 213.017V209.917ZM284.3 214.917L326.9 190.317V193.417L284.4 218.017L284.3 214.917ZM284.4 220.017L327 195.417V198.517L284.4 223.017V220.017Z" fill="#C6DBF1"/>
<path fill-rule="evenodd" clip-rule="evenodd" d="M293 205.317L282.5 242.117C282.4 242.517 282.1 243.017 281.9 243.317L325.8 217.817C326.2 217.617 326.4 217.017 326.4 216.617L336.9 179.817L338.9 172.917C339 172.417 338.6 171.817 338.5 171.717C336.7 173.417 326.9 179.317 325.2 180.417C322.2 182.817 322.1 185.717 317.5 190.517C316.6 191.417 316.3 191.717 315.2 192.317L293 205.317Z" fill="url(#paint9_linear_33_3)"/>
<path fill-rule="evenodd" clip-rule="evenodd" d="M292.5 203.917C292.4 203.817 292.4 203.817 292.3 203.717C292 203.517 291.6 203.617 291.5 203.917L281.1 240.417L270.9 192.017C270.8 191.517 270.5 191.117 270.2 190.917C270.1 190.917 270.1 190.817 270 190.817C269.6 190.717 269.3 191.017 269.5 191.617L279.7 240.317C279.9 241.117 280.1 241.817 280.3 242.217C280.5 242.617 280.8 242.917 281.1 243.117C281.4 243.317 281.7 243.317 281.9 243.117C282.1 242.917 282.3 242.517 282.5 242.017L293 205.217C293.1 204.917 292.9 204.217 292.5 203.917Z" fill="#DD3F8F"/>
<path fill-rule="evenodd" clip-rule="evenodd" d="M313.8 190.817L291.7 203.717C292.3 203.417 293.2 204.717 293 205.317L315.4 192.317C316.1 191.917 316.6 191.617 317.3 191.117C320.5 188.617 322 185.217 324.1 182.417C324.7 181.617 325.3 181.117 325.9 180.617C326.5 180.317 326.7 180.117 326.6 180.217L338.9 172.917C339 172.417 338.6 171.817 338.5 171.717C338.3 171.517 337.9 171.117 337.6 171.317L325.2 178.617C325.3 178.617 325 178.717 324.5 179.017C323.9 179.517 323.3 180.017 322.7 180.817C320.5 183.717 318.9 187.117 315.4 189.917C314.8 190.217 314.4 190.517 313.8 190.817Z" fill="#EF83B3"/>
<path opacity="0.5" fill-rule="evenodd" clip-rule="evenodd" d="M145.3 253.717L248.9 196.117C253.1 193.817 257.1 196.017 257.9 201.117L267 263.517C267.7 268.617 264.9 274.617 260.7 277.017L157.1 334.617C152.9 336.917 148.8 334.717 148.1 329.617L139 267.217C138.3 262.117 141.1 256.117 145.3 253.717Z" fill="url(#paint10_linear_33_3)"/>
<path fill-rule="evenodd" clip-rule="evenodd" d="M247 193.117C248.5 192.217 250.3 191.917 251.9 192.617L255.6 194.017C256.9 200.917 160.1 324.317 158.4 326.117L155.1 324.917C152.9 324.017 151.8 321.817 151.5 319.617L142.9 260.517C142.4 257.317 143.4 254.017 145.2 251.317C146.1 249.917 147.4 248.517 148.9 247.717L247 193.117Z" fill="#303A7D"/>
<path fill-rule="evenodd" clip-rule="evenodd" d="M152.5 249.017L250.6 194.417C254.6 192.217 258.4 194.317 259.1 199.117L267.7 258.217C268.4 263.017 265.7 268.717 261.7 271.017L163.6 325.617C159.6 327.817 155.8 325.717 155.1 320.917L146.5 261.817C145.8 257.017 148.5 251.317 152.5 249.017Z" fill="url(#paint11_linear_33_3)"/>
<path opacity="0.5" fill-rule="evenodd" clip-rule="evenodd" d="M153.1 258.917C153.5 258.717 154 258.917 154 259.417C154.1 259.917 153.8 260.617 153.4 260.817C152.9 261.117 152.5 260.817 152.5 260.317C152.4 259.817 152.7 259.217 153.1 258.917ZM260.9 264.017L256 230.417L256.8 230.017L261.7 263.617L260.9 264.017ZM256 227.517C256.4 227.317 256.9 227.517 256.9 228.017C257 228.517 256.7 229.217 256.3 229.417C255.8 229.617 255.4 229.417 255.3 228.917C255.2 228.317 255.5 227.717 256 227.517ZM248.5 270.917L244 239.917L244.8 239.517L249.3 270.517L248.5 270.917ZM243.9 236.917C244.3 236.717 244.8 236.917 244.8 237.417C244.9 237.917 244.6 238.617 244.1 238.817C243.7 239.017 243.2 238.817 243.2 238.317C243.2 237.817 243.5 237.217 243.9 236.917ZM236.1 277.817L229.6 233.717L230.4 233.317L236.9 277.417L236.1 277.817ZM229.6 230.817C230 230.617 230.5 230.817 230.5 231.317C230.6 231.817 230.3 232.517 229.8 232.717C229.4 232.917 228.9 232.717 228.9 232.217C228.8 231.617 229.1 231.017 229.6 230.817ZM223.5 284.817L215.3 227.517L216 227.117L224.2 284.417L223.5 284.817ZM215.2 224.617C215.6 224.417 216.1 224.617 216.1 225.117C216.2 225.617 215.9 226.217 215.5 226.517C215 226.717 214.6 226.517 214.6 226.017C214.5 225.517 214.8 224.817 215.2 224.617ZM211.1 291.717L202.5 231.817L203.3 231.417L211.9 291.317L211.1 291.717ZM202.4 228.917C202.8 228.717 203.3 228.917 203.3 229.417C203.4 229.917 203.1 230.617 202.6 230.817C202.2 231.017 201.7 230.817 201.7 230.317C201.7 229.817 202 229.117 202.4 228.917ZM198.7 298.617L190.8 243.917L191.6 243.517L199.5 298.217L198.7 298.617ZM190.8 241.017C191.2 240.817 191.7 241.017 191.7 241.517C191.8 242.017 191.5 242.717 191.1 242.917C190.6 243.217 190.2 242.917 190.2 242.417C190 241.917 190.3 241.217 190.8 241.017ZM186.4 305.417L179.5 258.617L180.3 258.217L187.2 305.017L186.4 305.417ZM179.5 255.717C179.9 255.517 180.4 255.717 180.4 256.217C180.5 256.717 180.2 257.417 179.7 257.617C179.3 257.817 178.8 257.617 178.8 257.117C178.8 256.617 179.1 255.917 179.5 255.717ZM174 312.317L167.5 268.017L168.3 267.617L174.8 311.917L174 312.317ZM167.5 265.117C167.9 264.917 168.4 265.117 168.4 265.617C168.5 266.117 168.2 266.817 167.8 267.017C167.4 267.217 166.9 267.017 166.9 266.517C166.7 266.017 167 265.417 167.5 265.117ZM161.5 319.317L153.2 261.917L154 261.517L162.3 318.917L161.5 319.317Z" fill="#3F58A4"/>
<path opacity="0.5" fill-rule="evenodd" clip-rule="evenodd" d="M149.9 274.117C150 273.917 150.2 273.717 150.4 273.617C150.7 273.517 150.9 273.517 151.1 273.617C153 275.017 154.7 276.317 156.3 277.317C157.9 278.417 159.4 279.317 160.7 280.017C167.1 283.517 171.7 283.717 176.3 281.217C180.8 278.617 185.1 273.217 190.7 265.617C197 257.117 202.5 251.317 208.1 248.217C208.9 247.717 209.7 247.317 210.6 247.017C217 244.417 223.6 245.317 231.4 249.717C232.2 250.117 233 250.617 233.8 251.117C239.8 254.617 245.5 257.917 251.6 254.517C254.8 252.717 258.1 249.217 261.6 242.917C261.7 242.717 261.9 242.517 262.1 242.417C262.4 242.317 262.6 242.317 262.8 242.417C263.2 242.717 263.2 243.417 262.9 243.917C259 250.917 255.3 254.817 251.8 256.817C245.2 260.417 239.2 256.917 232.8 253.217C232 252.817 231.2 252.317 230.4 251.917C222.9 247.717 216.7 246.817 210.7 249.317C210 249.617 209.2 250.017 208.5 250.417C203.2 253.317 197.9 258.917 191.9 267.117C186.1 275.017 181.6 280.617 176.8 283.417C176.7 283.517 176.6 283.517 176.5 283.617C171.7 286.317 166.7 286.017 159.9 282.317C158.5 281.517 157 280.617 155.4 279.517C153.8 278.417 152.1 277.117 150.2 275.717C149.6 275.417 149.5 274.717 149.9 274.117Z" fill="#3F58A4"/>
<path fill-rule="evenodd" clip-rule="evenodd" d="M150.9 270.117C151 269.917 151.2 269.717 151.4 269.617C151.7 269.517 151.9 269.517 152.1 269.617C154 271.117 155.7 272.317 157.3 273.417C158.9 274.517 160.4 275.417 161.7 276.217C168.1 279.817 172.7 280.117 177.3 277.617C181.8 275.117 186.1 269.717 191.7 262.217C198 253.817 203.5 248.117 209.1 245.117C209.9 244.717 210.7 244.317 211.6 243.917C218 241.317 224.6 242.417 232.4 246.917C233.2 247.317 234 247.817 234.8 248.317C240.8 251.917 246.5 255.217 252.6 251.917C255.8 250.217 259.1 246.717 262.6 240.517C262.7 240.317 262.9 240.117 263.1 240.017C263.4 239.917 263.6 239.917 263.8 240.017C264.2 240.317 264.2 241.017 263.9 241.517C260 248.417 256.3 252.317 252.8 254.217C246.2 257.717 240.2 254.217 233.8 250.417C233 249.917 232.2 249.517 231.4 249.017C223.9 244.717 217.7 243.717 211.7 246.117C211 246.417 210.2 246.717 209.5 247.117C204.2 249.917 198.9 255.417 192.9 263.617C187.1 271.417 182.6 277.017 177.8 279.717C177.7 279.817 177.6 279.817 177.5 279.917C172.7 282.517 167.7 282.217 160.9 278.417C159.5 277.617 158 276.717 156.4 275.517C154.8 274.417 153.1 273.117 151.2 271.617C150.6 271.317 150.6 270.717 150.9 270.117Z" fill="#6DC6D9"/>
<path opacity="0.5" fill-rule="evenodd" clip-rule="evenodd" d="M109.7 303.617L116.4 299.617C117.5 299.017 118.3 297.617 118.6 296.217L120 287.417C120.3 285.817 121.2 284.517 122.2 283.917C123.2 283.317 124.2 283.417 124.7 284.517L127.3 290.917C127.7 291.917 128.7 292.217 129.8 291.517L136.4 287.517C138.8 286.117 140.1 289.117 138.3 292.017L133.3 299.917C132.5 301.217 132.2 302.717 132.7 303.817L135.4 310.117C136.1 311.817 134.9 314.517 133.4 315.417C132.9 315.717 132.4 315.817 131.9 315.717L126.2 314.217C125.7 314.117 125.2 314.217 124.7 314.517C124.2 314.817 123.7 315.317 123.3 316.017L118.3 323.917C117.9 324.617 117.4 325.117 116.9 325.417C115.4 326.317 113.8 325.317 114.2 322.917L115.6 314.117C115.8 312.717 115.4 311.517 114.4 311.317L108.7 309.917C106.6 309.417 107.3 305.117 109.7 303.617Z" fill="url(#paint12_linear_33_3)"/>
<path opacity="0.3" fill-rule="evenodd" clip-rule="evenodd" d="M201.9 333.617L239.3 312.317C243.4 310.417 249.2 309.017 253.4 311.117C257.2 313.117 263.4 317.117 266.2 318.717C268.3 319.917 275.6 324.217 271 326.717C257.7 333.917 244.5 342.117 231 349.417C228.4 350.817 224.7 351.317 220.8 351.017C216.9 350.717 212.9 349.517 209.7 347.717C207.5 346.417 205.2 345.117 203.1 343.817C200.2 342.117 198.6 340.117 198.5 338.217C198.2 336.517 199.4 334.817 201.9 333.617Z" fill="#2940CC"/>
<path fill-rule="evenodd" clip-rule="evenodd" d="M248.1 302.417C248.4 305.017 248.8 307.317 249.7 309.117C250.1 309.617 250.7 309.917 251 310.417C252.4 313.417 252.7 316.317 251.7 331.517L248.1 331.617L247.6 326.217C247.2 324.017 245.9 320.817 245.4 318.817C244.3 314.517 244.2 312.317 243.5 309.117L248.1 302.417Z" fill="#F4A499"/>
<path fill-rule="evenodd" clip-rule="evenodd" d="M255.6 320.817C256 320.717 256.7 320.717 256.8 320.617C257 320.417 257.3 319.417 257.1 319.217C256.7 319.017 255.8 320.617 255.6 320.817Z" fill="#1F202B"/>
<path fill-rule="evenodd" clip-rule="evenodd" d="M253.7 314.717C253.3 316.117 253.9 317.417 254.3 318.817C255.8 323.817 256.7 324.017 256 326.317C255.6 327.917 254.8 329.117 253.8 330.217C252.8 331.317 252.5 332.117 251.3 333.017C249.4 334.317 247.7 334.917 248.2 332.317C248.3 331.417 248.6 330.317 248.8 329.917C250.1 326.817 251.7 325.417 250.8 321.617C250.2 318.717 249.2 316.817 250.5 314.917L253.7 314.717Z" fill="#1E1F3F"/>
<path fill-rule="evenodd" clip-rule="evenodd" d="M253.4 311.617C254 314.217 254.8 316.417 257.2 319.217C256.9 319.117 256.1 319.917 255.7 320.817C252.6 317.217 251.1 315.517 250.1 317.017C250.2 318.317 250.7 320.617 251.1 322.417C251.2 323.017 251.4 324.317 251 325.217C249.8 328.117 247.5 332.417 248.4 333.817C248.1 333.417 247.8 332.417 247.8 331.017C247.8 329.017 248.1 326.217 248.2 324.617C248.3 322.317 247.4 320.417 247.3 317.317C247.3 316.417 247.3 315.617 247.3 314.717C247.4 312.517 247.7 309.617 249.2 308.817C249.7 308.517 251.2 308.717 251.9 309.117C252.8 309.717 253.1 310.617 253.4 311.617Z" fill="#272D60"/>
<path fill-rule="evenodd" clip-rule="evenodd" d="M232.1 272.717L221.2 241.017L220.8 232.317C220.7 230.917 221.5 229.917 221.9 228.817C227.7 230.517 230.9 232.317 237.1 232.117C239 234.917 241.5 240.017 241.6 244.017C241.8 251.617 241.2 256.717 243.5 269.417C250.4 292.717 246.8 291.917 249.5 307.417C249.7 309.117 244.6 310.417 242.9 309.317L232.1 272.717Z" fill="url(#paint13_linear_33_3)"/>
<path opacity="0.3" fill-rule="evenodd" clip-rule="evenodd" d="M232.1 272.717L221.2 241.017L220.8 232.317C220.7 230.917 221.5 229.917 221.9 228.817C223.1 229.117 224.1 229.517 225.1 229.817L231.5 240.117C234 245.117 234.6 251.617 236.4 253.117C234.4 258.017 235.2 267.917 236 273.417C238.1 272.717 240 272.417 242 271.617C240.6 272.817 238 273.917 236.6 275.417C239.2 284.817 240.5 294.417 241.4 304.117L232.1 272.717Z" fill="#232751"/>
<path fill-rule="evenodd" clip-rule="evenodd" d="M227.9 315.217C228 317.617 230.3 320.017 230.6 321.617C231.2 325.217 228.6 323.317 225.6 328.017C224.4 328.017 221.8 332.317 218.2 332.517C217.4 332.617 215.9 330.617 217.5 329.217C218.2 328.817 218.9 329.117 219.4 328.617C220.6 327.517 222.1 318.617 221.8 316.017L227.9 315.217Z" fill="#F4A499"/>
<path fill-rule="evenodd" clip-rule="evenodd" d="M229.2 318.817C226.3 319.217 223.6 326.217 221.4 329.317C220.3 330.817 218 329.317 219 328.917C218.5 328.917 216.8 328.717 215.5 328.917C213.7 329.217 214.3 331.017 215.6 331.917C218.3 333.817 220.8 334.917 223.2 333.617C223.6 333.417 224.2 333.017 224.7 332.617C225.1 332.317 225.5 332.017 225.7 331.817C226.5 330.817 226.8 329.317 227.5 328.017C227.7 327.617 227.9 327.517 228.1 327.617C228.4 328.017 228.1 334.317 227.9 335.617C228 336.017 229.2 336.217 229.5 336.017L231.8 324.817C232.1 323.917 232 322.817 231.5 321.917C230.9 320.317 229.5 319.317 229.2 318.817Z" fill="#272D60"/>
<path fill-rule="evenodd" clip-rule="evenodd" d="M221.7 333.917C222.2 333.817 222.7 333.717 223.2 333.417C223.6 333.217 224.2 332.817 224.7 332.417C225.1 332.117 225.5 331.817 225.7 331.617C226.6 330.617 227 328.617 228 327.317C227.7 327.117 226.8 327.117 226 328.517C224.7 330.817 223.9 332.517 222.2 333.717C222 333.817 221.9 333.917 221.7 333.917Z" fill="#1E1F3F"/>
<path fill-rule="evenodd" clip-rule="evenodd" d="M213.1 266.017C211.5 257.617 211.5 252.717 212.1 246.617C212.3 243.117 211.9 241.317 213.1 237.917C213.6 236.617 214.2 235.517 214.8 234.417C220.3 236.117 224.4 237.817 230.6 237.617C232 240.417 233.3 244.117 232.7 248.017C231.7 255.617 229.1 261.817 228.2 274.917C230.3 290.117 228.8 300.417 228.5 315.117C228.5 316.817 223.2 318.117 221.6 317.017C218.4 299.717 216.4 282.917 213.1 266.017Z" fill="url(#paint14_linear_33_3)"/>
<path fill-rule="evenodd" clip-rule="evenodd" d="M242 213.317L231 215.817C228.8 216.817 230.5 221.517 232.6 222.017L247.9 220.017C251.8 219.217 252.7 216.617 251.8 214.617C251.8 214.617 251.8 214.517 251.7 214.517C251.4 213.317 243.6 202.017 242.5 200.517C240.9 198.417 239.3 197.017 238.6 196.617C237.3 195.817 235.5 196.017 234.4 196.717C232.8 197.717 232.3 199.317 232.9 200.817C234.2 203.517 238.5 208.817 242 213.317Z" fill="url(#paint15_linear_33_3)"/>
<path fill-rule="evenodd" clip-rule="evenodd" d="M236 195.317C242.4 194.617 242.5 205.217 240.2 210.217C234.4 223.217 238.1 225.217 237.6 231.217L237.7 233.617C232.2 241.917 216.1 241.217 214.1 235.217C214.2 234.817 214.3 233.317 214.4 232.917C214 227.717 216.5 223.517 216 220.017C215.2 214.017 211.9 211.917 213.7 206.817C215 205.017 218.5 202.217 222.1 200.217C227.2 197.417 232.9 195.617 236 195.317Z" fill="url(#paint16_linear_33_3)"/>
<path fill-rule="evenodd" clip-rule="evenodd" d="M192.1 180.317C190.3 177.817 188.3 173.517 186.2 172.317C185.1 171.017 183.5 168.917 182.5 167.617C181.8 166.717 180.6 168.217 181.2 169.117C181.8 170.017 183.4 172.317 183.4 172.317L183.5 172.417C182.6 173.117 181.9 174.317 181.7 175.217C181.4 176.517 183.3 179.117 184.5 180.917C185.5 182.517 187.5 182.517 188.2 183.717C190.1 183.617 191.2 181.817 192.1 180.317Z" fill="url(#paint17_linear_33_3)"/>
<path fill-rule="evenodd" clip-rule="evenodd" d="M219.2 203.017C217.8 201.917 214.9 201.717 212.9 200.817C209.5 199.417 205.5 197.317 202 196.317C201.6 194.517 196.9 186.517 194.1 182.317C193.8 181.817 193.1 181.617 192.9 181.217C192.6 180.817 192.3 180.417 192.1 180.217C190.9 180.317 188.8 181.717 187.6 183.017C187.8 183.517 188 184.017 188.2 184.517C188.4 184.917 188.3 185.917 188.4 186.317C190.1 190.617 191.8 195.017 193.8 198.417C194.1 198.917 194.4 200.317 195.2 201.417C196 202.417 198.9 204.417 200 205.117C202.5 206.717 208.4 210.717 213 212.517C216.4 213.817 217.8 213.117 219.1 211.817C222.2 209.117 222.1 205.217 219.2 203.017Z" fill="url(#paint18_linear_33_3)"/>
<path opacity="0.5" fill-rule="evenodd" clip-rule="evenodd" d="M236 195.317C242.4 194.617 242.5 205.217 240.2 210.217C234.4 223.217 238.1 225.217 237.6 231.217L237.7 233.617C232.2 241.917 216.1 241.217 214.1 235.217C214.2 234.917 214.3 233.517 214.4 233.017C220.2 238.617 228.7 237.117 233.7 234.117C234.2 231.917 233.9 230.917 233.6 230.017C229.6 225.717 219.6 227.217 217.2 215.317C216.5 211.817 218.8 208.817 221 206.117C222.1 204.817 222.9 204.117 224.3 202.117C226.6 202.617 231 201.917 231.5 200.917C231.7 200.617 230.8 197.717 230.9 197.317C234.9 195.617 233.6 195.517 236 195.317Z" fill="#E793BE"/>
<path fill-rule="evenodd" clip-rule="evenodd" d="M233.9 198.217C234.4 200.317 226.7 202.617 224 201.517L223.9 201.017C223.2 197.817 222.5 195.217 222.1 192.917C220.9 193.417 217.8 193.617 217.6 193.217C225.7 186.717 235.3 181.917 236.5 185.217C235.7 187.617 233.6 189.317 232.6 190.817C232.3 191.217 232.1 192.117 232.1 192.917C232.3 194.517 233 196.217 233.9 198.217Z" fill="url(#paint19_linear_33_3)"/>
<path fill-rule="evenodd" clip-rule="evenodd" d="M217.7 193.217C218.4 193.717 223.4 192.017 223.8 192.017C227.7 192.217 231.9 191.917 232.6 190.717C233.6 189.217 235.7 187.517 236.5 185.117C237.8 181.317 237.5 177.017 234.1 174.017C228.1 168.817 218.6 172.617 217.2 178.517C216.6 180.917 217.3 181.117 217.2 182.717C217 185.717 216.7 184.617 216.9 189.317C217 191.117 217.2 192.917 217.7 193.217Z" fill="#F4A499"/>
<path fill-rule="evenodd" clip-rule="evenodd" d="M232.8 195.417C232.6 197.317 227.2 198.717 223.9 197.917C223.5 197.817 223.3 197.817 223.2 197.517C222.7 197.817 221.4 199.717 221.3 200.617C224.1 203.317 233.1 201.717 234.2 198.517C234.4 197.817 234.6 196.317 232.8 195.417Z" fill="#E08EBC"/>
<path fill-rule="evenodd" clip-rule="evenodd" d="M247.7 189.017C252.9 193.317 255.8 201.117 253.4 205.517C251.3 209.517 246.1 211.917 247.7 214.417C249 216.517 252.1 218.617 248.4 222.017C246.5 223.717 241.8 228.417 232.3 226.017C223 223.617 213.3 215.617 221.1 206.917C229.3 197.717 224.5 195.717 219.8 188.417C217.3 184.617 215.1 177.017 217.2 174.217C220.9 169.417 223.3 172.917 226.8 171.117C233.5 167.817 239 170.217 242.2 175.317C245.2 179.817 243.6 185.617 247.7 189.017Z" fill="url(#paint20_linear_33_3)"/>
<path fill-rule="evenodd" clip-rule="evenodd" d="M309.8 281.217C309.7 279.317 310.1 276.717 311.7 274.417C314.2 270.817 318.2 268.017 322.2 266.217C330.4 262.417 341.2 260.017 343.4 271.117C343.3 270.917 343.2 270.817 343.1 270.717C341.9 268.817 339.9 267.817 337.8 267.317C336.6 267.017 335.5 266.917 334.3 266.917C334.2 266.917 334.1 266.917 333.9 266.917C330.4 267.017 326.8 268.017 323.7 269.417C319.8 271.217 315.8 274.117 313.3 277.717C312.9 278.317 312.6 278.917 312.3 279.417C311.5 281.117 311.1 282.717 311.2 284.217L309.8 281.217Z" fill="url(#paint21_linear_33_3)"/>
<path fill-rule="evenodd" clip-rule="evenodd" d="M337.4 285.817C337.5 285.717 337.6 285.617 337.8 285.617C338.3 285.217 338.9 284.917 339.4 284.517C339.5 284.417 339.7 284.317 339.8 284.217C340.4 283.717 341 283.217 341.6 282.717C341.8 282.517 341.9 282.417 342.1 282.217C342.3 282.017 342.5 281.817 342.7 281.717C342.9 281.517 343.1 281.317 343.2 281.217C343.4 281.017 343.6 280.817 343.7 280.617C343.8 280.517 344 280.317 344.1 280.217C344.4 279.917 344.7 279.517 345 279.217C345.1 279.117 345.2 278.917 345.3 278.817C345.7 278.317 346 277.917 346.4 277.417C349.6 272.717 350.1 268.317 348.5 265.017L350 268.017C351.6 271.317 351.1 275.717 347.9 280.417C347.6 280.917 347.2 281.417 346.8 281.817C346.7 281.917 346.6 282.117 346.5 282.217C346.2 282.517 345.9 282.917 345.6 283.217C345.5 283.317 345.5 283.417 345.4 283.517C345.3 283.617 345.3 283.617 345.2 283.717C345 283.917 344.8 284.117 344.7 284.317C344.5 284.517 344.3 284.717 344.2 284.817C344 285.017 343.8 285.217 343.6 285.317C343.5 285.417 343.3 285.517 343.2 285.717L343.1 285.817C342.5 286.317 341.9 286.817 341.3 287.317L341.2 287.417C341.1 287.517 341 287.517 341 287.617C340.5 288.017 340 288.417 339.4 288.717C339.3 288.717 339.3 288.817 339.2 288.817C339.1 288.817 339.1 288.917 339 288.917L337.4 285.817Z" fill="#3F8CCB"/>
<path fill-rule="evenodd" clip-rule="evenodd" d="M306 274.317C312.3 265.017 326.4 258.117 337.5 259.017C348.6 259.817 352.5 268.017 346.3 277.317C344.1 280.517 341 283.517 337.4 285.917L334 283.017C336.6 281.317 338.9 279.217 340.5 276.817C344.9 270.217 342.2 264.417 334.3 263.917C326.4 263.317 316.5 268.217 312 274.717C310.4 277.017 309.8 279.217 309.9 281.217L303.1 283.317C302.9 280.617 303.9 277.517 306 274.317Z" fill="url(#paint22_linear_33_3)"/>
<path fill-rule="evenodd" clip-rule="evenodd" d="M306.4 274.317C304.4 277.217 303.9 279.917 303.9 282.417C304.7 282.217 307.5 281.717 309.9 281.217L303.1 283.317C302.9 280.617 303.9 277.517 306.1 274.317C311.6 266.117 323.3 259.817 333.6 259.017C323.3 259.917 311.8 266.217 306.4 274.317Z" fill="#69C6E0"/>
<path fill-rule="evenodd" clip-rule="evenodd" d="M334.2 263.917C333.3 263.817 332.4 263.817 331.4 263.917C332.5 263.817 333.5 263.917 334.5 263.917C342.8 263.917 348.4 273.617 335.2 283.217C335.2 283.217 337.4 285.817 337.4 285.917L334 283.017C336.6 281.317 338.9 279.217 340.5 276.817C344.8 270.217 342.1 264.517 334.2 263.917Z" fill="#3571B7"/>
<path fill-rule="evenodd" clip-rule="evenodd" d="M309.8 281.217L311.3 284.217C311.4 285.017 311.6 285.817 311.9 286.517L310.4 283.517C310.1 282.817 309.9 282.017 309.8 281.217Z" fill="#4653A0"/>
<path fill-rule="evenodd" clip-rule="evenodd" d="M305.2 288.517C307.2 290.817 310.2 291.917 313.2 292.417C313.4 292.417 313.5 292.417 313.7 292.517C318.7 293.117 324.2 292.117 328.8 290.317C331.8 289.217 334.8 287.717 337.5 285.917L339 288.917C336.3 290.717 333.4 292.217 330.3 293.317C330.2 293.317 330.2 293.417 330.1 293.417C325.5 295.117 320.1 296.117 315.2 295.517C312.1 295.117 308.9 294.017 306.8 291.617C306.4 291.117 306 290.517 305.7 290.017C305.7 289.917 305.6 289.917 305.6 289.817L304.1 286.817C304.3 287.317 304.7 288.017 305.2 288.517Z" fill="#4653A0"/>
<path fill-rule="evenodd" clip-rule="evenodd" d="M303.1 283.317L309.9 281.217C310.2 284.717 313.1 287.317 318.2 287.717C323.3 288.117 329.2 286.217 334 283.017L337.4 285.917C330.6 290.417 322.1 293.217 314.8 292.617C307.5 292.017 303.4 288.317 303.1 283.317Z" fill="url(#paint23_linear_33_3)"/>
<path fill-rule="evenodd" clip-rule="evenodd" d="M303.1 283.317C303.1 283.317 303.4 291.317 315.1 292.317C325.8 293.217 337.4 285.917 337.4 285.917C330.6 290.417 322.1 293.217 314.8 292.617C307.5 292.017 303.4 288.317 303.1 283.317Z" fill="#AAB1DA"/>
<path fill-rule="evenodd" clip-rule="evenodd" d="M97.8 101.017C98 101.017 98.1 101.117 98.3 101.117C105.9 102.617 114.2 109.117 117 116.317L114.9 119.417C114.2 117.717 113.3 116.217 112.2 114.817C112 114.617 111.8 114.317 111.6 114.117C108 109.817 102.6 106.317 97.2 104.917C97.1 104.917 97 104.817 96.9 104.817C93.1 103.917 87.9 103.817 85.5 107.317L87.6 104.217C89.7 101.017 94.3 100.417 97.8 101.017Z" fill="#DD3F8F"/>
<path fill-rule="evenodd" clip-rule="evenodd" d="M81.3 100.317C81.2 100.417 81.2 100.517 81.1 100.617C81 100.717 81 100.817 80.9 100.917C80.8 101.017 80.8 101.117 80.7 101.217C80.7 101.317 80.6 101.417 80.6 101.517C80.6 101.617 80.5 101.717 80.5 101.917C80.5 102.017 80.4 102.117 80.4 102.217C80.4 102.317 80.3 102.417 80.3 102.617C80.3 102.717 80.2 102.817 80.2 102.917C80.2 103.017 80.1 103.217 80.1 103.317C80.1 103.417 80.1 103.517 80 103.617C80 103.717 80 103.917 79.9 104.017C79.9 104.117 79.9 104.217 79.9 104.317C79.9 104.517 79.9 104.617 79.9 104.817C79.9 104.917 79.9 105.017 79.9 105.117C79.9 105.317 79.9 105.517 79.9 105.717C79.9 105.817 79.9 105.917 79.9 106.017C79.9 106.317 80 106.717 80 107.017C80 107.117 80 107.217 80 107.317C80 107.617 80.1 107.817 80.1 108.117C80.1 108.217 80.2 108.317 80.2 108.517C80.2 108.717 80.3 108.817 80.3 109.017C80.3 109.117 80.4 109.317 80.4 109.417C80.4 109.617 80.5 109.717 80.5 109.917C80.5 110.017 80.6 110.217 80.6 110.317C80.7 110.517 80.7 110.617 80.8 110.817C80.9 110.917 80.9 111.117 81 111.317C81.1 111.517 81.1 111.617 81.2 111.817C81.3 112.017 81.4 112.217 81.5 112.417C81.7 112.717 81.8 113.117 82 113.417C82.2 113.717 82.4 114.117 82.6 114.417L80.5 117.517C80.1 116.817 79.8 116.117 79.4 115.517C79.3 115.417 79.3 115.317 79.3 115.217C79.3 115.117 79.2 115.017 79.2 114.917C79.1 114.717 79.1 114.617 79 114.417C78.9 114.217 78.9 114.117 78.8 113.917C78.7 113.717 78.7 113.617 78.6 113.417C78.5 113.317 78.5 113.117 78.5 113.017C78.4 112.817 78.4 112.717 78.4 112.517C78.4 112.417 78.3 112.217 78.3 112.117C78.3 111.917 78.2 111.817 78.2 111.617C78.2 111.517 78.2 111.517 78.2 111.417C78.2 111.317 78.2 111.317 78.2 111.217C78.1 110.917 78.1 110.717 78.1 110.417C78.1 110.317 78.1 110.217 78.1 110.117C78.1 109.817 78 109.417 78 109.117C78 109.017 78 109.017 78 108.917C78 108.717 78 108.517 78 108.317C78 108.217 78 108.117 78 108.017C78 107.817 78 107.617 78 107.517V107.417C78 107.317 78 107.317 78 107.217C78 107.117 78 106.917 78.1 106.817C78.1 106.717 78.1 106.617 78.2 106.517C78.2 106.417 78.3 106.217 78.3 106.117C78.3 106.017 78.3 106.017 78.3 105.917C78.3 105.817 78.3 105.817 78.3 105.717C78.3 105.617 78.4 105.517 78.4 105.317C78.4 105.217 78.5 105.117 78.5 105.017C78.5 104.917 78.6 104.817 78.6 104.617C78.6 104.517 78.6 104.517 78.7 104.417C78.7 104.417 78.7 104.317 78.8 104.317C78.9 104.217 78.9 104.117 79 104.017C79.1 103.917 79.1 103.817 79.2 103.717C79.3 103.617 79.3 103.517 79.4 103.417C79.4 103.317 79.5 103.317 79.5 103.217C79.5 103.117 79.6 103.117 79.6 103.017L81.7 99.9167C81.5 100.117 81.4 100.217 81.3 100.317Z" fill="#DD3F8F"/>
<path fill-rule="evenodd" clip-rule="evenodd" d="M93.4999 95.7168C104.8 96.7168 117.9 105.717 122.6 116.017C122.9 116.717 123.2 117.517 123.5 118.217L116.9 116.317C116.8 116.017 116.7 115.817 116.6 115.517C113.2 108.317 104 101.817 95.9999 101.217C87.9999 100.517 84.2999 105.817 87.5999 113.117C87.6999 113.417 87.8999 113.717 87.9999 113.917L82.5999 114.617C82.1999 113.917 81.8999 113.217 81.4999 112.617C76.8999 102.317 82.1999 94.7168 93.4999 95.7168Z" fill="url(#paint24_linear_33_3)"/>
<path fill-rule="evenodd" clip-rule="evenodd" d="M88 103.717C90.7 99.7169 98.3 100.217 103.6 102.717C110.1 105.817 115.1 110.917 117.5 115.717C117.5 115.717 123.4 117.717 123.6 118.117L117 116.217C116.9 115.917 116.8 115.717 116.7 115.417C113.3 108.217 104.1 101.717 96.1 101.117C92.4 100.817 89.6 101.817 88 103.717Z" fill="#F7BDBF"/>
<path fill-rule="evenodd" clip-rule="evenodd" d="M83.0999 113.917C83.0999 113.917 87.9999 113.617 88.0999 113.817L82.6999 114.517C82.2999 113.817 81.9999 113.117 81.5999 112.517C79.0999 107.117 79.3999 102.517 81.7999 99.5168C78.0999 105.517 82.6999 113.317 83.0999 113.917Z" fill="#EE7CAE"/>
<path fill-rule="evenodd" clip-rule="evenodd" d="M114.9 119.417C114.9 119.417 116.8 116.617 117 116.317C119.3 121.717 118.3 123.917 114.6 127.417C114.8 127.217 114.9 126.917 115 126.717C115 126.717 115 126.617 115.1 126.617C116.2 124.317 115.8 121.617 114.9 119.417Z" fill="#735AA3"/>
<path opacity="0.88" fill-rule="evenodd" clip-rule="evenodd" d="M80.6001 117.617L82.7001 114.517C87.7001 123.017 113.7 138.517 122.8 128.517L120.7 131.617C118.6 134.717 114.4 136.317 108.7 135.917C108 135.817 107.4 135.817 106.7 135.717C106.5 135.717 106.2 135.617 106 135.617C105.5 135.517 105 135.417 104.5 135.317C102.7 134.917 100.8 134.217 99.1001 133.517C99.0001 133.517 98.9001 133.417 98.9001 133.417C92.4001 130.617 86.2001 125.817 82.1001 120.017C82.0001 119.817 81.8001 119.617 81.7001 119.517C81.3001 118.717 81.0001 118.217 80.6001 117.617Z" fill="#644B99"/>
<path fill-rule="evenodd" clip-rule="evenodd" d="M88.1001 113.917C91.8001 120.817 100.6 126.817 108.3 127.417C116 128.117 119.8 123.117 117 116.317L123.6 118.217C126.7 127.317 121.4 133.717 110.9 132.817C100.3 131.917 88.3 123.917 82.8 114.517L88.1001 113.917Z" fill="url(#paint25_linear_33_3)"/>
<path opacity="0.88" fill-rule="evenodd" clip-rule="evenodd" d="M110.7 132.417C127.7 133.617 123.6 118.217 123.6 118.217C126.7 127.317 121.4 133.717 110.9 132.817C100.3 131.917 88.3 123.917 82.8 114.517C82.7 114.617 93.6 131.017 110.7 132.417Z" fill="#E08EBC"/>
<defs>
<linearGradient id="paint0_linear_33_3" x1="216.92" y1="262.933" x2="157.454" y2="115.4" gradientUnits="userSpaceOnUse">
<stop stop-color="#725EA6"/>
<stop offset="1" stop-color="#E090BD"/>
</linearGradient>
<linearGradient id="paint1_linear_33_3" x1="147.874" y1="218.733" x2="123.776" y2="171.632" gradientUnits="userSpaceOnUse">
<stop stop-color="#725EA6"/>
<stop offset="1" stop-color="#E090BD"/>
</linearGradient>
<linearGradient id="paint2_linear_33_3" x1="126.29" y1="188.428" x2="140.252" y2="220.488" gradientUnits="userSpaceOnUse">
<stop stop-color="#4384C5"/>
<stop offset="1" stop-color="#43BCD0"/>
</linearGradient>
<linearGradient id="paint3_linear_33_3" x1="266.619" y1="161.791" x2="245.475" y2="113.235" gradientUnits="userSpaceOnUse">
<stop stop-color="#725EA6"/>
<stop offset="1" stop-color="#E090BD"/>
</linearGradient>
<linearGradient id="paint4_linear_33_3" x1="280.094" y1="144.738" x2="257.312" y2="129.353" gradientUnits="userSpaceOnUse">
<stop stop-color="#5C64AB"/>
<stop offset="1" stop-color="#54ABE0"/>
</linearGradient>
<linearGradient id="paint5_linear_33_3" x1="271.582" y1="119.247" x2="266.392" y2="112.927" gradientUnits="userSpaceOnUse">
<stop stop-color="#5C64AB"/>
<stop offset="1" stop-color="#54ABE0"/>
</linearGradient>
<linearGradient id="paint6_linear_33_3" x1="173.363" y1="94.4999" x2="164.796" y2="75.9017" gradientUnits="userSpaceOnUse">
<stop stop-color="#5C64AB"/>
<stop offset="1" stop-color="#54ABE0"/>
</linearGradient>
<linearGradient id="paint7_linear_33_3" x1="295.733" y1="227.143" x2="279.874" y2="175.966" gradientUnits="userSpaceOnUse">
<stop stop-color="#725EA6"/>
<stop offset="1" stop-color="#E090BD"/>
</linearGradient>
<linearGradient id="paint8_linear_33_3" x1="290.485" y1="211.131" x2="315.421" y2="181.339" gradientUnits="userSpaceOnUse">
<stop stop-color="#E764A1"/>
<stop offset="1" stop-color="#F7BEBF"/>
</linearGradient>
<linearGradient id="paint9_linear_33_3" x1="286.998" y1="227.987" x2="336.56" y2="190.695" gradientUnits="userSpaceOnUse">
<stop stop-color="#E764A1"/>
<stop offset="1" stop-color="#F7BEBF"/>
</linearGradient>
<linearGradient id="paint10_linear_33_3" x1="211.256" y1="282.812" x2="185.189" y2="227.838" gradientUnits="userSpaceOnUse">
<stop stop-color="#725EA6"/>
<stop offset="1" stop-color="#E090BD"/>
</linearGradient>
<linearGradient id="paint11_linear_33_3" x1="201.057" y1="248.432" x2="213.23" y2="271.79" gradientUnits="userSpaceOnUse">
<stop stop-color="#5C64AB"/>
<stop offset="1" stop-color="#54ABE0"/>
</linearGradient>
<linearGradient id="paint12_linear_33_3" x1="133.072" y1="310.759" x2="115.709" y2="299.2" gradientUnits="userSpaceOnUse">
<stop stop-color="#E764A1"/>
<stop offset="1" stop-color="#F7BEBF"/>
</linearGradient>
<linearGradient id="paint13_linear_33_3" x1="225.897" y1="244.502" x2="251.214" y2="291.008" gradientUnits="userSpaceOnUse">
<stop stop-color="#3F4896"/>
<stop offset="1" stop-color="#283583"/>
</linearGradient>
<linearGradient id="paint14_linear_33_3" x1="215.705" y1="251.02" x2="234.308" y2="297.507" gradientUnits="userSpaceOnUse">
<stop stop-color="#3F4896"/>
<stop offset="1" stop-color="#283583"/>
</linearGradient>
<linearGradient id="paint15_linear_33_3" x1="248.252" y1="217.51" x2="238.007" y2="210.864" gradientUnits="userSpaceOnUse">
<stop stop-color="#725EA6"/>
<stop offset="1" stop-color="#E090BD"/>
</linearGradient>
<linearGradient id="paint16_linear_33_3" x1="227.183" y1="210.916" x2="222.182" y2="241.646" gradientUnits="userSpaceOnUse">
<stop stop-color="#E66DA7"/>
<stop offset="0.56" stop-color="#DA91BE"/>
<stop offset="1" stop-color="#F7BAA9"/>
</linearGradient>
<linearGradient id="paint17_linear_33_3" x1="183.655" y1="178.579" x2="185.925" y2="175.248" gradientUnits="userSpaceOnUse">
<stop stop-color="#F1887A"/>
<stop offset="1" stop-color="#F4A59A"/>
</linearGradient>
<linearGradient id="paint18_linear_33_3" x1="213.854" y1="209.266" x2="190.922" y2="184.631" gradientUnits="userSpaceOnUse">
<stop stop-color="#E66DA7"/>
<stop offset="0.56" stop-color="#DA91BE"/>
<stop offset="1" stop-color="#F7BAA9"/>
</linearGradient>
<linearGradient id="paint19_linear_33_3" x1="226.979" y1="192.29" x2="224.973" y2="198.234" gradientUnits="userSpaceOnUse">
<stop stop-color="#F1887A"/>
<stop offset="1" stop-color="#F4A59A"/>
</linearGradient>
<linearGradient id="paint20_linear_33_3" x1="226.62" y1="177.164" x2="239.289" y2="216.365" gradientUnits="userSpaceOnUse">
<stop stop-color="#5B2D68"/>
<stop offset="1" stop-color="#22183C"/>
</linearGradient>
<linearGradient id="paint21_linear_33_3" x1="323.44" y1="269.085" x2="326.483" y2="275.335" gradientUnits="userSpaceOnUse">
<stop stop-color="#3C65AE"/>
<stop offset="1" stop-color="#23B7CB"/>
</linearGradient>
<linearGradient id="paint22_linear_33_3" x1="323.492" y1="268.787" x2="329.62" y2="283.155" gradientUnits="userSpaceOnUse">
<stop stop-color="#4384C5"/>
<stop offset="1" stop-color="#43BCD0"/>
</linearGradient>
<linearGradient id="paint23_linear_33_3" x1="316.287" y1="290.471" x2="325.253" y2="277.002" gradientUnits="userSpaceOnUse">
<stop stop-color="#5C64AB"/>
<stop offset="1" stop-color="#54ABE0"/>
</linearGradient>
<linearGradient id="paint24_linear_33_3" x1="106.262" y1="102.097" x2="98.2672" y2="117.026" gradientUnits="userSpaceOnUse">
<stop stop-color="#E764A1"/>
<stop offset="1" stop-color="#F7BEBF"/>
</linearGradient>
<linearGradient id="paint25_linear_33_3" x1="107.841" y1="133.137" x2="102.446" y2="113.791" gradientUnits="userSpaceOnUse">
<stop stop-color="#725EA6"/>
<stop offset="1" stop-color="#E090BD"/>
</linearGradient>
</defs>
</svg>
