<svg width="35" height="35" viewBox="0 0 35 35" fill="none" xmlns="http://www.w3.org/2000/svg">
<path d="M33.3427 0H1.54931C0.694983 0 0 0.694925 0 1.54908V33.3427C0 34.1968 0.695003 34.8918 1.54931 34.8918H33.3427C34.1969 34.8918 34.8918 34.1968 34.8918 33.3427V1.54908C34.8918 0.694925 34.1969 0 33.3427 0ZM1.54931 1.22523H33.3427C33.5213 1.22523 33.6665 1.37054 33.6665 1.54908V5.35109H1.22523V1.54908C1.22523 1.37054 1.37062 1.22523 1.54931 1.22523ZM33.3427 33.6666H1.54931C1.37062 33.6666 1.22523 33.5213 1.22523 33.3427V6.57633H33.6665V33.3427C33.6665 33.5213 33.5213 33.6666 33.3427 33.6666Z" fill="#236EFF"/>
<path d="M29.4216 22.271H6.38521C5.46832 22.271 4.72237 23.0169 4.72237 23.9338V30.06C4.72237 30.9768 5.46832 31.7228 6.38521 31.7228H29.4216C30.3385 31.7228 31.0845 30.9769 31.0845 30.06V23.9338C31.0845 23.0169 30.3385 22.271 29.4216 22.271ZM29.8592 30.06C29.8592 30.3012 29.6629 30.4976 29.4216 30.4976H6.38521C6.14392 30.4976 5.94763 30.3012 5.94763 30.06V23.9338C5.94763 23.6925 6.14394 23.4962 6.38521 23.4962H29.4216C29.6629 23.4962 29.8592 23.6925 29.8592 23.9338L29.8592 30.06Z" fill="#236EFF"/>
<path d="M6.38521 17.6618H12.3267C13.2436 17.6618 13.9896 16.9159 13.9896 15.999V10.0574C13.9896 9.14054 13.2436 8.39461 12.3267 8.39461H6.38521C5.46832 8.39461 4.72237 9.14054 4.72237 10.0574V15.999C4.72239 16.9159 5.46832 17.6618 6.38521 17.6618ZM5.94763 10.0574C5.94763 9.81616 6.14394 9.61985 6.38521 9.61985H12.3267C12.568 9.61985 12.7643 9.81616 12.7643 10.0574V15.999C12.7643 16.2402 12.568 16.4366 12.3267 16.4366H6.38521C6.14392 16.4366 5.94763 16.2402 5.94763 15.999V10.0574Z" fill="#236EFF"/>
<path d="M30.4718 19.2662H5.33501C4.99666 19.2662 4.72239 19.5405 4.72239 19.8788C4.72239 20.2172 4.99666 20.4914 5.33501 20.4914H30.4718C30.8102 20.4914 31.0845 20.2172 31.0845 19.8788C31.0845 19.5405 30.8102 19.2662 30.4718 19.2662Z" fill="#236EFF"/>
<path d="M30.4718 16.0719H16.586C16.2476 16.0719 15.9733 16.3461 15.9733 16.6845C15.9733 17.0229 16.2476 17.2971 16.586 17.2971H30.4719C30.8102 17.2971 31.0845 17.0229 31.0845 16.6845C31.0845 16.3461 30.8102 16.0719 30.4718 16.0719Z" fill="#236EFF"/>
<path d="M30.4718 12.3962H16.586C16.2476 12.3962 15.9733 12.6704 15.9733 13.0088C15.9733 13.3472 16.2476 13.6214 16.586 13.6214H30.4719C30.8102 13.6214 31.0845 13.3472 31.0845 13.0088C31.0845 12.6704 30.8102 12.3962 30.4718 12.3962Z" fill="#236EFF"/>
<path d="M30.4718 8.72046H16.586C16.2476 8.72046 15.9733 8.99473 15.9733 9.3331C15.9733 9.67145 16.2476 9.9457 16.586 9.9457H30.4719C30.8102 9.9457 31.0845 9.67145 31.0845 9.3331C31.0845 8.99475 30.8102 8.72046 30.4718 8.72046Z" fill="#236EFF"/>
<path d="M3.87619 4.21338C4.41995 4.21338 4.86076 3.77257 4.86076 3.22881C4.86076 2.68505 4.41995 2.24424 3.87619 2.24424C3.33243 2.24424 2.89162 2.68505 2.89162 3.22881C2.89162 3.77257 3.33243 4.21338 3.87619 4.21338Z" fill="#236EFF"/>
<path d="M6.98304 4.21338C7.52681 4.21338 7.96761 3.77257 7.96761 3.22881C7.96761 2.68505 7.52681 2.24424 6.98304 2.24424C6.43928 2.24424 5.99848 2.68505 5.99848 3.22881C5.99848 3.77257 6.43928 4.21338 6.98304 4.21338Z" fill="#236EFF"/>
<path d="M10.0899 4.21338C10.6336 4.21338 11.0744 3.77257 11.0744 3.22881C11.0744 2.68505 10.6336 2.24424 10.0899 2.24424C9.54612 2.24424 9.10531 2.68505 9.10531 3.22881C9.10531 3.77257 9.54612 4.21338 10.0899 4.21338Z" fill="#236EFF"/>
</svg>
