<svg width="35" height="28" viewBox="0 0 35 28" fill="none" xmlns="http://www.w3.org/2000/svg">
<path d="M32.0682 6.741H25.5905V3.00573C25.5905 1.3484 24.2755 0 22.6589 0H2.93158C1.31501 0 0 1.3484 0 3.00573V14.5247C0 16.1816 1.31501 17.5297 2.93158 17.5297H4.43316V20.575C4.43316 20.8542 4.59853 21.1054 4.85114 21.2096C4.93196 21.243 5.01661 21.2593 5.10054 21.2593C5.27856 21.2593 5.45328 21.1862 5.58163 21.0495L8.88723 17.5296H9.40944V21.2652C9.40944 22.9224 10.7246 24.2705 12.3412 24.2705H26.1129L29.4187 27.7902C29.5471 27.9269 29.7218 28 29.8998 28C29.9837 28 30.0684 27.9838 30.1493 27.9504C30.4018 27.846 30.5672 27.5949 30.5672 27.3157V24.2706H32.0682C33.6848 24.2706 35 22.9224 35 21.2653V9.74627C35.0001 8.08913 33.6848 6.741 32.0682 6.741ZM9.40944 9.74627V16.1611H8.6032C8.42171 16.1611 8.24815 16.2368 8.12229 16.3709L5.76828 18.8775V16.8454C5.76828 16.4675 5.46948 16.1611 5.10072 16.1611H2.93158C2.05129 16.1611 1.33513 15.427 1.33513 14.5247V3.00573C1.33513 2.10303 2.05129 1.36856 2.93158 1.36856H22.6589C23.5392 1.36856 24.2553 2.10303 24.2553 3.00573V6.741H12.3412C10.7246 6.741 9.40944 8.08913 9.40944 9.74627ZM33.665 21.2652C33.665 22.1677 32.9487 22.9019 32.0683 22.9019H29.8997C29.531 22.9019 29.2322 23.2083 29.2322 23.5862V25.6182L26.8779 23.1116C26.752 22.9776 26.5784 22.9019 26.397 22.9019C20.9079 22.9019 17.8303 22.9019 12.3412 22.9019C11.4607 22.9019 10.7446 22.1677 10.7446 21.2652V9.74627C10.7446 8.84375 11.4608 8.10956 12.3412 8.10956H32.0682C32.9487 8.10956 33.6649 8.84375 33.6649 9.74627L33.665 21.2652Z" fill="#236EFF"/>
</svg>
