<svg width="35" height="23" viewBox="0 0 35 23" fill="none" xmlns="http://www.w3.org/2000/svg">
<path d="M35 11.5C35 9.94361 33.7338 8.6774 32.1774 8.6774H26.6627C26.486 8.10159 26.2556 7.54554 25.9756 7.01603L27.479 5.51216L23.4873 1.52046L21.984 3.02433C21.4544 2.74377 20.8978 2.51345 20.3226 2.33675V0.209656H14.6774V2.33675C14.1016 2.51345 13.5456 2.74377 13.016 3.02433L11.5127 1.52046L7.52105 5.51216L9.02435 7.01603C8.74436 7.54385 8.52984 8.10385 8.35314 8.6774H3.75347L0.225242 11.5L3.75347 14.3226H8.35314C8.52984 14.8961 8.74436 15.4561 9.02379 15.9839L7.52048 17.4872L11.5122 21.4789L13.0155 19.9756C13.545 20.2556 14.1016 20.4854 14.6769 20.6626V22.7903H20.322V20.6626C20.8978 20.4859 21.4539 20.2556 21.9834 19.9756L23.4867 21.4789L27.4784 17.4872L25.9751 15.9839C26.2551 15.4544 26.4848 14.8978 26.6621 14.3226H32.1774C33.7338 14.3226 35 13.0563 35 11.5ZM5.08065 9.80643H22.2843C22.4124 10.1666 22.5039 10.5437 22.5473 10.9355H5.08065V9.80643ZM13.2881 8.6774C14.2207 7.28587 15.7884 6.41933 17.5 6.41933C19.2579 6.41933 20.8092 7.31691 21.7215 8.6774H13.2881ZM3.95161 13.0349L2.03282 11.5L3.95161 9.96449V13.0349ZM5.08065 13.1935V12.0645H22.5473C22.5039 12.4568 22.4124 12.8334 22.2843 13.1935H5.08065ZM21.7215 14.3226C20.8086 15.683 19.2573 16.5806 17.5 16.5806C15.7884 16.5806 14.2213 15.7135 13.2881 14.3226H21.7215ZM27.6613 13.1935H25.799L25.69 13.6169C25.4913 14.3847 25.1881 15.1168 24.7885 15.7937L24.566 16.1708L25.8825 17.4872L23.4873 19.8825L22.1708 18.566L21.7937 18.7884C21.1169 19.1881 20.3847 19.4913 19.6169 19.69L19.1936 19.7989V21.6613H15.8065V19.7989L15.3831 19.69C14.6153 19.4913 13.8831 19.1881 13.2063 18.7884L12.8292 18.566L11.5127 19.8825L9.1175 17.4872L10.434 16.1708L10.2115 15.7937C9.93661 15.328 9.71081 14.834 9.5296 14.3226H11.974C13.0307 16.3909 15.159 17.7097 17.5 17.7097C20.9238 17.7097 23.7097 14.9238 23.7097 11.5C23.7097 8.07619 20.9238 5.2903 17.5 5.2903C15.159 5.2903 13.0302 6.60901 11.974 8.6774H9.53016C9.71081 8.16538 9.93661 7.67199 10.2121 7.2057L10.4345 6.82917L9.11806 5.51272L11.5133 3.11748L12.8298 4.43449L13.2069 4.21151C13.8843 3.81183 14.6165 3.50812 15.3836 3.31054L15.8065 3.20103V1.33869H19.1936V3.20103L19.6169 3.30998C20.3841 3.50812 21.1163 3.81127 21.7937 4.21095L22.1708 4.43393L23.4873 3.11691L25.8825 5.51216L24.566 6.82861L24.7885 7.20514C25.1881 7.88256 25.4913 8.61474 25.6894 9.38248L25.799 9.80643H27.6613V13.1935ZM29.9194 13.1935H28.7903V9.80643H29.9194V13.1935ZM32.1774 13.1935H31.0484V9.80643H32.1774C33.1111 9.80643 33.871 10.5663 33.871 11.5C33.871 12.4337 33.1111 13.1935 32.1774 13.1935Z" fill="#236EFF"/>
<path d="M34.4355 15.4516H33.3064V16.5806H34.4355V15.4516Z" fill="#236EFF"/>
<path d="M32.1774 15.4516H31.0484V16.5806H32.1774V15.4516Z" fill="#236EFF"/>
<path d="M29.9194 15.4516H28.7903V16.5806H29.9194V15.4516Z" fill="#236EFF"/>
<path d="M5.64516 6.41933H4.51613V7.54837H5.64516V6.41933Z" fill="#236EFF"/>
<path d="M3.3871 6.41933H2.25806V7.54837H3.3871V6.41933Z" fill="#236EFF"/>
<path d="M1.12903 6.41933H0V7.54837H1.12903V6.41933Z" fill="#236EFF"/>
</svg>
