<svg width="35" height="35" viewBox="0 0 35 35" fill="none" xmlns="http://www.w3.org/2000/svg">
<path d="M35 11.2903C35 5.06484 29.9352 0 23.7097 0C21.416 0 19.2833 0.691532 17.5 1.87081C15.7167 0.691532 13.584 0 11.2903 0C5.06484 0 0 5.06484 0 11.2903C0 15.776 2.63629 19.6474 6.43492 21.4674C6.28815 22.1928 6.20968 22.9419 6.20968 23.7097C6.20968 29.9352 11.2745 35 17.5 35C23.7255 35 28.7903 29.9352 28.7903 23.7097C28.7903 22.9419 28.7119 22.1928 28.5651 21.4674C32.3637 19.6474 35 15.776 35 11.2903ZM21.4516 11.2903C21.4516 11.904 21.3878 12.5018 21.2828 13.0855C20.0985 12.6621 18.8283 12.4194 17.5 12.4194C16.1717 12.4194 14.9015 12.6621 13.7172 13.0855C13.6122 12.5018 13.5484 11.904 13.5484 11.2903C13.5484 8.02685 15.1014 5.12581 17.5 3.26516C19.8986 5.12581 21.4516 8.02685 21.4516 11.2903ZM13.9757 14.1914C15.076 13.7827 16.2598 13.5484 17.5 13.5484C18.7402 13.5484 19.924 13.7827 21.0243 14.1914C20.4095 16.2496 19.1574 18.0301 17.5 19.3155C15.8426 18.0301 14.5905 16.2496 13.9757 14.1914ZM16.5183 19.9867C14.9885 20.9102 13.2035 21.4516 11.2903 21.4516C10.0501 21.4516 8.86629 21.2173 7.76605 20.8086C8.56992 18.117 10.4616 15.8968 12.9291 14.6475C13.5879 16.7599 14.853 18.607 16.5183 19.9867ZM22.0709 14.6469C24.5378 15.8968 26.4301 18.1165 27.234 20.8081C26.1337 21.2173 24.9499 21.4516 23.7097 21.4516C21.7965 21.4516 20.0115 20.9102 18.4817 19.9867C20.147 18.607 21.4121 16.7599 22.0709 14.6469ZM1.12903 11.2903C1.12903 5.6875 5.6875 1.12903 11.2903 1.12903C13.2035 1.12903 14.9885 1.6704 16.5183 2.59395C14.0164 4.66629 12.4194 7.79484 12.4194 11.2903C12.4194 12.0581 12.4978 12.8072 12.6446 13.5326C9.83556 14.8784 7.65935 17.3414 6.71944 20.3531C3.40855 18.6759 1.12903 15.2481 1.12903 11.2903ZM17.5 33.871C11.8972 33.871 7.33871 29.3125 7.33871 23.7097C7.33871 23.096 7.4025 22.4982 7.5075 21.9145C8.69185 22.3379 9.96202 22.5806 11.2903 22.5806C13.584 22.5806 15.7167 21.8891 17.5 20.7098C19.2833 21.8891 21.416 22.5806 23.7097 22.5806C25.038 22.5806 26.3081 22.3379 27.4925 21.9145C27.5975 22.4982 27.6613 23.096 27.6613 23.7097C27.6613 29.3125 23.1028 33.871 17.5 33.871ZM28.2806 20.3531C27.3406 17.3414 25.1644 14.8784 22.3554 13.5326C22.5022 12.8072 22.5806 12.0581 22.5806 11.2903C22.5806 7.79484 20.9836 4.66629 18.4817 2.59395C20.0115 1.6704 21.7965 1.12903 23.7097 1.12903C29.3125 1.12903 33.871 5.6875 33.871 11.2903C33.871 15.2481 31.5915 18.6759 28.2806 20.3531Z" fill="#236EFF"/>
<path d="M24.8387 9.59677H23.7097V10.7258H24.8387V9.59677Z" fill="#236EFF"/>
<path d="M27.0968 9.59677H25.9678V10.7258H27.0968V9.59677Z" fill="#236EFF"/>
<path d="M29.3549 9.59677H28.2258V10.7258H29.3549V9.59677Z" fill="#236EFF"/>
<path d="M6.7743 9.59677H5.64526V10.7258H6.7743V9.59677Z" fill="#236EFF"/>
<path d="M9.03235 9.59677H7.90332V10.7258H9.03235V9.59677Z" fill="#236EFF"/>
<path d="M11.2904 9.59677H10.1614V10.7258H11.2904V9.59677Z" fill="#236EFF"/>
<path d="M15.8065 23.7097H14.6775V24.8387H15.8065V23.7097Z" fill="#236EFF"/>
<path d="M18.0646 23.7097H16.9355V24.8387H18.0646V23.7097Z" fill="#236EFF"/>
<path d="M20.3226 23.7097H19.1936V24.8387H20.3226V23.7097Z" fill="#236EFF"/>
</svg>
