<svg width="35" height="32" viewBox="0 0 35 32" fill="none" xmlns="http://www.w3.org/2000/svg">
<path d="M33.16 0H1.84003C0.825439 0 0 0.82544 0 1.84003V24.3904C0 25.4049 0.825439 26.2304 1.84003 26.2304H13.7028L13.2232 30.0671H11.236C10.9117 30.0671 10.6488 30.33 10.6488 30.6543C10.6488 30.9786 10.9117 31.2416 11.236 31.2416H23.764C24.0883 31.2416 24.3512 30.9787 24.3512 30.6543C24.3512 30.33 24.0883 30.0671 23.764 30.0671H21.7768L21.2972 26.2304H33.16C34.1746 26.2304 35 25.4049 35 24.3904V1.84003C35 0.82544 34.1746 0 33.16 0ZM14.4067 30.0671L14.8863 26.2304H20.1136L20.5932 30.0671H14.4067ZM33.8255 24.3904C33.8255 24.7574 33.527 25.0559 33.16 25.0559H1.84003C1.47301 25.0559 1.17448 24.7574 1.17448 24.3904V1.84003C1.17448 1.47301 1.47301 1.17448 1.84003 1.17448H33.16C33.527 1.17448 33.8255 1.47301 33.8255 1.84003V24.3904Z" fill="#236EFF"/>
<path d="M27.5224 2.50558H3.09285C2.76855 2.50558 2.50558 2.76849 2.50558 3.09285V22.5112C2.50558 22.8355 2.76849 23.0985 3.09285 23.0985H4.97226C5.29655 23.0985 5.55953 22.8356 5.55953 22.5112C5.55953 22.1869 5.29669 21.9239 4.97226 21.9239H3.68006V3.68006H27.5224C27.8467 3.68006 28.1096 3.41715 28.1096 3.09278C28.1096 2.76855 27.8467 2.50558 27.5224 2.50558Z" fill="#236EFF"/>
<path d="M31.9071 2.50558H30.0279C29.7036 2.50558 29.4407 2.76849 29.4407 3.09285C29.4407 3.41715 29.7036 3.68013 30.0279 3.68013H31.3199V21.9239H7.47749C7.15319 21.9239 6.89021 22.1869 6.89021 22.5112C6.89021 22.8355 7.15312 23.0985 7.47749 23.0985H31.9071C32.2314 23.0985 32.4944 22.8356 32.4944 22.5112V3.09285C32.4944 2.76855 32.2314 2.50558 31.9071 2.50558Z" fill="#236EFF"/>
<path d="M28.1488 5.6376C27.1342 5.6376 26.3087 6.46304 26.3087 7.47763C26.3087 7.78982 26.3871 8.08391 26.5248 8.34176L21.8196 13.3238C21.5852 13.2154 21.3244 13.1543 21.0496 13.1543C20.5598 13.1543 20.1145 13.347 19.7845 13.6601L15.7661 11.5328C15.7819 11.436 15.7904 11.337 15.7904 11.236C15.7904 10.2214 14.965 9.39593 13.9504 9.39593C12.9358 9.39593 12.1103 10.2214 12.1103 11.236C12.1103 11.5197 12.175 11.7887 12.2902 12.0289L7.69296 16.491C7.44051 16.3606 7.15449 16.2863 6.85125 16.2863C5.83666 16.2863 5.01122 17.1118 5.01122 18.1264C5.01122 19.141 5.83666 19.9664 6.85125 19.9664C7.86584 19.9664 8.69128 19.141 8.69128 18.1264C8.69128 17.8426 8.62661 17.5736 8.51143 17.3334L13.1087 12.8713C13.3611 13.0017 13.6472 13.076 13.9504 13.076C14.4402 13.076 14.8855 12.8833 15.2154 12.5702L19.2338 14.6975C19.2181 14.7943 19.2095 14.8933 19.2095 14.9944C19.2095 16.0089 20.035 16.8344 21.0496 16.8344C22.0641 16.8344 22.8896 16.0089 22.8896 14.9944C22.8896 14.6822 22.8112 14.388 22.6734 14.1302L27.3787 9.14819C27.6131 9.25661 27.8739 9.31766 28.1487 9.31766C29.1633 9.31766 29.9887 8.49222 29.9887 7.47763C29.9887 6.46304 29.1634 5.6376 28.1488 5.6376ZM6.85125 18.7919C6.48423 18.7919 6.1857 18.4934 6.1857 18.1264C6.1857 17.7594 6.48423 17.4608 6.85125 17.4608C7.21827 17.4608 7.5168 17.7594 7.5168 18.1264C7.5168 18.4934 7.2182 18.7919 6.85125 18.7919ZM13.9504 11.9016C13.5834 11.9016 13.2849 11.603 13.2849 11.236C13.2849 10.869 13.5833 10.5705 13.9504 10.5705C14.3175 10.5705 14.616 10.869 14.616 11.236C14.616 11.603 14.3175 11.9016 13.9504 11.9016ZM21.0496 15.66C20.6825 15.66 20.384 15.3614 20.384 14.9944C20.384 14.6274 20.6825 14.3289 21.0496 14.3289C21.4166 14.3289 21.7151 14.6274 21.7151 14.9944C21.7151 15.3614 21.4166 15.66 21.0496 15.66ZM28.1488 8.14317C27.7817 8.14317 27.4832 7.84465 27.4832 7.47763C27.4832 7.11061 27.7817 6.81208 28.1488 6.81208C28.5158 6.81208 28.8143 7.11061 28.8143 7.47763C28.8143 7.84465 28.5158 8.14317 28.1488 8.14317Z" fill="#236EFF"/>
<path d="M28.1488 10.6488C27.8245 10.6488 27.5615 10.9117 27.5615 11.236V20.0056C27.5615 20.3299 27.8244 20.5929 28.1488 20.5929C28.473 20.5929 28.736 20.3299 28.736 20.0056V11.236C28.736 10.9117 28.4731 10.6488 28.1488 10.6488Z" fill="#236EFF"/>
<path d="M13.9504 14.4071C13.6261 14.4071 13.3632 14.6701 13.3632 14.9944V20.0056C13.3632 20.3299 13.6261 20.5929 13.9504 20.5929C14.2747 20.5929 14.5377 20.33 14.5377 20.0056V14.9944C14.5377 14.6701 14.2747 14.4071 13.9504 14.4071Z" fill="#236EFF"/>
<path d="M21.0496 18.1655C20.7253 18.1655 20.4623 18.4285 20.4623 18.7528V20.0056C20.4623 20.3299 20.7252 20.5929 21.0496 20.5929C21.3739 20.5929 21.6368 20.33 21.6368 20.0056V18.7528C21.6368 18.4285 21.3739 18.1655 21.0496 18.1655Z" fill="#236EFF"/>
</svg>
