<svg width="24" height="24" viewBox="0 0 24 24" fill="none" xmlns="http://www.w3.org/2000/svg">
<path fill-rule="evenodd" clip-rule="evenodd" d="M23.3629 0.0688011C23.3634 0.0688876 23.364 0.0689675 23.2585 0.768813L23.364 0.0689675L23.9303 0.154047L23.966 0.72462C24.4039 7.7107 20.533 12.894 16.6592 16.2831C16.3008 16.5967 15.9416 16.8956 15.5848 17.1799L14.9436 20.2366L14.9432 20.2384C14.8779 20.5419 14.7419 20.8258 14.5462 21.0672C14.3505 21.3085 14.1006 21.5004 13.8168 21.6273L13.8134 21.6289L9.54822 23.4834L9.54009 23.4867C9.4058 23.5412 9.25964 23.5599 9.11593 23.541C8.97219 23.5221 8.83586 23.4662 8.7203 23.3789C8.6047 23.2916 8.51383 23.1758 8.45658 23.0429C8.39932 22.9099 8.37765 22.7644 8.39368 22.6206L8.39441 22.6141L8.54342 21.4716L8.33368 21.5604L7.58894 20.8134C6.70673 22.2426 5.14345 23.0081 3.83435 23.4204C3.0211 23.6766 2.25054 23.8149 1.68578 23.8895C1.40235 23.927 1.16808 23.9487 1.00283 23.9612C0.92014 23.9674 0.854549 23.9714 0.808521 23.9738C0.785501 23.975 0.767357 23.9758 0.754396 23.9763C0.747916 23.9766 0.742729 23.9768 0.738875 23.9769L0.734097 23.9771L0.732466 23.9772L0.731842 23.9772C0.731583 23.9772 0.731345 23.9772 0.708994 23.2698C7.24792e-05 23.2766 7.00861e-05 23.2764 6.74898e-05 23.2761L6.17924e-05 23.2755L4.89553e-05 23.2738L2.21993e-05 23.2689C5.68418e-06 23.265 -5.63844e-06 23.2598 2.94368e-06 23.2534C1.99637e-05 23.2405 0.00011653 23.2226 0.000410342 23.1999C0.000997819 23.1546 0.00237478 23.0902 0.00548814 23.009C0.0117099 22.8468 0.0248947 22.617 0.0527182 22.3383C0.108158 21.783 0.222743 21.0231 0.461301 20.2133C0.855664 18.8746 1.62555 17.2858 3.13523 16.3464L2.64925 15.859L2.76538 15.5952L1.49283 15.7582L1.48692 15.7588C1.34287 15.7749 1.19711 15.7532 1.06394 15.6961C0.930789 15.6389 0.814778 15.5482 0.727295 15.4328C0.639818 15.3174 0.583887 15.1813 0.564969 15.0379C0.546049 14.8944 0.564798 14.7485 0.619373 14.6144L0.622801 14.606L2.48404 10.351L2.48418 10.3507C2.60932 10.0653 2.80086 9.81393 3.04287 9.61731C3.28488 9.42069 3.57039 9.28455 3.87569 9.22019L3.87628 9.22007L6.74402 8.62058C9.73339 4.62841 13.0107 2.45019 15.8801 1.28293C17.9697 0.432893 19.8231 0.127066 21.1607 0.0346861C21.8295 -0.0115121 22.3704 -0.00440431 22.7486 0.0149321C22.9378 0.024603 23.0865 0.0373424 23.1904 0.0480428C23.2424 0.0533936 23.2832 0.0582369 23.3123 0.0619356C23.3269 0.0637851 23.3385 0.0653488 23.3471 0.0665472C23.3514 0.0671464 23.355 0.0676543 23.3578 0.068061L23.3615 0.0685939L23.3629 0.0688011ZM5.56748 10.3127L4.16866 10.6051C4.16845 10.6051 4.16825 10.6052 4.16805 10.6052C4.08368 10.6231 4.00478 10.6608 3.93787 10.7151C3.8709 10.7696 3.81788 10.8391 3.7832 10.918C3.78315 10.9181 3.78311 10.9183 3.78306 10.9184L2.33756 14.2229L3.46147 14.079C4.13199 12.6934 4.83768 11.4423 5.56748 10.3127ZM4.17275 17.3871C2.90627 18.0266 2.20487 19.3116 1.82161 20.6126C1.61471 21.315 1.51306 21.9836 1.46364 22.4786C1.46322 22.4828 1.4628 22.487 1.46239 22.4912C1.47472 22.4896 1.48716 22.488 1.49972 22.4863C2.00946 22.4189 2.69493 22.2951 3.4077 22.0706C4.73513 21.6525 5.98631 20.9427 6.54589 19.7673L4.17275 17.3871ZM4.33855 15.5469L8.65248 19.8737C8.71434 19.8443 8.7823 19.8118 8.85601 19.7759C9.26857 19.5752 9.86054 19.2723 10.5699 18.8671C11.9903 18.0557 13.8722 16.8392 15.7247 15.2186C18.24 13.018 20.6607 10.1106 21.8385 6.48832C20.8243 6.17378 19.897 5.61519 19.1416 4.85522C18.3873 4.10882 17.8304 3.1933 17.5134 2.1909C17.1572 2.30755 16.7905 2.44107 16.4152 2.59373C12.6481 4.12617 7.9412 7.61945 4.33855 15.5469ZM18.8796 1.80837C19.1301 2.57663 19.5613 3.2781 20.1416 3.85175L20.144 3.85406L20.1463 3.85641C20.7267 4.44089 21.4369 4.87341 22.2139 5.12232C22.4764 3.95702 22.6086 2.72433 22.5774 1.42402C22.2547 1.41092 21.8069 1.40889 21.2585 1.44676C20.5967 1.49248 19.7895 1.59624 18.8796 1.80837ZM8.49804 20.722L8.60756 20.9797L8.60757 20.9797C8.57698 20.9077 8.54081 20.8226 8.49804 20.722ZM10.0671 20.7523L9.93415 21.7717L13.2397 20.3344C13.3192 20.2984 13.3892 20.2443 13.4441 20.1766C13.4994 20.1084 13.5379 20.0282 13.5566 19.9425C13.5567 19.9421 13.5568 19.9416 13.5569 19.9412L13.8681 18.4576C12.921 19.1162 12.0333 19.6619 11.2741 20.0956C10.8223 20.3537 10.4152 20.5726 10.0671 20.7523ZM0.708994 23.2698L7.2466e-05 23.2766L0.00706429 24L0.731345 23.9772L0.708994 23.2698ZM15.5261 6.26078C14.2993 6.26078 13.3048 7.25361 13.3048 8.47832C13.3048 9.70304 14.2993 10.6959 15.5261 10.6959C16.753 10.6959 17.7475 9.70304 17.7475 8.47832C17.7475 7.25361 16.753 6.26078 15.5261 6.26078ZM11.8868 8.47832C11.8868 6.47187 13.5162 4.84532 15.5261 4.84532C17.5361 4.84532 19.1654 6.47187 19.1654 8.47832C19.1654 10.4848 17.5361 12.1113 15.5261 12.1113C13.5162 12.1113 11.8868 10.4848 11.8868 8.47832Z" fill="#236EFF"/>
</svg>
