<svg width="34" height="34" viewBox="0 0 34 34" fill="none" xmlns="http://www.w3.org/2000/svg">
<path d="M32.4904 0H1.50972C0.677249 0 0 0.677173 0 1.50947V32.4903C0 33.3228 0.677249 34.0001 1.50972 34.0001H32.4904C33.3228 34.0001 34 33.3228 34 32.4903V1.50947C34 0.677173 33.3228 0 32.4904 0ZM32.8061 32.4904C32.8061 32.6644 32.6645 32.8062 32.4905 32.8062H1.50972C1.3355 32.8062 1.19392 32.6644 1.19392 32.4904V1.50947C1.19392 1.3355 1.3355 1.19392 1.50972 1.19392H32.4904C32.6645 1.19392 32.8061 1.3355 32.8061 1.50947L32.8061 32.4904Z" fill="#236EFF"/>
<path d="M29.0821 2.53351H4.69209C3.79866 2.53351 3.07178 3.26039 3.07178 4.15383V8.87267C3.07178 9.7661 3.79866 10.493 4.69209 10.493H29.0821C29.9756 10.493 30.7024 9.7661 30.7024 8.87267V4.15383C30.7024 3.26037 29.9756 2.53351 29.0821 2.53351ZM29.5085 8.87265C29.5085 9.10776 29.3171 9.29905 29.0821 9.29905H4.69209C4.45691 9.29905 4.2657 9.10774 4.2657 8.87265V4.15381C4.2657 3.9187 4.45691 3.72741 4.69209 3.72741H29.0821C29.3171 3.72741 29.5085 3.9187 29.5085 4.15381V8.87265Z" fill="#236EFF"/>
<path d="M29.0821 11.6302H4.69209C3.79866 11.6302 3.07178 12.3571 3.07178 13.2505V29.9085C3.07178 30.8019 3.79866 31.5288 4.69209 31.5288H29.0821C29.9756 31.5288 30.7024 30.8019 30.7024 29.9085V13.2505C30.7024 12.3571 29.9756 11.6302 29.0821 11.6302ZM29.5085 13.2505V20.9826H17.4841V12.8241H29.0821C29.3171 12.8241 29.5085 13.0154 29.5085 13.2505ZM4.69209 12.8241H16.2901V20.9826H4.2657V13.2505C4.2657 13.0154 4.45691 12.8241 4.69209 12.8241ZM4.2657 29.9085V22.1765H16.2901V30.3349H4.69209C4.45691 30.3349 4.2657 30.1437 4.2657 29.9085ZM29.0821 30.3349H17.4841V22.1765H29.5085V29.9085C29.5085 30.1437 29.3171 30.3349 29.0821 30.3349Z" fill="#236EFF"/>
<path d="M7.84842 17.6068H9.68911V19.4474C9.68911 19.7771 9.95645 20.0444 10.2861 20.0444C10.6159 20.0444 10.883 19.7771 10.883 19.4474V17.6068H12.7237C13.0535 17.6068 13.3207 17.3396 13.3207 17.0099C13.3207 16.6801 13.0535 16.4129 12.7237 16.4129H10.883V14.5722C10.883 14.2425 10.6158 13.9753 10.2861 13.9753C9.95645 13.9753 9.68911 14.2425 9.68911 14.5722V16.4129H7.84842C7.51882 16.4129 7.25146 16.6801 7.25146 17.0099C7.25146 17.3396 7.5188 17.6068 7.84842 17.6068Z" fill="#236EFF"/>
<path d="M11.1192 26.1347L12.4207 24.8331C12.6539 24.6 12.6539 24.222 12.4207 23.9889C12.1877 23.7558 11.8096 23.7558 11.5765 23.9889L10.2749 25.2905L8.9734 23.9889C8.7403 23.7558 8.36229 23.7558 8.12917 23.9889C7.89607 24.222 7.89607 24.6 8.12917 24.8331L9.4307 26.1347L8.12917 27.4362C7.89607 27.6693 7.89607 28.0473 8.12917 28.2804C8.24568 28.397 8.39851 28.4552 8.55132 28.4552C8.70406 28.4552 8.85681 28.3969 8.97338 28.2804L10.2749 26.9789L11.5765 28.2805C11.693 28.3971 11.8458 28.4554 11.9987 28.4554C12.1514 28.4554 12.3041 28.3971 12.4207 28.2805C12.6539 28.0474 12.6539 27.6694 12.4207 27.4363L11.1192 26.1347Z" fill="#236EFF"/>
<path d="M21.0889 17.6067H25.9642C26.294 17.6067 26.5611 17.3395 26.5611 17.0097C26.5611 16.68 26.294 16.4128 25.9642 16.4128H21.0889C20.7593 16.4128 20.4919 16.68 20.4919 17.0097C20.4919 17.3395 20.7593 17.6067 21.0889 17.6067Z" fill="#236EFF"/>
<path d="M25.9642 24.763H21.0889C20.7593 24.763 20.4919 25.0303 20.4919 25.36C20.4919 25.6898 20.7593 25.9569 21.0889 25.9569H25.9642C26.294 25.9569 26.5611 25.6898 26.5611 25.36C26.5611 25.0303 26.294 24.763 25.9642 24.763Z" fill="#236EFF"/>
<path d="M25.9642 26.4686H21.0889C20.7593 26.4686 20.4919 26.736 20.4919 27.0656C20.4919 27.3954 20.7593 27.6625 21.0889 27.6625H25.9642C26.294 27.6625 26.5611 27.3954 26.5611 27.0656C26.5611 26.736 26.294 26.4686 25.9642 26.4686Z" fill="#236EFF"/>
</svg>
