<svg width="35" height="26" viewBox="0 0 35 26" fill="none" xmlns="http://www.w3.org/2000/svg">
<path d="M33.3065 0H1.69355C0.759839 0 0 0.759839 0 1.69355V24.2742C0 25.2079 0.759839 25.9677 1.69355 25.9677H33.3065C34.2402 25.9677 35 25.2079 35 24.2742V1.69355C35 0.759839 34.2402 0 33.3065 0ZM33.871 24.2742C33.871 24.5858 33.6175 24.8387 33.3065 24.8387H1.69355C1.3825 24.8387 1.12903 24.5858 1.12903 24.2742V5.64516H33.871V24.2742ZM33.871 4.51613H1.12903V1.69355C1.12903 1.38194 1.3825 1.12903 1.69355 1.12903H33.3065C33.6175 1.12903 33.871 1.38194 33.871 1.69355V4.51613Z" fill="#236EFF"/>
<path d="M3.38709 2.25806H2.25806V3.38709H3.38709V2.25806Z" fill="#236EFF"/>
<path d="M5.64515 2.25806H4.51611V3.38709H5.64515V2.25806Z" fill="#236EFF"/>
<path d="M7.9032 2.25806H6.77417V3.38709H7.9032V2.25806Z" fill="#236EFF"/>
<path d="M13.5485 19.1936H12.4194V11.2903H13.5485V10.1613H21.4517V11.2903H24.8388V7.90323H21.4517V9.03226H13.5485V7.90323H10.1614V11.2903H11.2904V19.1936H10.1614V22.5806H13.5485V19.1936ZM22.5807 9.03226H23.7098V10.1613H22.5807V9.03226ZM11.2904 9.03226H12.4194V10.1613H11.2904V9.03226ZM12.4194 21.4516H11.2904V20.3226H12.4194V21.4516Z" fill="#236EFF"/>
<path d="M14.6775 12.4193V22.2498L17.5001 19.4272L20.3227 22.2498L24.508 18.0645L21.6854 15.2419L24.508 12.4193H14.6775ZM22.9115 18.0645L20.3227 20.6534L17.5001 17.8308L15.8065 19.5243V13.5484H21.7825L20.0889 15.2419L22.9115 18.0645Z" fill="#236EFF"/>
<path d="M27.0968 14.6774H25.9678V15.8065H27.0968V14.6774Z" fill="#236EFF"/>
<path d="M29.3549 14.6774H28.2258V15.8065H29.3549V14.6774Z" fill="#236EFF"/>
<path d="M31.6129 14.6774H30.4839V15.8065H31.6129V14.6774Z" fill="#236EFF"/>
<path d="M4.51624 14.6774H3.38721V15.8065H4.51624V14.6774Z" fill="#236EFF"/>
<path d="M6.7743 14.6774H5.64526V15.8065H6.7743V14.6774Z" fill="#236EFF"/>
<path d="M9.03235 14.6774H7.90332V15.8065H9.03235V14.6774Z" fill="#236EFF"/>
</svg>
