<svg width="35" height="35" viewBox="0 0 35 35" fill="none" xmlns="http://www.w3.org/2000/svg">
<path d="M24.2378 15.7759H19.068C18.7453 15.7759 18.4838 16.0375 18.4838 16.3602V34.4157C18.4838 34.7384 18.7453 35 19.068 35H24.2378C24.5606 35 24.8221 34.7384 24.8221 34.4157V16.3602C24.822 16.0374 24.5606 15.7759 24.2378 15.7759ZM23.6536 33.8315H19.6523V16.9444H23.6536V33.8315Z" fill="#236EFF"/>
<path d="M33.4797 10.7049H28.3099C27.9872 10.7049 27.7257 10.9665 27.7257 11.2892V18.1023C27.7257 18.425 27.9872 18.6866 28.3099 18.6866C28.6327 18.6866 28.8942 18.425 28.8942 18.1023V11.8734H32.8954V33.8314H28.8942V20.4394C28.8942 20.1168 28.6327 19.8552 28.3099 19.8552C27.9872 19.8552 27.7257 20.1168 27.7257 20.4394V34.4157C27.7257 34.7384 27.9872 35 28.3099 35H33.4797C33.8024 35 34.064 34.7384 34.064 34.4157V11.2892C34.064 10.9665 33.8023 10.7049 33.4797 10.7049Z" fill="#236EFF"/>
<path d="M14.9959 21.5711H9.82605C9.50339 21.5711 9.24178 21.8327 9.24178 22.1553V25.9284C9.24178 26.251 9.50339 26.5126 9.82605 26.5126C10.1487 26.5126 10.4103 26.251 10.4103 25.9284V22.7396H14.4116V33.8315H10.4103V28.3893C10.4103 28.0666 10.1487 27.805 9.82605 27.805C9.50339 27.805 9.24178 28.0666 9.24178 28.3893V34.4157C9.24178 34.7384 9.50339 35 9.82605 35H14.9959C15.3185 35 15.5801 34.7384 15.5801 34.4157V22.1553C15.5801 21.8327 15.3186 21.5711 14.9959 21.5711Z" fill="#236EFF"/>
<path d="M26.7362 6.0254L20.8039 0.168502C20.5849 -0.04765 20.2359 -0.0570153 20.0058 0.147174L13.4007 6.00407C13.2191 6.16506 13.1559 6.42161 13.2421 6.64856C13.3282 6.87538 13.5457 7.02549 13.7884 7.02549H16.143C15.6455 8.01636 15.0268 8.98064 14.297 9.90144C14.0965 10.1543 14.139 10.5217 14.3919 10.7222C14.6448 10.9227 15.0122 10.8801 15.2127 10.6273C16.2054 9.37494 17.0072 8.04398 17.5959 6.67153C17.6734 6.49106 17.6549 6.28366 17.5468 6.1196C17.4386 5.9556 17.2554 5.85689 17.0589 5.85689H15.3278L20.3719 1.38414L24.9022 5.85689H23.3356C23.0666 5.85689 22.8323 6.04057 22.7682 6.30184C22.7609 6.33144 22.0084 9.29434 19.0809 12.2598C17.3521 14.0113 15.2186 15.4081 12.7398 16.4113C10.5007 17.3176 7.97337 17.9033 5.19518 18.1621C7.56212 17.0557 10.8292 15.2004 13.5924 12.4397C13.8207 12.2116 13.8208 11.8418 13.5928 11.6135C13.3647 11.3852 12.9947 11.3851 12.7666 11.6131C8.08917 16.2863 1.68684 18.3218 1.62292 18.3417C1.34716 18.4276 1.17551 18.7019 1.21892 18.9874C1.26232 19.2728 1.5078 19.4839 1.79655 19.4839C6.08768 19.4839 9.91703 18.8146 13.1783 17.4946C15.8054 16.4313 18.0712 14.9462 19.9125 13.0809C22.4134 10.5475 23.4374 8.02559 23.7701 7.02543H26.3257C26.5627 7.02543 26.7762 6.88221 26.8661 6.66305C26.9562 6.44382 26.9048 6.19185 26.7362 6.0254Z" fill="#236EFF"/>
<path d="M5.75401 27.6916H0.584268C0.261611 27.6916 0 27.9532 0 28.2759V34.4157C0 34.7384 0.261611 35 0.584268 35H5.75401C6.07667 35 6.33828 34.7384 6.33828 34.4157V28.2759C6.33828 27.9532 6.07674 27.6916 5.75401 27.6916ZM1.16847 33.8315V28.8602H5.16968V33.8315H1.16847Z" fill="#236EFF"/>
</svg>
