<svg width="35" height="35" viewBox="0 0 35 35" fill="none" xmlns="http://www.w3.org/2000/svg">
<path d="M0 0V28.2258H35V0H0ZM33.871 27.0968H1.12903V1.12903H33.871V27.0968Z" fill="#236EFF"/>
<path d="M22.0161 2.25812H2.25806V14.6775H22.0161V2.25812ZM20.8871 13.5484H3.38709V3.38715H20.8871V13.5484Z" fill="#236EFF"/>
<path d="M32.742 2.25812H23.1453V3.38715H32.742V2.25812Z" fill="#236EFF"/>
<path d="M32.742 4.51611H23.1453V5.64515H32.742V4.51611Z" fill="#236EFF"/>
<path d="M32.742 6.77411H23.1453V7.90314H32.742V6.77411Z" fill="#236EFF"/>
<path d="M32.742 9.03229H23.1453V10.1613H32.742V9.03229Z" fill="#236EFF"/>
<path d="M32.742 11.2903H23.1453V12.4193H32.742V11.2903Z" fill="#236EFF"/>
<path d="M32.742 13.5484H23.1453V14.6774H32.742V13.5484Z" fill="#236EFF"/>
<path d="M11.8548 15.8065H2.25806V25.9678H11.8548V15.8065ZM10.7258 24.8388H3.38709V16.9356H10.7258V24.8388Z" fill="#236EFF"/>
<path d="M12.9839 25.9678H22.0161V15.8065H12.9839V25.9678ZM14.1129 16.9356H20.8871V24.8388H14.1129V16.9356Z" fill="#236EFF"/>
<path d="M32.742 15.8065H23.1453V25.9678H32.742V15.8065ZM31.613 24.8388H24.2743V16.9356H31.613V24.8388Z" fill="#236EFF"/>
<path d="M11.8549 12.4193C14.034 12.4193 15.8065 10.6468 15.8065 8.46773C15.8065 6.28869 14.034 4.51611 11.8549 4.51611C9.6759 4.51611 7.90332 6.28869 7.90332 8.46773C7.90332 10.6468 9.6759 12.4193 11.8549 12.4193ZM11.8549 5.64515C13.4113 5.64515 14.6775 6.91136 14.6775 8.46773C14.6775 10.0241 13.4113 11.2903 11.8549 11.2903C10.2986 11.2903 9.03235 10.0241 9.03235 8.46773C9.03235 6.91136 10.2986 5.64515 11.8549 5.64515Z" fill="#236EFF"/>
<path d="M32.1774 29.3548H5.49494L0.55542 32.1774L5.49494 35H32.1774C33.7337 35 34.9999 33.7337 34.9999 32.1774C34.9999 30.621 33.7337 29.3548 32.1774 29.3548ZM5.6451 33.7851L2.83155 32.1774L5.6451 30.5696V33.7851ZM27.0967 33.8709H6.77413V30.4838H27.0967V33.8709ZM29.3548 33.8709H28.2257V30.4838H29.3548V33.8709ZM32.1774 33.8709H30.4838V30.4838H32.1774C33.1111 30.4838 33.8709 31.2437 33.8709 32.1774C33.8709 33.1111 33.1111 33.8709 32.1774 33.8709Z" fill="#236EFF"/>
</svg>
