<svg width="379" height="380" viewBox="0 0 379 380" fill="none" xmlns="http://www.w3.org/2000/svg">
<circle cx="189.5" cy="190.5" r="189.5" fill="#F0F2FC"/>
<path fill-rule="evenodd" clip-rule="evenodd" d="M257.764 261.283L256.779 263.06L253.167 261.085L254.152 259.308L257.764 261.283ZM228.605 30.3647L230.97 31.6812L231.955 29.9039L229.591 28.5874L228.605 30.3647ZM232.808 32.7344L233.794 30.9571L237.405 32.9319L236.42 34.7092L232.808 32.7344ZM238.194 35.6966L239.179 33.9193L242.791 35.8941L241.806 37.6714L238.194 35.6966ZM243.579 38.7246L244.564 36.9473L248.176 38.9221L247.191 40.6994L243.579 38.7246ZM249.029 41.7526L250.014 39.9753L253.626 41.9501L252.641 43.7274L249.029 41.7526ZM254.414 44.7806L255.4 43.0033L259.012 44.9781L258.026 46.7554L254.414 44.7806ZM259.8 47.7428L260.785 45.9655L264.397 47.9403L263.412 49.7176L259.8 47.7428ZM265.185 50.7708L266.17 48.9935L269.782 50.9683L268.797 52.7456L265.185 50.7708ZM270.635 53.7988L271.62 52.0215L275.232 53.9963L274.247 55.7736L270.635 53.7988ZM276.02 56.8268L277.006 55.0495L280.618 57.0243L279.632 58.8016L276.02 56.8268ZM281.406 59.789L282.391 58.0117L286.003 59.9864L285.018 61.7638L281.406 59.789ZM286.791 62.817L287.776 61.0397L291.388 63.0145L290.403 64.7918L286.791 62.817ZM292.241 65.845L293.227 64.0677L296.838 66.0425L295.853 67.8198L292.241 65.845ZM297.627 68.8072L298.612 67.0298L302.224 69.0046L301.238 70.7819L297.627 68.8072ZM303.012 71.8351L303.997 70.0578L307.609 72.0326L306.624 73.8099L303.012 71.8351ZM308.331 74.8631C309.382 75.5872 310.17 76.5088 310.892 77.562L312.6 76.443C311.746 75.1923 310.761 74.0732 309.513 73.2175L308.331 74.8631ZM311.812 79.2077C312.337 80.3925 312.731 81.5774 312.928 82.8281L314.964 82.5648C314.767 81.1166 314.307 79.6685 313.716 78.3519L311.812 79.2077ZM312.994 84.7371C312.928 86.0536 312.665 87.5018 312.468 88.7525L314.504 89.0816C314.701 87.7651 315.03 86.2511 315.03 84.8687L312.994 84.7371ZM312.14 90.7272L314.176 91.0564L313.585 95.1376L311.549 94.8084L312.14 90.7272ZM311.286 96.8491L313.322 97.1782L312.731 101.259L310.695 100.93L311.286 96.8491ZM310.367 103.037L312.403 103.366L311.812 107.447L309.776 107.118L310.367 103.037ZM309.513 109.159L311.549 109.488L310.958 113.569L308.922 113.24L309.513 109.159ZM308.594 115.28L310.63 115.609L310.039 119.691L308.003 119.362L308.594 115.28ZM307.674 121.402L309.71 121.731L309.119 125.813L307.083 125.483L307.674 121.402ZM306.821 127.524L308.856 127.853L308.265 131.934L306.23 131.605L306.821 127.524ZM305.901 133.646L307.937 133.975L307.346 138.056L305.31 137.727L305.901 133.646ZM304.982 139.768L307.018 140.097L306.427 144.178L304.391 143.849L304.982 139.768ZM304.128 145.89L306.164 146.219L305.573 150.3L303.537 149.971L304.128 145.89ZM303.209 152.077L305.244 152.406L304.653 156.488L302.618 156.158L303.209 152.077ZM302.289 158.199L304.325 158.528L303.734 162.609L301.698 162.28L302.289 158.199ZM301.435 164.321L303.471 164.65L302.88 168.731L300.844 168.402L301.435 164.321ZM300.516 170.443L302.552 170.772L301.961 174.853L299.925 174.524L300.516 170.443ZM299.597 176.564L301.632 176.894L301.041 180.975L299.006 180.646L299.597 176.564ZM298.743 182.686L300.779 183.015L300.188 187.097L298.152 186.768L298.743 182.686ZM297.824 188.808L299.859 189.137L299.268 193.218L297.232 192.889L297.824 188.808ZM296.97 194.93L299.006 195.259L298.415 199.34L296.379 199.011L296.97 194.93ZM296.05 201.052L298.086 201.381L297.495 205.462L295.459 205.133L296.05 201.052ZM295.131 207.239L297.167 207.569L296.576 211.65L294.54 211.321L295.131 207.239ZM294.277 213.361L296.313 213.69L295.722 217.772L293.686 217.442L294.277 213.361ZM293.358 219.483L295.394 219.812L294.803 223.893L292.767 223.564L293.358 219.483ZM292.438 225.605L294.474 225.934L293.883 230.015L291.847 229.686L292.438 225.605ZM291.585 231.727L293.621 232.056L293.03 236.137L290.994 235.808L291.585 231.727ZM290.665 237.849L292.701 238.178L292.11 242.259L290.074 241.93L290.665 237.849ZM289.746 243.97L291.782 244.3L291.191 248.381L289.155 248.052L289.746 243.97ZM288.892 250.092L290.928 250.421L290.337 254.503L288.301 254.173L288.892 250.092ZM287.973 256.28L290.009 256.609L289.418 260.69L287.382 260.361L287.973 256.28ZM287.119 262.402L289.155 262.731L288.564 266.812L286.528 266.483L287.119 262.402ZM286.2 268.524L288.235 268.853L288.104 269.774C287.907 270.959 287.579 272.078 286.922 273.131L285.149 272.012C285.609 271.222 285.871 270.301 286.003 269.445L286.2 268.524ZM284.098 273.263C283.179 273.921 282.128 274.119 281.012 273.921L280.618 275.962C282.325 276.291 283.967 276.028 285.346 274.974L284.098 273.263ZM279.37 273.263L278.385 275.04L274.773 273L275.758 271.222L279.37 273.263ZM273.919 270.301L272.934 272.078L269.322 270.103L270.307 268.326L273.919 270.301ZM268.534 267.273L267.549 269.05L263.937 267.075L264.922 265.298L268.534 267.273ZM263.149 264.245L262.164 266.022L258.552 264.047L259.537 262.27L263.149 264.245Z" fill="white"/>
<path fill-rule="evenodd" clip-rule="evenodd" d="M206.671 4.62666C208.575 5.67987 209.626 6.86474 210.874 8.64204C210.874 8.31291 210.874 9.43196 210.874 7.72048C210.874 6.009 209.889 3.24431 211.268 1.86196C211.793 1.33535 214.354 0.282132 215.011 0.15048C216.193 -0.178651 217.572 0.0188317 219.083 0.874571C221.315 2.12527 223.351 4.495 224.796 7.39135C226.241 10.2877 227.16 15.093 227.16 16.8045C227.16 18.516 227.16 17.3969 227.16 17.726C228.408 17.3311 229.524 17.3311 231.429 18.4501C233.333 19.5034 235.763 22.1364 237.274 25.0986C238.784 28.0607 239.704 31.4837 239.769 34.6433C239.769 37.1447 239.178 39.1195 238.259 40.5019C237.274 41.8842 235.369 42.6741 234.056 43.1349C230.247 44.4514 222.826 36.684 218.951 34.4459C214.814 32.0761 210.677 29.7722 206.605 27.4683C204.372 26.2176 202.402 23.782 200.957 20.8857C199.512 17.9894 198.659 14.698 198.724 11.5384C198.724 9.69526 197.411 6.99639 199.118 5.67987C201.68 3.57343 204.569 3.44179 206.671 4.62666Z" fill="#8D6DFC"/>
<path fill-rule="evenodd" clip-rule="evenodd" d="M204.504 5.61397C206.408 6.66719 207.459 7.85205 208.707 9.62936C208.707 9.30022 208.707 10.4193 208.707 8.70779C208.707 6.99632 209.626 3.24423 211.136 1.99353C212.581 0.742839 214.617 0.611184 216.85 1.79605C219.083 3.04675 221.118 5.41648 222.563 8.31283C224.008 11.2092 224.927 16.0145 224.927 17.726C224.927 19.4374 224.927 18.3184 224.927 18.6475C226.175 18.2526 227.292 18.2526 229.196 19.3716C231.101 20.4248 233.53 23.0579 235.041 26.0201C236.551 28.9822 237.471 32.4052 237.536 35.5648C237.536 38.7903 236.617 41.1601 235.107 42.4108C233.596 43.6614 231.495 43.7931 229.196 42.4766C224.993 40.1068 220.856 37.7371 216.653 35.3674C212.515 32.9976 208.378 30.6937 204.307 28.3898C202.074 27.1391 200.104 24.7035 198.659 21.8072C197.214 18.9108 196.36 15.6195 196.426 12.4599C196.426 9.36605 197.345 6.99632 198.856 5.81145C200.301 4.49493 202.665 4.56075 204.504 5.61397Z" fill="url(#paint0_linear_131_13)"/>
<path fill-rule="evenodd" clip-rule="evenodd" d="M208.839 21.083L205.03 18.8449L211.072 29.3113L217.114 25.8225L213.305 23.6502V13.7763L208.839 11.2091V21.083Z" fill="white"/>
<path fill-rule="evenodd" clip-rule="evenodd" d="M222.17 25.3618L225.979 27.5341L219.937 17.0677L213.896 20.5565L217.704 22.7946V32.6685L222.17 35.2358V25.3618Z" fill="white"/>
<path fill-rule="evenodd" clip-rule="evenodd" d="M107.638 33.5243L108.492 31.9445L111.644 33.7218L110.79 35.3016L107.638 33.5243ZM112.235 180.843L109.871 179.527L109.017 181.106L111.381 182.423L112.235 180.843ZM108.295 178.671L107.441 180.251L104.289 178.473L105.142 176.894L108.295 178.671ZM103.632 176.038L102.778 177.618L99.626 175.84L100.48 174.26L103.632 176.038ZM98.9036 173.405L98.0499 174.985L94.8977 173.207L95.7514 171.627L98.9036 173.405ZM94.1753 170.772L93.3215 172.352L90.1693 170.574L91.023 168.994L94.1753 170.772ZM89.4469 168.139L88.5932 169.718L85.4409 167.941L86.2947 166.361L89.4469 168.139ZM84.7842 165.506L83.9305 167.085L82.2887 166.164C81.6976 165.835 81.2379 165.44 80.7126 164.979L81.9603 163.728C82.2887 164.057 82.7484 164.452 83.1424 164.65L84.7842 165.506ZM80.9752 162.478C80.3842 161.556 79.9902 160.503 79.7932 159.45L78.02 159.779C78.2827 161.095 78.7424 162.346 79.4648 163.399L80.9752 162.478ZM79.6618 157.87C79.7275 156.751 79.9902 155.5 80.1215 154.381L78.3484 154.118C78.1514 155.237 77.8887 156.553 77.8887 157.804L79.6618 157.87ZM80.3842 152.604L78.6111 152.34L79.1364 148.786L80.9096 149.049L80.3842 152.604ZM81.1723 147.272L79.3991 147.008L79.9245 143.454L81.6976 143.717L81.1723 147.272ZM81.9603 141.94L80.1872 141.677L80.7126 138.122L82.4857 138.385L81.9603 141.94ZM82.7484 136.542L80.9752 136.279L81.5006 132.724L83.2738 132.988L82.7484 136.542ZM83.4708 131.21L81.6976 130.947L82.223 127.392L83.9961 127.656L83.4708 131.21ZM84.2588 125.878L82.4857 125.615L83.0111 122.06L84.7842 122.324L84.2588 125.878ZM85.0469 120.546L83.2738 120.283L83.7991 116.728L85.5723 116.992L85.0469 120.546ZM85.835 115.214L84.0618 114.951L84.5872 111.397L86.3603 111.66L85.835 115.214ZM86.623 109.817L84.8499 109.553L85.3753 105.999L87.1484 106.262L86.623 109.817ZM87.4111 104.485L85.6379 104.222L86.1633 100.667L87.9364 100.93L87.4111 104.485ZM88.1991 99.1529L86.426 98.8896L86.9514 95.335L88.7245 95.5983L88.1991 99.1529ZM88.9872 93.821L87.2141 93.5577L87.7394 90.0031L89.5126 90.2664L88.9872 93.821ZM89.7753 88.4891L88.0021 88.2258L88.5275 84.6712L90.3006 84.9345L89.7753 88.4891ZM90.4977 83.0913L88.7245 82.828L89.2499 79.2734L91.023 79.5367L90.4977 83.0913ZM91.2857 77.7594L89.5126 77.4961L90.038 73.9415L91.8111 74.2048L91.2857 77.7594ZM92.0738 72.4275L90.3006 72.1642L90.826 68.6096L92.5992 68.8729L92.0738 72.4275ZM92.8618 67.0956L91.0887 66.8323L91.6141 63.2777L93.3872 63.541L92.8618 67.0956ZM93.6499 61.7637L91.8768 61.5004L92.4021 57.9458L94.1753 58.2091L93.6499 61.7637ZM94.438 56.3659L92.6648 56.1026L93.1902 52.548L94.9633 52.8113L94.438 56.3659ZM95.226 51.034L93.4529 50.7707L93.9783 47.2161L95.7514 47.4794L95.226 51.034ZM96.0141 45.7021L94.2409 45.4388L94.7663 41.8842L96.5395 42.1475L96.0141 45.7021ZM96.8021 40.3702L95.029 40.1069L95.5544 36.5523L97.3275 36.8156L96.8021 40.3702ZM97.5902 35.0383L95.8171 34.775C96.0141 33.656 96.0798 32.1419 96.5395 31.0229L98.1813 31.747C97.7872 32.6027 97.6559 34.2484 97.5902 35.0383ZM98.9693 30.5621C99.626 29.9697 100.611 29.838 101.465 30.1672L102.056 28.4557C100.545 27.9291 98.9693 28.1924 97.7872 29.2456L98.9693 30.5621ZM102.91 30.8913L103.763 29.3114L106.916 31.0887L106.062 32.6686L102.91 30.8913Z" fill="white"/>
<path opacity="0.5" fill-rule="evenodd" clip-rule="evenodd" d="M247.323 282.215L138.57 221.919C135.877 220.668 132.003 219.549 129.376 221.129L122.677 225.21C121.298 226.066 116.898 228.765 119.854 230.41C128.588 235.15 221.185 286.889 229.985 291.76C231.693 292.682 234.123 293.011 236.684 292.813C239.245 292.616 241.937 291.892 243.908 290.641L246.6 288.995C248.505 287.811 249.555 286.56 249.621 285.309C249.752 284.058 248.964 283.005 247.323 282.215Z" fill="#BB6CE9"/>
<path fill-rule="evenodd" clip-rule="evenodd" d="M165.758 11.6043C164.182 10.6827 162.343 10.3536 160.636 11.0118L156.761 12.5258C155.382 19.7667 236.487 285.638 238.26 287.481L241.675 286.165C243.908 285.243 245.09 282.939 245.418 280.635L274.511 82.1698C274.971 78.8127 273.985 75.3239 272.147 72.5592C271.162 71.0452 269.848 69.6629 268.272 68.8071L165.758 11.6043Z" fill="url(#paint1_linear_131_13)"/>
<path fill-rule="evenodd" clip-rule="evenodd" d="M264.463 70.2553L161.949 13.1182C157.746 10.8143 153.806 13.0524 153.018 18.0552L123.991 216.587C123.269 221.655 126.027 227.645 130.23 229.949L232.744 287.086C236.947 289.39 240.887 287.152 241.675 282.149L270.702 83.618C271.424 78.5493 268.666 72.5592 264.463 70.2553Z" fill="url(#paint2_linear_131_13)"/>
<path fill-rule="evenodd" clip-rule="evenodd" d="M264.463 70.2553L161.949 13.1182C157.746 10.8143 153.806 13.0524 153.018 18.0552L151.508 28.1924L269.191 93.7552L270.702 83.5521C271.424 78.5494 268.666 72.5592 264.463 70.2553Z" fill="#4A9FF8"/>
<path fill-rule="evenodd" clip-rule="evenodd" d="M161.096 27.1393C159.783 26.0202 158.995 23.7821 159.323 22.0707C159.651 20.3592 161.03 19.8984 162.344 20.9516C163.657 22.0707 164.445 24.3088 164.117 26.0202C163.723 27.7317 162.41 28.2583 161.096 27.1393Z" fill="#4C68E5"/>
<path fill-rule="evenodd" clip-rule="evenodd" d="M169.437 32.2736C168.123 31.1545 167.335 28.9164 167.664 27.2049C167.992 25.4935 169.371 25.0327 170.684 26.0859C171.998 27.2049 172.786 29.443 172.458 31.1545C172.129 32.866 170.816 33.3268 169.437 32.2736Z" fill="#4C68E5"/>
<path fill-rule="evenodd" clip-rule="evenodd" d="M177.842 37.3423C176.529 36.2232 175.741 33.9851 176.069 32.2737C176.398 30.5622 177.777 30.1014 179.09 31.1546C180.404 32.2737 181.192 34.5118 180.863 36.2232C180.535 37.9347 179.156 38.4613 177.842 37.3423Z" fill="#4C68E5"/>
<path opacity="0.5" fill-rule="evenodd" clip-rule="evenodd" d="M258.29 118.374C257.83 118.111 257.37 118.374 257.305 118.901C257.239 119.493 257.502 120.152 257.961 120.349C258.421 120.612 258.881 120.349 258.946 119.822C259.078 119.296 258.815 118.638 258.29 118.374ZM141.656 145.363L142.445 145.824L150.851 88.4893L150.062 88.0285L141.656 145.363ZM150.851 85.3954C150.391 85.1321 149.931 85.3954 149.865 85.9878C149.8 86.5145 150.062 87.2386 150.522 87.436C150.982 87.6993 151.442 87.436 151.507 86.9094C151.639 86.317 151.31 85.6587 150.851 85.3954ZM154.265 155.303L155.054 155.764L163.46 98.429L162.671 97.9682L154.265 155.303ZM163.46 95.3352C163 95.0719 162.54 95.3352 162.474 95.8618C162.409 96.3884 162.671 97.1125 163.131 97.3099C163.591 97.5732 164.051 97.3099 164.116 96.7833C164.248 96.2567 163.919 95.5985 163.46 95.3352ZM169.239 148.852L170.027 149.313L178.433 91.978L177.645 91.5172L169.239 148.852ZM178.433 88.8842C177.973 88.6209 177.513 88.8842 177.448 89.4108C177.382 89.9374 177.645 90.6615 178.17 90.859C178.63 91.1223 179.089 90.859 179.155 90.3324C179.221 89.8058 178.892 89.1475 178.433 88.8842ZM184.212 142.401L185 142.862L193.406 85.5271L192.618 85.0663L184.212 142.401ZM193.406 82.4332C192.946 82.1699 192.486 82.4332 192.421 83.0257C192.355 83.5523 192.618 84.2106 193.078 84.4739C193.537 84.7372 193.997 84.4738 194.063 83.9472C194.194 83.3548 193.866 82.6965 193.406 82.4332ZM197.609 146.811L198.397 147.272L206.803 89.9374L206.015 89.4766L197.609 146.811ZM206.803 86.9094C206.343 86.6461 205.884 86.9094 205.818 87.436C205.752 87.9626 206.081 88.6867 206.475 88.8842C206.934 89.1475 207.394 88.8842 207.46 88.3576C207.591 87.831 207.263 87.1727 206.803 86.9094ZM209.758 159.516L210.546 159.976L218.952 102.642L218.164 102.181L209.758 159.516ZM218.952 99.548C218.493 99.2847 218.033 99.548 217.967 100.14C217.901 100.667 218.23 101.325 218.624 101.589C219.084 101.852 219.543 101.589 219.609 101.062C219.74 100.47 219.412 99.8113 218.952 99.548ZM221.579 174.919L222.367 175.38L230.773 118.045L229.985 117.584L221.579 174.919ZM230.773 115.017C230.313 114.754 229.854 115.017 229.788 115.544C229.722 116.07 230.051 116.794 230.51 116.992C230.97 117.255 231.43 116.992 231.496 116.465C231.496 115.939 231.233 115.28 230.773 115.017ZM234.122 184.859L234.91 185.319L243.316 127.985L242.528 127.524L234.122 184.859ZM243.316 124.891C242.857 124.628 242.397 124.891 242.331 125.418C242.266 126.01 242.528 126.668 242.988 126.866C243.448 127.129 243.907 126.866 243.973 126.339C244.105 125.813 243.776 125.154 243.316 124.891ZM249.096 178.342L249.884 178.803L258.29 121.468L257.502 121.007L249.096 178.342Z" fill="#3856D8"/>
<path opacity="0.5" fill-rule="evenodd" clip-rule="evenodd" d="M263.346 124.035C263.215 123.772 263.018 123.574 262.821 123.509C262.558 123.377 262.295 123.377 262.033 123.509C260.062 125.023 258.289 126.339 256.648 127.458C255.006 128.577 253.43 129.499 252.051 130.354C245.352 133.975 240.558 134.238 235.764 131.605C231.101 128.906 226.636 123.245 220.725 115.28C214.158 106.328 208.379 100.338 202.534 97.0465C201.68 96.5857 200.827 96.1249 199.973 95.7958C193.274 93.0311 186.444 93.9527 178.235 98.5605C177.382 99.0213 176.594 99.4821 175.74 100.009C169.435 103.695 163.525 107.052 157.155 103.563C153.871 101.72 150.391 98.0339 146.713 91.4513C146.582 91.188 146.385 90.9905 146.188 90.9247C145.925 90.793 145.662 90.793 145.4 90.9247C145.005 91.2538 145.005 91.9779 145.334 92.5045C149.471 99.8112 153.28 103.958 156.892 105.999C163.722 109.817 170.026 106.131 176.791 102.247C177.644 101.786 178.432 101.325 179.286 100.864C187.101 96.4541 193.537 95.5325 199.841 98.0997C200.629 98.4288 201.418 98.8238 202.206 99.2188C207.722 102.247 213.238 108.105 219.609 116.729C225.716 124.957 230.379 130.881 235.436 133.777C235.501 133.843 235.633 133.909 235.698 133.909C240.689 136.674 245.943 136.476 253.036 132.593C254.48 131.803 256.056 130.815 257.764 129.696C259.471 128.511 261.245 127.195 263.215 125.747C263.609 125.352 263.674 124.628 263.346 124.035Z" fill="#3856D8"/>
<path fill-rule="evenodd" clip-rule="evenodd" d="M262.23 119.822C262.099 119.559 261.902 119.362 261.705 119.296C261.442 119.164 261.179 119.164 260.917 119.296C258.946 120.81 257.173 122.126 255.532 123.311C253.89 124.496 252.314 125.418 250.935 126.273C244.236 130.025 239.442 130.355 234.648 127.787C229.985 125.154 225.52 119.559 219.609 111.66C213.042 102.839 207.263 96.8491 201.418 93.6894C200.564 93.2287 199.711 92.8337 198.857 92.5046C192.158 89.8057 185.328 90.8589 177.119 95.5984C176.266 96.0592 175.478 96.5858 174.624 97.0466C168.319 100.799 162.409 104.287 156.039 100.864C152.755 99.0872 149.275 95.4009 145.597 88.8841C145.466 88.6208 145.269 88.4234 145.072 88.3575C144.809 88.2259 144.546 88.2259 144.284 88.3575C143.89 88.6867 143.89 89.4107 144.218 89.9374C148.355 97.1782 152.164 101.259 155.776 103.234C162.606 106.92 168.91 103.168 175.675 99.2188C176.528 98.7581 177.316 98.2314 178.17 97.7707C185.985 93.2287 192.421 92.2413 198.725 94.7427C199.514 95.0718 200.302 95.4009 201.09 95.8617C206.606 98.8239 212.123 104.551 218.493 113.108C224.6 121.271 229.263 127.129 234.32 129.96C234.385 130.025 234.517 130.091 234.582 130.091C239.573 132.79 244.827 132.527 251.92 128.511C253.364 127.722 254.941 126.668 256.648 125.549C258.355 124.364 260.129 123.048 262.099 121.468C262.493 121.139 262.558 120.415 262.23 119.822Z" fill="#6BB6FF"/>
<path fill-rule="evenodd" clip-rule="evenodd" d="M260.916 119.296C257.698 121.797 254.415 124.233 250.868 126.207C244.17 129.96 239.376 130.289 234.582 127.721C229.919 125.088 225.453 119.493 219.543 111.594C214.355 104.616 207.131 95.73 198.791 92.4387C189.859 88.8841 182.307 92.3729 174.558 96.9807C168.253 100.733 162.343 104.222 155.973 100.799C152.689 99.0213 149.208 95.335 145.531 88.8182C145.399 88.5549 145.202 88.3575 145.005 88.2916C146.056 90.9905 150.719 98.9554 155.25 101.391C162.08 105.077 167.991 101.852 174.755 97.8364C182.241 93.5577 189.991 89.7398 198.659 93.1628C206.54 96.3224 214.092 105.472 218.952 112.121C225.059 120.283 229.394 125.878 234.45 128.709C238.653 131.079 242.2 130.947 245.943 129.565C249.949 128.116 258.946 122.39 260.916 119.296Z" fill="#00FFFF"/>
<path opacity="0.5" fill-rule="evenodd" clip-rule="evenodd" d="M201.285 133.712L140.999 100.206L132.527 158.001L193.405 191.836C197.674 194.206 201.745 191.968 202.468 186.767L207.59 147.338C208.378 142.203 205.554 136.081 201.285 133.712Z" fill="url(#paint3_linear_131_13)"/>
<path fill-rule="evenodd" clip-rule="evenodd" d="M200.168 145.955L194.323 185.78L195.045 185.846L196.95 185.122C199.051 184.266 200.168 182.094 200.43 179.987L205.093 144.046C205.553 140.953 204.633 137.727 202.926 135.094C202.006 133.712 200.824 132.395 199.314 131.605L122.543 88.95C121.099 88.0943 119.391 87.831 117.749 88.4234L116.042 89.0817C115.188 89.4108 114.926 89.6741 114.926 89.7399C115.779 97.1124 201.284 138.32 200.168 145.955Z" fill="#E5EDFF"/>
<path fill-rule="evenodd" clip-rule="evenodd" d="M197.41 132.329L120.639 89.6741C118.932 88.7525 117.29 88.6209 115.845 89.1475C114.072 89.8716 112.693 91.6489 112.299 94.2819L107.636 130.223C106.98 134.962 109.541 140.492 113.415 142.664L190.186 185.319C194.06 187.492 197.804 185.385 198.46 180.712L203.123 144.771C203.911 140.097 201.284 134.502 197.41 132.329Z" fill="#D1E7FF"/>
<path opacity="0.5" fill-rule="evenodd" clip-rule="evenodd" d="M198.855 147.338L155.118 123.245C154.723 123.048 154.329 122.982 154.001 123.114C153.541 123.311 153.279 123.706 153.147 124.364L152.885 126.142C152.753 127.261 153.344 128.577 154.264 129.104L198.001 153.196C198.921 153.723 199.84 153.196 199.971 152.077L200.234 150.3C200.365 149.181 199.774 147.864 198.855 147.338Z" fill="white"/>
<path opacity="0.5" fill-rule="evenodd" clip-rule="evenodd" d="M197.279 158.199L153.541 134.107C153.147 133.909 152.753 133.843 152.425 133.975C151.965 134.173 151.702 134.568 151.571 135.226L151.308 137.003C151.111 138.122 151.768 139.439 152.687 139.965L196.425 164.058C197.344 164.584 198.264 164.058 198.395 162.939L198.658 161.161C198.789 160.042 198.198 158.726 197.279 158.199Z" fill="white"/>
<path opacity="0.5" fill-rule="evenodd" clip-rule="evenodd" d="M169.368 154.184L151.965 144.902C151.571 144.705 151.177 144.639 150.849 144.771C150.389 144.968 150.127 145.363 149.995 146.021L149.733 147.799C149.601 148.918 150.192 150.234 151.112 150.761L168.515 160.042C169.434 160.569 170.354 160.042 170.485 158.923L170.748 157.146C170.879 156.027 170.288 154.71 169.368 154.184Z" fill="white"/>
<path fill-rule="evenodd" clip-rule="evenodd" d="M113.613 112.121C112.233 124.233 118.998 139.11 128.651 145.231C138.305 151.353 147.565 143.454 148.55 134.304C149.535 125.154 147.828 121.336 145.069 115.346C143.362 116.268 141.72 117.189 140.013 118.111C141.786 121.995 142.902 124.43 142.245 130.355C141.589 136.213 135.613 141.282 129.439 137.332C123.266 133.383 118.932 123.838 119.786 116.07C117.75 114.754 115.648 113.437 113.613 112.121Z" fill="#22D2FB"/>
<path fill-rule="evenodd" clip-rule="evenodd" d="M120.442 99.8114C116.83 101.786 114.269 105.999 113.613 112.121C115.714 113.437 117.816 114.754 119.851 116.07C120.311 112.187 121.953 109.422 124.251 108.171C122.938 105.407 121.69 102.576 120.442 99.8114Z" fill="#12A3EB"/>
<path fill-rule="evenodd" clip-rule="evenodd" d="M133.511 101.194C128.652 98.0999 124.055 97.8366 120.443 99.8114C121.69 102.642 122.938 105.407 124.252 108.171C126.55 106.921 129.571 107.118 132.658 109.093C135.744 111.068 138.371 114.425 140.144 118.243C141.852 117.321 143.493 116.4 145.201 115.478C142.443 109.488 138.305 104.222 133.511 101.194Z" fill="#1C8DF3"/>
<path opacity="0.5" fill-rule="evenodd" clip-rule="evenodd" d="M227.358 200.788C218.492 193.745 213.239 179.066 215.537 168.007C217.836 156.948 226.898 153.723 235.764 160.766C244.63 167.81 249.884 182.555 247.585 193.548C245.221 204.606 236.158 207.832 227.358 200.788Z" fill="url(#paint4_linear_131_13)"/>
<path fill-rule="evenodd" clip-rule="evenodd" d="M217.508 160.042C219.084 158.331 223.156 157.409 225.388 157.278C228.015 157.146 230.97 158.199 233.86 160.635C241.544 166.954 246.141 180.119 244.105 190.059C243.514 193.021 242.463 195.325 240.953 196.971C239.573 198.485 235.042 200.394 232.941 200.525C220.463 202.237 212.779 164.979 217.508 160.042Z" fill="#D0E7FF"/>
<path fill-rule="evenodd" clip-rule="evenodd" d="M223.55 197.234C215.866 190.915 211.269 177.749 213.305 167.81C215.341 157.936 223.156 155.039 230.839 161.359C238.523 167.678 243.12 180.843 241.084 190.783C239.048 200.723 231.233 203.619 223.55 197.234Z" fill="url(#paint5_linear_131_13)"/>
<path fill-rule="evenodd" clip-rule="evenodd" d="M234.845 173.076L236.947 174.59L221.842 189.072L216.195 174.129L218.953 175.775L222.696 181.041L234.845 173.076Z" fill="white"/>
<path opacity="0.5" fill-rule="evenodd" clip-rule="evenodd" d="M253.56 230.41L162.539 179.922C160.897 179 159.255 178.868 157.876 179.395C156.169 180.053 154.855 181.83 154.461 184.398L148.157 229.225C147.5 233.767 149.996 239.231 153.805 241.271L237.602 287.745C238.521 287.416 242.921 286.626 243.184 285.309L253.56 230.41Z" fill="url(#paint6_linear_131_13)"/>
<path fill-rule="evenodd" clip-rule="evenodd" d="M259.536 243.707L252.443 290.114L253.1 290.18L254.873 289.522C254.939 289.456 255.07 289.456 255.136 289.39C257.106 288.6 258.091 286.56 258.42 284.651L264.461 241.864C264.855 238.968 264.002 236.005 262.426 233.57C261.572 232.253 260.455 231.068 259.076 230.344L167.136 179.329C165.757 178.539 164.181 178.276 162.736 178.803L161.16 179.395C160.963 179.461 160.831 179.527 160.766 179.592C160.109 179.856 159.846 180.053 159.846 180.119C160.503 186.965 260.587 236.664 259.536 243.707Z" fill="#D0E7FF"/>
<path fill-rule="evenodd" clip-rule="evenodd" d="M256.975 231.134L165.034 180.119C163.458 179.263 161.882 179.132 160.634 179.592C158.992 180.251 157.745 181.896 157.351 184.398L151.309 227.185C150.652 231.529 153.082 236.729 156.694 238.704L248.634 289.719C252.246 291.694 255.661 289.785 256.318 285.441L262.36 242.654C262.951 238.243 260.587 233.109 256.975 231.134Z" fill="url(#paint7_linear_131_13)"/>
<path fill-rule="evenodd" clip-rule="evenodd" d="M156.629 212.374C157.679 206.318 159.978 204.277 162.999 205.133C163.458 205.265 163.918 205.462 164.444 205.725C167.399 207.437 170.354 211.781 170.814 219.088C171.076 223.696 171.996 227.975 175.87 230.147C186.05 235.61 182.372 203.29 192.026 208.819C200.3 213.559 195.375 230.739 198.593 241.601C199.709 245.353 201.745 247.13 203.124 247.92C208.969 251.08 209.626 241.14 210.414 236.993C213.96 217.772 216.193 216.653 219.739 218.693C223.482 220.865 225.124 222.314 224.468 242.456C224.205 250.685 224.468 258.057 230.247 261.48C236.683 265.166 237.274 257.596 240.097 253.91C241.805 251.738 243.972 251.277 246.008 252.462C248.175 253.713 250.145 256.806 250.999 261.612C252.444 269.643 251.787 280.833 251.327 284.717L154.33 229.818C155.118 223.893 155.709 217.64 156.629 212.374Z" fill="#D0E7FF"/>
<path opacity="0.5" fill-rule="evenodd" clip-rule="evenodd" d="M145.924 178.21L130.819 169.916L124.252 214.612L139.488 223.038C143.757 225.408 147.763 223.169 148.551 217.969L152.163 191.77C153.016 186.702 150.193 180.58 145.924 178.21Z" fill="url(#paint8_linear_131_13)"/>
<path fill-rule="evenodd" clip-rule="evenodd" d="M144.938 190.256L140.406 218.101L141.129 218.167L143.033 217.442C145.135 216.587 146.251 214.414 146.514 212.308L149.863 188.347C150.323 185.253 149.403 182.028 147.696 179.395C146.777 178.013 145.595 176.696 144.084 175.906L114.663 159.713C113.218 158.857 111.511 158.594 109.869 159.186L108.162 159.845C107.308 160.174 107.045 160.437 107.045 160.503C107.899 167.941 146.054 182.62 144.938 190.256Z" fill="#D0E7FF"/>
<path fill-rule="evenodd" clip-rule="evenodd" d="M142.18 176.63L112.759 160.437C111.051 159.516 109.41 159.384 107.965 159.911C106.192 160.635 104.812 162.412 104.418 165.045L101.069 189.006C100.412 193.679 102.974 199.275 106.848 201.447L136.269 217.64C140.144 219.812 143.887 217.706 144.544 213.032L147.893 189.072C148.681 184.398 146.054 178.803 142.18 176.63Z" fill="white"/>
<path fill-rule="evenodd" clip-rule="evenodd" d="M137.058 185.385C136.73 187.426 135.153 188.347 133.512 187.426C131.804 186.504 130.688 184.069 131.016 182.028C131.344 179.987 132.921 179.132 134.628 180.053C136.204 180.975 137.321 183.345 137.058 185.385ZM127.798 203.487C128.127 201.447 129.703 200.591 131.41 201.513C133.118 202.434 134.234 204.804 133.906 206.844C133.577 208.885 132.001 209.807 130.359 208.885C128.586 207.963 127.47 205.528 127.798 203.487ZM117.291 186.043C116.962 188.084 115.386 188.94 113.679 188.018C112.037 187.097 110.855 184.727 111.183 182.686C111.512 180.646 113.088 179.724 114.73 180.646C116.437 181.567 117.553 184.003 117.291 186.043ZM134.891 177.42C132.001 175.84 129.243 177.289 128.783 180.777V181.041L118.801 182.62C118.079 180.646 116.765 179 115.124 178.078C112.234 176.499 109.541 178.013 109.016 181.501C108.491 184.924 110.395 189.071 113.285 190.651C114.927 191.573 116.503 191.441 117.619 190.52L125.697 202.171L125.631 202.368C125.106 205.857 127.076 209.938 129.9 211.518C132.724 213.098 135.482 211.584 136.007 208.095C136.533 204.672 134.562 200.525 131.739 198.945C129.703 197.826 127.733 198.221 126.616 199.801L118.998 188.676C119.195 188.281 119.327 187.755 119.392 187.294C119.458 186.767 119.524 186.175 119.458 185.648L128.98 184.003C129.571 186.504 131.082 188.874 133.118 189.993C135.942 191.573 138.7 190.059 139.225 186.57C139.685 183.081 137.715 179 134.891 177.42Z" fill="url(#paint9_linear_131_13)"/>
<path opacity="0.5" fill-rule="evenodd" clip-rule="evenodd" d="M278.647 73.3491L245.483 56.1027L242.002 57.7483L237.142 93.0969C236.42 98.0339 239.112 103.827 243.184 106.065L265.512 118.308L269.321 116.86L278.647 73.3491Z" fill="url(#paint10_linear_131_13)"/>
<path fill-rule="evenodd" clip-rule="evenodd" d="M298.808 68.7413L290.205 125.812L290.927 125.878L292.897 125.088C295.064 124.233 296.246 121.929 296.575 119.691L303.93 66.7007C304.39 63.4752 303.405 60.0522 301.631 57.3533C300.646 55.9052 299.399 54.5228 297.888 53.7329L258.748 32.2736C257.237 31.4179 255.464 31.0887 253.757 31.747L251.984 32.4053C251.064 32.7344 250.802 32.9977 250.802 33.0635C251.721 40.7652 299.99 60.7763 298.808 68.7413Z" fill="#D0E7FF"/>
<path fill-rule="evenodd" clip-rule="evenodd" d="M295.918 54.4569L256.778 32.9976C255.004 32.0102 253.231 31.8786 251.786 32.4052C249.948 33.1293 248.503 35.0382 248.109 37.8029L240.754 90.7929C240.031 95.7299 242.724 101.523 246.795 103.761L285.936 125.22C290.007 127.458 293.882 125.286 294.604 120.415L301.96 67.4247C302.682 62.5535 299.924 56.7608 295.918 54.4569Z" fill="white"/>
<path fill-rule="evenodd" clip-rule="evenodd" d="M295.918 54.4569L256.778 32.9976C255.005 32.0102 253.232 31.8786 251.787 32.4052C249.948 33.1293 248.503 35.0382 248.109 37.8029L242.264 79.9974L296.115 109.553L301.96 67.4247C302.682 62.5535 299.924 56.7608 295.918 54.4569Z" fill="url(#paint11_linear_131_13)"/>
<path opacity="0.25" fill-rule="evenodd" clip-rule="evenodd" d="M246.533 87.1066C246.664 86.1192 247.387 85.6584 248.175 86.1192L265.906 95.7298C266.694 96.1906 267.219 97.3755 267.088 98.3629L266.825 100.338C266.694 101.325 265.972 101.786 265.184 101.325L247.452 91.7144C246.664 91.2537 246.139 90.0688 246.27 89.0814L246.533 87.1066Z" fill="#6D6AFD"/>
<path opacity="0.25" fill-rule="evenodd" clip-rule="evenodd" d="M245.351 95.664C245.482 94.8083 246.139 94.4133 246.796 94.8082C256.843 100.272 273.261 109.158 283.309 114.622C283.966 115.017 284.491 116.07 284.36 116.926L284.163 118.637C284.032 119.493 283.375 119.888 282.718 119.493C272.67 114.029 256.252 105.143 246.205 99.6794C245.548 99.2844 245.022 98.2312 245.154 97.3755L245.351 95.664Z" fill="#6D6AFD"/>
<path fill-rule="evenodd" clip-rule="evenodd" d="M289.81 65.779L285.213 100.009L293.948 104.946L298.545 70.716L289.81 65.779ZM264.921 40.5018L258.813 86.251L267.548 91.1879L273.655 45.4388L264.921 40.5018ZM277.004 55.7735L285.739 60.7104L280.682 98.6263L271.948 93.6893L277.004 55.7735ZM250.21 44.7147L258.945 49.6517L254.348 83.8812L245.613 78.9443L250.21 44.7147Z" fill="#4A9EF8"/>
<path opacity="0.5" fill-rule="evenodd" clip-rule="evenodd" d="M248.372 58.0773C248.11 57.814 248.241 57.419 248.504 57.2215C248.832 56.9582 249.292 56.9582 249.489 57.2215L257.369 65.1207L261.507 66.7005L271.095 64.1333L277.596 57.4848C277.859 57.2215 278.319 57.0899 278.647 57.2874C278.713 57.3532 278.778 57.3532 278.778 57.419L290.205 70.9792L298.086 72.4274C298.48 72.3615 298.808 72.6248 298.742 72.954C298.742 73.2831 298.348 73.6122 297.954 73.6122L289.745 72.164C289.483 72.164 289.286 72.0982 289.154 71.9666L277.99 58.7355L271.948 64.9232C271.817 65.0548 271.686 65.1207 271.489 65.1865L261.375 67.8854C261.244 67.9512 261.047 67.9512 260.915 67.8854L256.515 66.1739C256.45 66.1739 256.318 66.1081 256.253 66.0422L248.372 58.0773Z" fill="#4164F3"/>
<path fill-rule="evenodd" clip-rule="evenodd" d="M248.307 58.2748C248.11 58.0115 248.175 57.5508 248.504 57.2216C248.832 56.9583 249.292 56.8925 249.489 57.2216L257.172 66.5689L261.244 68.4779L270.898 65.5815L277.531 57.8141C277.793 57.4849 278.253 57.4191 278.581 57.6166C278.647 57.6824 278.713 57.7482 278.713 57.7482L289.154 73.349L298.086 72.4275C298.48 72.3616 298.743 72.6908 298.743 73.0857C298.677 73.4807 298.349 73.8756 297.955 73.8756L288.629 74.863C288.366 74.863 288.169 74.7972 288.038 74.5997L277.859 59.3939L271.686 66.5689C271.554 66.7006 271.423 66.8322 271.226 66.8322L261.047 69.8602C260.916 69.9261 260.719 69.9261 260.587 69.8602L256.253 67.8196C256.187 67.8196 256.056 67.7538 255.99 67.6221L248.307 58.2748Z" fill="white"/>
<path opacity="0.5" fill-rule="evenodd" clip-rule="evenodd" d="M149.339 39.1853L165.888 46.8211C169.828 49.125 171.01 56.4976 170.354 61.5003L167.004 86.3168C166.348 91.2537 162.604 93.426 158.664 91.1221L143.625 81.9723L144.216 77.8252L149.339 39.1853Z" fill="url(#paint12_linear_131_13)"/>
<path fill-rule="evenodd" clip-rule="evenodd" d="M107.702 20.8856C107.899 19.24 107.44 18.1867 108.293 17.2652C108.819 16.6727 110.461 15.8828 111.183 15.6195C112.496 15.0929 114.138 15.2904 115.78 16.2119L163.129 43.9247C166.938 46.1628 169.5 51.8239 168.909 56.5633L165.691 80.524C165.494 81.9722 164.968 83.8812 163.72 85.0002C162.801 85.7901 161.291 86.58 160.24 86.7117C159.123 86.8434 158.861 85.856 157.679 85.1319L110.329 57.4191C106.52 55.181 103.893 49.52 104.55 44.7805L107.702 20.8856Z" fill="#D0E7FF"/>
<path fill-rule="evenodd" clip-rule="evenodd" d="M106.389 21.6757C107.046 16.8704 110.592 14.8298 114.401 17.0021L161.751 44.7148C165.559 46.9529 168.186 52.614 167.53 57.3534L164.312 81.3141C163.655 86.1195 160.109 88.1601 156.3 85.9878L108.95 58.275C105.141 56.0369 102.515 50.3759 103.171 45.6364L106.389 21.6757Z" fill="white"/>
<path fill-rule="evenodd" clip-rule="evenodd" d="M106.39 21.6757C107.046 16.8704 110.593 14.8298 114.402 17.0021L161.751 44.7148C165.56 46.9529 168.187 52.614 167.53 57.3534L167.202 59.5915C166.808 59.2624 166.348 58.9991 165.954 58.7358L106.061 23.6505L106.39 21.6757Z" fill="url(#paint13_linear_131_13)"/>
<path opacity="0.2" fill-rule="evenodd" clip-rule="evenodd" d="M114.796 36.3547C119.59 37.4738 123.333 43.2007 123.071 49.1908C122.808 55.181 118.671 59.1306 113.877 58.0115C109.082 56.8925 105.339 51.1656 105.602 45.1754C105.865 39.1853 109.936 35.2357 114.796 36.3547Z" fill="#6D6AFD"/>
<path fill-rule="evenodd" clip-rule="evenodd" d="M114.533 41.3575C117.16 41.95 119.13 45.0438 118.999 48.2693C118.867 51.4948 116.635 53.667 114.073 53.0088C111.447 52.4163 109.476 49.3225 109.608 46.097C109.739 42.8715 111.972 40.7651 114.533 41.3575ZM114.467 44.1222C113.088 43.7931 111.906 44.9121 111.841 46.6895C111.775 48.4009 112.826 50.0466 114.205 50.3757C115.584 50.7048 116.766 49.5858 116.832 47.8085C116.897 46.097 115.847 44.4514 114.467 44.1222Z" fill="url(#paint14_linear_131_13)"/>
<path opacity="0.2" fill-rule="evenodd" clip-rule="evenodd" d="M125.96 47.8744C126.158 46.6237 127.077 46.0313 128.128 46.6895L159.059 64.2651C160.044 64.8575 160.767 66.3715 160.57 67.688L160.241 70.1894C160.044 71.4401 159.125 72.0326 158.074 71.3743L127.143 53.7987C126.158 53.2063 125.435 51.6923 125.632 50.3758L125.96 47.8744Z" fill="#6D6AFD"/>
<path opacity="0.2" fill-rule="evenodd" clip-rule="evenodd" d="M124.778 57.1558C124.844 56.4317 125.435 56.1026 126.026 56.4317L144.282 66.8322C144.873 67.1614 145.267 68.0829 145.202 68.8728L145.005 70.3868C144.873 71.1109 144.348 71.4401 143.757 71.1109L125.435 60.6446C124.844 60.3154 124.45 59.3939 124.515 58.604L124.778 57.1558Z" fill="#6D6AFD"/>
<path fill-rule="evenodd" clip-rule="evenodd" d="M111.578 19.5692C112.628 19.8325 113.417 21.0832 113.351 22.3997C113.285 23.7162 112.431 24.572 111.315 24.3087C110.264 24.0454 109.476 22.7947 109.542 21.4781C109.608 20.2274 110.527 19.3059 111.578 19.5692Z" fill="white"/>
<path fill-rule="evenodd" clip-rule="evenodd" d="M116.371 22.3339C117.422 22.5972 118.21 23.8479 118.145 25.1644C118.079 26.4809 117.225 27.3366 116.109 27.0733C115.058 26.81 114.27 25.5593 114.336 24.2428C114.401 22.9263 115.321 22.0705 116.371 22.3339Z" fill="white"/>
<path fill-rule="evenodd" clip-rule="evenodd" d="M121.56 25.3618C122.611 25.6251 123.399 26.8758 123.333 28.1923C123.267 29.5089 122.414 30.3646 121.297 30.1013C120.246 29.838 119.458 28.5873 119.524 27.2708C119.59 25.9542 120.509 25.0985 121.56 25.3618Z" fill="white"/>
<path opacity="0.5" fill-rule="evenodd" clip-rule="evenodd" d="M42.0981 247.064L74.737 228.436C78.2833 226.79 83.4057 225.539 87.0177 227.382C90.3012 229.094 95.752 232.648 98.1819 234.031C100.021 235.084 106.325 238.902 102.385 241.008C90.7609 247.328 79.2684 254.503 67.4474 260.888C65.2146 262.073 61.931 262.533 58.5161 262.27C55.1012 262.007 51.6205 261.019 48.8623 259.374C46.8922 258.255 44.9877 257.136 43.0832 256.017C40.522 254.503 39.1429 252.725 39.0116 251.146C38.8802 249.566 39.8653 248.052 42.0981 247.064Z" fill="#2940CC"/>
<path fill-rule="evenodd" clip-rule="evenodd" d="M119.788 128.775C119.526 128.709 119.263 128.643 119 128.577C119.263 128.511 119.526 128.511 119.657 128.446C120.839 127.787 121.43 127.458 122.809 126.471C121.89 124.562 119.526 126.537 119.066 126.602C118.869 126.602 117.687 126.405 116.505 126.339C114.797 126.273 113.746 126.602 112.63 127.919C112.105 128.314 111.514 128.775 110.857 129.235C110.988 130.815 111.185 132.132 112.17 133.514C112.499 133.383 112.761 133.317 113.09 133.251C114.272 133.119 115.454 133.383 118.081 134.304C120.773 135.226 121.233 135.16 125.37 132.198C128.391 130.025 130.033 128.775 129.508 127.195C128.326 123.443 123.532 128.248 119.788 128.775Z" fill="#FFA698"/>
<path fill-rule="evenodd" clip-rule="evenodd" d="M119.46 132.658C116.899 132.263 115.125 130.091 112.958 131.342C112.433 131.671 111.973 131.934 111.513 132.263C111.71 132.658 111.907 133.053 112.17 133.448C112.499 133.317 112.761 133.251 113.09 133.185C114.272 133.053 115.454 133.317 118.081 134.238C120.773 135.16 121.233 135.094 125.37 132.132C127.406 130.684 128.785 129.63 129.376 128.643C129.639 128.182 128.851 127.59 128.194 128.05C124.845 130.486 123.203 132.132 119.46 132.658Z" fill="url(#paint15_linear_131_13)"/>
<path fill-rule="evenodd" clip-rule="evenodd" d="M128.654 127.195C127.537 128.05 121.627 130.815 120.248 130.486C119.854 130.42 119.919 129.696 119.919 128.775C119.657 129.367 119.985 130.683 119.394 130.42C116.242 128.775 114.862 128.511 113.024 129.696C114.271 129.433 115.454 129.564 116.636 129.959C117.752 130.354 118.737 131.013 119.919 131.276C122.94 130.42 124.845 130.091 128.654 127.195Z" fill="url(#paint16_linear_131_13)"/>
<path fill-rule="evenodd" clip-rule="evenodd" d="M86.2291 143.651C85.5724 142.993 84.9813 142.335 84.5873 141.94C81.3694 138.912 76.05 129.235 73.0947 114.688C74.1455 113.832 77.3634 112.976 77.9544 112.845C80.45 112.318 82.6171 113.7 83.3395 114.556C84.653 116.136 86.0321 119.032 86.8858 123.64C87.4769 126.734 89.7754 130.881 91.3515 134.765C91.4172 134.962 91.4828 135.094 91.5485 135.291C94.1754 133.909 96.9993 132.724 98.444 132.198C101.531 130.947 105.077 129.762 108.952 128.643C109.411 128.511 109.805 128.84 110.265 128.709C110.528 128.577 111.644 128.182 111.841 128.116C111.841 130.42 112.432 132.263 113.746 133.712C113.483 133.777 112.301 134.37 112.038 134.436C111.644 134.633 111.25 135.226 110.922 135.489C108.032 138.451 99.6918 142.927 92.0082 145.297C89.25 146.153 87.2798 145.692 86.2291 143.651Z" fill="url(#paint17_linear_131_13)"/>
<path opacity="0.35" fill-rule="evenodd" clip-rule="evenodd" d="M86.2293 143.651C85.5726 142.993 84.9816 142.335 84.5875 141.94C81.3696 138.912 76.0502 129.235 73.095 114.688C79.5308 109.422 85.704 118.111 86.7547 123.904C88.1338 131.408 89.4472 137.859 89.5129 145.626C88.0025 145.626 86.9517 144.968 86.2293 143.651Z" fill="#3469C0"/>
<path fill-rule="evenodd" clip-rule="evenodd" d="M56.5464 237.585C56.3494 238.243 56.4808 238.77 56.1524 239.626C55.824 240.482 55.43 241.403 55.1017 242.917C54.5763 245.221 55.2987 248.249 54.5763 251.474C54.1823 252.791 54.2479 253.778 55.1017 254.897C55.9554 256.017 57.5315 257.794 59.5673 257.728C60.027 257.728 61.0121 257.531 61.7345 256.675C62.5226 255.753 63.1136 254.503 63.0479 252.857C62.9823 252.264 62.6539 250.29 62.7196 248.447C62.7853 246.867 63.0479 246.011 63.0479 244.299C62.9823 242.456 62.8509 239.955 62.8509 238.77L56.5464 237.585Z" fill="#193161"/>
<path fill-rule="evenodd" clip-rule="evenodd" d="M74.6716 228.238C74.0806 229.883 73.6865 230.542 73.6865 232.78C74.0806 233.965 74.8686 234.425 75.8537 235.281L76.5104 235.413C78.1522 236.269 78.7433 239.428 80.2537 240.811C81.3045 241.798 83.4716 242.325 85.5731 242.785C87.806 243.246 89.9731 242.588 89.3821 240.811C87.9373 236.4 81.6328 231.397 81.5015 226.46L74.6716 228.238Z" fill="#193161"/>
<path fill-rule="evenodd" clip-rule="evenodd" d="M84.1284 196.773C83.997 205.264 82.1582 221.063 82.4209 229.423C80.2537 231.595 75.9194 230.937 74.5403 228.698C73.6866 220.997 72.6358 210.135 72.5701 205.923C72.5045 202.434 72.7671 199.208 73.6865 196.049C72.4388 186.767 67.1194 174.129 68.3671 165.44C68.8925 161.622 71.4537 157.475 72.1761 154.315C78.4806 162.082 83.2746 158.33 85.8358 157.672C85.8358 160.371 86.0328 159.976 85.9672 162.807C85.7045 172.351 85.2448 182.554 84.7194 192.428C84.6537 193.942 84.5224 195.588 84.1284 196.773Z" fill="url(#paint18_linear_131_13)"/>
<path opacity="0.3" fill-rule="evenodd" clip-rule="evenodd" d="M73.0955 213.888C72.8328 210.531 72.5701 207.634 72.5701 205.857C72.5045 202.368 72.7671 199.143 73.6865 195.983C72.4388 186.702 67.1194 174.063 68.3671 165.374C68.8925 161.556 71.4537 157.409 72.1761 154.249C78.4806 162.017 83.2746 158.265 85.8358 157.607C85.8358 157.936 85.8358 158.199 85.8358 158.396L77.5612 164.518L79.597 164.057C79.5313 175.05 78.1522 185.056 77.9552 195.917C75.8537 202.039 74.606 207.305 73.0955 213.625V213.888Z" fill="#1E2353"/>
<path fill-rule="evenodd" clip-rule="evenodd" d="M70.0745 202.895C68.5641 211.386 64.1641 231.858 63.1133 240.218C60.4208 241.732 56.9402 240.942 55.9551 238.704C55.9551 231.003 55.9551 217.245 56.5461 213.032C57.0058 209.543 58.2536 204.146 59.6327 200.986C59.1073 181.238 56.8745 175.972 59.567 167.217C60.7491 163.399 63.77 159.713 65.0178 156.553C66.7253 159.121 69.2865 162.873 74.8686 162.412C75.3939 162.346 80.0566 159.055 81.6328 158.66C79.6626 170.443 74.0805 185.78 71.3223 198.616C71.1253 200.064 70.7312 201.71 70.0745 202.895Z" fill="url(#paint19_linear_131_13)"/>
<path fill-rule="evenodd" clip-rule="evenodd" d="M78.8085 112.713C79.3996 112.779 79.9906 112.976 80.5817 113.306C84.719 115.609 86.1638 122.39 86.8205 128.38C87.4115 133.58 86.9518 137.859 86.8205 142.598C86.6892 146.35 87.1489 149.839 87.0175 153.459C86.9518 154.513 86.5578 155.632 86.4265 156.817C86.4265 157.607 86.1638 158.396 86.1638 159.055C84.0623 167.02 64.4264 167.678 61.6025 162.28C61.7996 161.49 62.0622 160.7 62.1279 159.845C60.2891 158.133 61.3398 154.052 61.0772 151.156C60.8801 148.983 60.5518 146.811 59.8951 145.231C57.2025 138.649 53.4592 133.58 52.7368 128.511C52.2115 125.023 56.6771 120.678 62.5219 117.189C68.104 113.701 75.7876 111.857 78.8085 112.713Z" fill="url(#paint20_linear_131_13)"/>
<path fill-rule="evenodd" clip-rule="evenodd" d="M60.8805 161.885C61.7999 162.346 63.4417 162.741 64.0984 163.136C64.4268 163.333 66.9223 164.65 68.3014 165.44C69.8119 166.295 70.2716 167.678 71.2566 169.192C71.979 170.443 72.2417 171.298 72.3731 171.957C72.5044 172.615 70.9283 173.931 70.2059 173.865C68.5641 173.602 66.8566 171.759 66.3969 171.562C62.7193 169.916 61.0118 169.85 59.6327 168.468C59.0417 167.875 58.582 166.032 57.3342 164.452L59.3701 162.346L60.8805 161.885Z" fill="url(#paint21_linear_131_13)"/>
<path fill-rule="evenodd" clip-rule="evenodd" d="M52.3427 126.01C49.0591 131.276 46.6949 140.887 43.8054 147.403C43.6083 147.93 43.477 148.391 43.4113 148.786C42.8859 150.431 43.7397 151.748 44.8561 153.196C47.6143 156.685 49.7815 159.845 55.3636 164.057C55.7576 164.387 56.2173 164.387 56.8084 164.518C57.1367 164.782 57.6621 165.242 58.0561 165.506C57.5964 164.979 60.0263 161.885 61.2741 162.017C60.9457 161.622 60.6173 161.227 60.2233 160.832C60.1576 160.305 60.092 159.91 59.8949 159.45C58.9099 157.541 55.6263 152.867 52.474 149.576C53.7875 147.864 54.9039 145.889 55.8233 144.507C57.4651 142.006 58.9099 139.439 60.1576 137.003C60.683 136.016 60.9457 135.489 61.4711 134.502C65.083 126.866 56.3487 119.625 52.3427 126.01Z" fill="url(#paint22_linear_131_13)"/>
<path fill-rule="evenodd" clip-rule="evenodd" d="M75.9853 116.597C76.051 116.268 76.1166 115.939 76.1823 115.609C76.3793 114.622 76.1166 112.779 76.3793 110.541L67.9733 106.986C67.842 111.726 67.0539 112.713 66.2002 116.531C66.2659 120.349 75.7226 121.995 75.9196 117.584C75.854 117.255 75.9196 116.926 75.9853 116.597Z" fill="#FFA698"/>
<path fill-rule="evenodd" clip-rule="evenodd" d="M75.9847 116.597C76.0504 116.268 76.116 115.939 76.1817 115.609C76.3787 114.622 76.116 112.779 76.3787 110.541L67.9727 106.986C67.9727 108.039 67.9071 108.961 67.7757 109.685C67.4474 112.845 70.4683 118.308 75.8534 117.584C75.8534 117.255 75.919 116.926 75.9847 116.597Z" fill="url(#paint23_linear_131_13)"/>
<path fill-rule="evenodd" clip-rule="evenodd" d="M76.4451 116.399C75.3943 115.741 72.5704 114.03 71.651 113.306C69.6152 111.792 69.8779 109.948 69.2868 106.92C67.3824 105.538 66.7913 104.485 66.5943 103.3C66.2003 100.404 67.8421 97.3099 70.0092 95.5984C71.9137 94.0844 74.1465 93.6894 76.6421 94.216C81.5018 95.2693 83.4719 98.9555 83.7346 103.103C83.7346 103.432 83.7346 103.761 83.6033 104.156C83.3406 105.012 83.2749 105.143 83.1436 105.736C82.8809 106.986 83.7346 107.447 83.4063 108.961C82.9466 111.068 81.2391 115.149 80.5167 115.807C79.9257 116.399 77.4958 116.531 76.4451 116.399Z" fill="#FFA698"/>
<path fill-rule="evenodd" clip-rule="evenodd" d="M83.4718 101.325C83.6031 101.918 83.6688 102.51 83.7345 103.168C83.7345 103.497 83.7345 103.827 83.6031 104.222C83.3404 105.077 83.2748 105.209 83.1434 105.801C82.8807 107.052 83.7345 107.513 83.4061 109.027C83.2091 110.08 82.6837 111.528 82.0927 112.911C79.0061 115.28 76.2479 112.384 75.8538 111.857C73.8837 109.356 73.7523 105.604 75.1971 102.049C77.4956 102.708 81.1076 102.576 83.4718 101.325Z" fill="url(#paint24_linear_131_13)"/>
<path fill-rule="evenodd" clip-rule="evenodd" d="M65.2804 101.918C65.4117 103.498 66.6595 107.645 67.5789 109.159C68.564 110.738 68.1043 108.829 68.6296 107.71C69.0237 106.855 70.3371 106.789 70.7311 105.933C70.9281 106.657 71.1908 107.381 71.6505 107.645C71.9789 107.776 72.5699 108.04 72.5699 107.184C72.6356 104.222 74.0804 104.024 73.6207 102.247C73.2923 100.93 73.358 100.338 73.6864 99.8771C74.6714 100.009 75.2625 100.996 76.3789 101.523C77.167 101.852 80.6476 102.247 83.1431 100.865C85.5073 99.548 85.77 96.6516 83.7341 94.7427C82.6177 93.6895 81.37 93.4262 79.5968 92.2413C76.2476 90.0032 72.1102 90.7931 69.8117 93.2945C65.4774 94.1502 64.952 98.3631 65.2804 101.918Z" fill="#562E65"/>
<path fill-rule="evenodd" clip-rule="evenodd" d="M69.9431 104.419C68.1043 103.563 67.9073 105.801 68.0386 107.118C68.17 108.039 68.8924 108.039 69.0894 108.764C69.3521 109.619 69.9431 110.08 70.5342 110.146C71.7162 110.212 71.1252 108.434 71.0595 107.776C71.3222 106.723 71.0595 104.946 69.9431 104.419Z" fill="#FFA698"/>
<path fill-rule="evenodd" clip-rule="evenodd" d="M74.9345 98.363C74.7375 99.6137 76.3793 101.062 78.6121 101.194C80.7136 101.325 83.4718 100.799 84.5226 98.2972C84.9166 97.4414 84.4569 95.7958 83.4061 95.2033C82.6838 94.7426 81.83 94.8084 80.9106 95.2033C79.4002 95.8616 78.0867 97.5731 76.9703 98.0339C75.9852 98.4288 74.9345 98.2313 74.9345 98.363Z" fill="url(#paint25_linear_131_13)"/>
<path fill-rule="evenodd" clip-rule="evenodd" d="M283.967 130.091C281.077 129.63 278.844 131.605 277.662 134.304C276.349 137.398 276.349 141.413 276.94 143.52C278.844 150.366 275.495 153.328 274.313 156.553C273.788 157.936 273.525 159.779 273.591 161.819C273.656 164.255 275.101 165.506 276.283 167.744C276.612 169.982 277.137 172.088 277.991 173.8C281.209 180.316 292.11 183.41 302.552 182.95C310.892 182.555 318.97 179.592 322.648 176.169C326.654 172.417 327.179 162.938 320.415 161.951C318.839 161.753 317 161.359 315.686 159.779C314.767 158.66 315.686 155.697 315.883 151.748C316.08 147.93 315.227 143.915 309.71 142.598C307.609 142.071 305.507 141.874 303.8 140.689C299.925 138.122 301.37 133.448 297.167 130.684C294.671 129.038 290.6 128.643 286.134 129.894C285.412 129.894 284.689 130.025 283.967 130.091Z" fill="url(#paint26_linear_131_13)"/>
<path fill-rule="evenodd" clip-rule="evenodd" d="M281.471 133.646C281.209 135.489 281.931 137.135 282.982 138.714C285.543 142.335 286.922 142.072 288.301 146.679C290.6 145.1 292.176 144.902 292.898 146.416C293.949 148.852 293.292 150.3 293.555 152.801C293.949 156.882 298.874 151.287 302.683 154.447C306.492 157.541 303.865 159.713 305.31 164.123C305.836 165.769 306.295 167.941 307.806 168.665C312.534 170.903 314.373 176.564 305.901 179.395C300.648 181.172 293.03 180.711 286.725 178.539C278.319 175.643 273.131 163.267 275.298 157.343C276.152 154.908 278.582 153.064 278.582 151.155C278.647 144.639 277.4 140.426 281.471 133.646Z" fill="#22043D"/>
<path fill-rule="evenodd" clip-rule="evenodd" d="M243.381 139.438C242.133 139.833 242.79 141.347 243.25 141.742C243.972 142.466 245.483 142.927 245.351 143.717C245.22 144.573 250.014 146.284 250.014 146.153C249.292 143.783 248.044 142.401 247.781 142.269C245.22 140.623 245.548 141.742 243.381 139.438Z" fill="url(#paint27_linear_131_13)"/>
<path fill-rule="evenodd" clip-rule="evenodd" d="M246.731 149.378C249.489 153.064 251.656 160.174 254.48 163.531C255.334 164.584 256.647 166.295 258.158 166.032C266.038 164.65 258.88 161.622 259.734 159.45C258.421 154.842 252.773 152.209 250.474 147.074C250.343 146.679 250.212 146.35 250.08 146.021C249.095 144.046 248.241 143.454 244.498 142.796C243.447 142.598 243.053 142.203 242.397 141.677L239.967 139.241C239.179 138.583 238.522 138.385 238.128 138.517C237.734 138.714 236.749 140.623 236.749 141.677C236.618 142.071 237.012 142.796 237.997 143.52L241.018 147.733L241.28 147.798C244.564 148.391 245.943 148.72 246.731 149.378Z" fill="#FFA698"/>
<path fill-rule="evenodd" clip-rule="evenodd" d="M259.34 167.612C264.79 167.085 272.54 166.23 276.808 164.057C279.567 162.675 284.492 156.553 281.734 153.196C281.143 151.616 275.889 154.908 273.328 155.895C268.665 157.672 265.579 158.528 260.719 159.779C259.405 156.092 255.925 153.13 253.167 149.707C252.707 149.115 252.247 148.72 251.656 148.457C251.328 148.062 251.065 147.601 250.802 147.14C250.343 146.943 247.387 148.193 246.599 149.642C246.796 149.905 247.256 150.563 247.453 150.892C247.716 151.353 247.65 151.88 247.913 152.406C248.701 154.184 252.444 161.819 254.94 164.847C255.859 165.966 257.304 168.007 258.946 167.744C259.077 167.678 259.208 167.678 259.34 167.612Z" fill="url(#paint28_linear_131_13)"/>
<path opacity="0.5" fill-rule="evenodd" clip-rule="evenodd" d="M259.34 167.612C264.791 167.085 272.54 166.23 276.809 164.057C279.173 162.807 283.179 158.133 282.456 154.71C281.406 153.723 280.815 153.262 279.961 153.262C278.91 153.328 277.597 154.447 275.036 155.763C271.227 157.738 267.68 157.804 264.725 161.293C262.558 163.86 258.946 166.098 255.859 165.966C256.713 166.954 257.764 167.875 258.88 167.678C259.077 167.678 259.209 167.678 259.34 167.612Z" fill="#7E41DF"/>
<path opacity="0.5" fill-rule="evenodd" clip-rule="evenodd" d="M264.397 296.631L298.677 277.081C302.421 275.369 307.74 273.987 311.549 275.962C315.03 277.739 320.743 281.491 323.239 282.939C325.143 284.058 331.842 288.008 327.639 290.312C315.424 296.96 303.34 304.464 290.994 311.179C288.63 312.429 285.215 312.89 281.603 312.627C277.991 312.298 274.313 311.31 271.424 309.599C269.388 308.414 267.352 307.229 265.316 306.044C262.623 304.464 261.179 302.621 261.047 300.91C261.047 299.264 262.098 297.684 264.397 296.631Z" fill="#2940CC"/>
<path fill-rule="evenodd" clip-rule="evenodd" d="M301.108 268.655C300.911 269.445 301.436 270.63 301.502 270.761C303.472 273.658 301.108 273.395 301.239 277.542C301.239 277.937 299.597 284.453 299.597 284.453C299.597 284.453 295.657 285.441 295.329 285.375C295.066 285.309 292.636 284.387 292.636 284.387C292.833 284.058 293.096 283.203 293.293 282.873C294.409 280.635 295.066 277.937 295.46 275.238C295.723 273.46 296.314 270.63 295.92 268.787L301.108 268.655Z" fill="#FFA698"/>
<path fill-rule="evenodd" clip-rule="evenodd" d="M292.505 284.322C291.979 285.375 291.651 286.099 291.388 286.955C291.257 287.35 291.257 287.745 291.454 288.008C292.373 289.324 297.167 287.152 298.809 285.77C299.86 284.914 299.926 283.795 300.188 282.544C300.648 280.57 300.714 280.372 301.239 278.332L301.567 283.861L302.027 284.124C302.224 281.886 302.552 278.924 302.946 277.015C303.078 276.225 303.406 275.369 303.406 274.974C303.669 272.473 302.487 271.222 301.37 270.498C301.764 272.012 300.385 274.448 299.794 277.542C299.072 281.36 295.788 284.388 292.505 284.322Z" fill="#161F69"/>
<path fill-rule="evenodd" clip-rule="evenodd" d="M274.97 192.626C275.364 194.337 273.591 200.196 274.051 202.434C274.445 209.872 275.758 216.126 280.749 230.937C280.749 231.134 285.281 240.152 285.609 241.14C288.696 250.816 292.57 261.348 295.854 271.091C297.102 272.012 300.779 271.749 301.239 269.445C300.254 259.703 301.305 250.026 299.663 243.378C298.415 238.309 296.708 235.94 294.015 232.187C293.161 222.577 292.57 203.356 290.403 195.983L274.97 192.626Z" fill="url(#paint29_linear_131_13)"/>
<path opacity="0.3" fill-rule="evenodd" clip-rule="evenodd" d="M274.97 192.626C275.364 194.337 276.481 197.431 276.875 199.735C278.254 203.158 281.209 207.832 283.179 211.716C283.77 216.455 283.573 222.774 286.594 231.595L289.287 252.001C291.52 258.386 293.818 264.903 295.92 271.091C297.167 272.012 300.845 271.749 301.305 269.445C300.32 259.703 301.37 250.026 299.728 243.378C298.481 238.309 296.773 235.94 294.081 232.187C293.227 222.577 292.636 203.356 290.469 195.983L274.97 192.626Z" fill="#1E2353"/>
<path fill-rule="evenodd" clip-rule="evenodd" d="M297.167 278.595C297.102 279.516 297.496 280.438 297.561 281.294C297.693 282.676 297.89 284.19 297.824 286.099C297.758 288.469 297.561 291.299 296.773 294.722C296.51 295.907 295.985 296.434 295.591 298.079L288.499 299.264C289.221 296.565 290.14 291.168 290.863 286.626L292.242 278.134L297.167 278.595Z" fill="#FFA698"/>
<path fill-rule="evenodd" clip-rule="evenodd" d="M297.561 280.833C297.955 282.281 298.415 283.005 298.481 284.98C298.546 286.889 297.627 289.917 297.693 292.352L297.824 296.17C297.89 298.408 297.299 299.922 294.803 301.766C292.505 303.411 290.337 304.135 289.09 303.543C288.17 303.082 287.514 301.568 288.827 297.421C289.943 293.998 290.272 290.575 290.928 286.823C290.666 290.509 290.6 291.76 289.746 295.315C289.484 296.302 289.352 298.013 290.534 298.145C295.46 298.869 295.722 297.553 296.117 295.973C297.233 291.892 298.021 284.651 297.561 280.833Z" fill="#161F69"/>
<path fill-rule="evenodd" clip-rule="evenodd" d="M299.335 198.484C304.785 205.33 304.982 209.148 303.735 217.442C302.947 222.972 301.305 229.686 300.911 239.362C301.371 244.365 302.29 249.96 301.568 257.794C301.042 263.521 299.466 273.329 298.218 280.306C297.102 282.478 291.717 281.491 290.797 280.438C291.06 270.498 290.863 263.652 290.403 255.621C289.944 247.788 289.024 240.547 288.433 232.846C287.974 226.46 286.003 217.771 285.741 210.926C284.69 207.7 275.036 196.905 277.006 197.036L299.335 198.484Z" fill="url(#paint30_linear_131_13)"/>
<path fill-rule="evenodd" clip-rule="evenodd" d="M298.678 182.95C296.248 188.676 300.386 191.836 298.875 195.72L299.335 198.353C294.869 201.578 278.78 201.842 274.774 195.391L274.708 192.165C273.985 190.651 274.445 186.767 274.642 185.714C275.299 182.489 274.971 180.777 275.365 177.025C275.43 176.104 275.627 175.511 275.693 174.524C272.147 171.825 272.344 166.691 274.445 163.531C275.759 161.556 276.547 160.174 277.203 158.594C277.4 157.409 277.597 156.422 277.794 155.763C277.926 155.237 278.254 154.71 278.517 154.249C279.568 152.801 281.209 152.604 284.559 153.394C291.257 154.908 298.153 158.396 301.174 161.688C303.406 164.057 303.341 166.691 302.027 172.417C301.371 176.301 299.926 180.053 298.678 182.95Z" fill="url(#paint31_linear_131_13)"/>
<path opacity="0.5" fill-rule="evenodd" clip-rule="evenodd" d="M298.743 182.95C296.314 188.676 300.385 191.902 298.875 195.852L299.334 198.485C294.869 201.973 278.779 201.842 274.773 195.391L274.839 192.626C274.839 192.494 282.719 199.669 291.717 195.654C293.687 194.798 295.46 190.52 292.899 182.357C292.636 181.567 289.812 181.501 285.74 178.539C288.761 179.79 294.343 181.567 294.672 173.931C294.803 170.508 295.328 167.941 297.036 165.572C297.89 164.452 302.815 170.443 302.093 173.339C301.108 177.025 299.663 180.777 298.743 182.95Z" fill="#7E41DF"/>
<path fill-rule="evenodd" clip-rule="evenodd" d="M300.845 195.588C300.057 196.115 298.546 196.575 297.955 196.905C297.627 197.102 295.394 198.484 294.146 199.34C292.833 200.262 292.439 201.512 291.651 202.961C291.06 204.145 290.863 205.001 290.731 205.594C290.666 206.186 292.176 207.371 292.833 207.239C294.343 206.91 295.854 205.067 296.248 204.869C299.597 203.158 301.173 202.961 302.355 201.578C302.881 200.986 303.209 199.274 304.26 197.694L302.224 195.851L300.845 195.588Z" fill="url(#paint32_linear_131_13)"/>
<path fill-rule="evenodd" clip-rule="evenodd" d="M301.304 161.424C306.23 164.518 311.746 173.207 316.606 180.843C317.591 182.094 317.328 183.739 316.803 184.661C316.606 185.188 316.278 185.714 315.818 186.372C313.519 189.795 311.221 192.889 306.23 197.102C305.836 197.431 305.31 197.563 304.785 197.695C304.457 197.958 304.063 198.419 303.669 198.682C304.063 198.155 301.633 195.456 300.451 195.654C300.713 195.325 301.042 194.93 301.304 194.469C301.37 193.942 301.304 193.613 301.502 193.218C303.143 189.532 305.179 185.78 307.74 182.95C303.275 178.078 300.713 176.959 296.576 171.825C291.651 165.769 298.021 159.318 301.304 161.424Z" fill="url(#paint33_linear_131_13)"/>
<path fill-rule="evenodd" clip-rule="evenodd" d="M290.928 148.786C290.402 151.748 290.665 154.512 291.584 157.409C289.154 159.647 284.886 158.725 283.901 156.685C284.098 155.368 284.36 154.183 284.492 152.801L290.928 148.786Z" fill="#FFA698"/>
<path fill-rule="evenodd" clip-rule="evenodd" d="M290.928 148.786C290.665 150.234 290.599 151.55 290.731 152.933C290.008 155.763 284.689 157.738 284.098 155.434C284.229 154.578 284.426 153.657 284.492 152.735L290.928 148.786Z" fill="url(#paint34_linear_131_13)"/>
<path fill-rule="evenodd" clip-rule="evenodd" d="M281.011 136.279C279.829 138.188 279.173 140.097 279.435 142.861C279.501 143.585 279.435 143.98 279.238 144.441C278.122 147.008 278.187 147.798 278.778 149.839C279.304 151.814 279.304 152.867 279.961 153.525C280.683 154.249 281.668 154.381 282.587 154.447C284.361 154.578 287.447 153.393 289.286 152.406C290.599 151.682 290.534 151.155 291.125 149.905C293.029 148.259 291.781 147.074 291.125 146.943C289.352 146.613 289.023 148.654 287.973 149.115C288.104 145.429 281.143 139.241 281.011 136.279Z" fill="#FFA698"/>
<path fill-rule="evenodd" clip-rule="evenodd" d="M280.223 137.793C279.567 139.241 279.238 140.821 279.435 142.861C279.501 143.585 279.435 143.98 279.238 144.441C278.122 147.008 278.187 147.798 278.778 149.839C279.041 150.695 279.172 151.419 279.304 152.011C279.764 152.669 280.617 152.998 281.405 152.603C282.128 152.274 282.916 151.353 283.047 149.905C283.178 148.851 285.346 148.127 285.805 147.074C286.199 146.218 285.149 145.165 284.558 144.704C282.39 142.861 281.077 140.426 280.223 137.793Z" fill="url(#paint35_linear_131_13)"/>
<path fill-rule="evenodd" clip-rule="evenodd" d="M281.011 136.279C281.996 140.755 287.907 144.178 287.907 149.049C286.331 144.046 280.617 140.557 281.011 136.279Z" fill="#FF8F7F"/>
<path opacity="0.5" fill-rule="evenodd" clip-rule="evenodd" d="M90.958 341.459C106.194 332.638 130.821 332.638 145.925 341.459C161.095 350.28 160.964 364.564 145.728 373.384C130.492 382.205 105.865 382.205 90.7609 373.384C75.6564 364.63 75.7878 350.28 90.958 341.459Z" fill="#2940CC"/>
<path opacity="0.5" fill-rule="evenodd" clip-rule="evenodd" d="M203.914 346.33L163.854 323.488C159.52 321.513 153.215 319.868 148.815 322.238C144.744 324.344 138.111 328.688 135.156 330.334C132.923 331.585 125.108 336.259 129.967 338.957C144.218 346.725 158.338 355.48 172.851 363.379C175.609 364.893 179.615 365.419 183.818 365.09C188.021 364.761 192.29 363.511 195.705 361.536C198.135 360.153 200.499 358.771 202.797 357.389C205.95 355.546 207.592 353.373 207.789 351.398C207.854 349.358 206.606 347.515 203.914 346.33Z" fill="#2940CC"/>
<path fill-rule="evenodd" clip-rule="evenodd" d="M148.815 353.966L148.881 356.994C148.881 361.536 145.926 366.078 139.884 369.567C130.296 375.096 116.57 375.952 105.8 373.187C98.7077 371.344 88.0032 366.012 88.0032 357.191L87.9375 354.163L148.815 353.966Z" fill="#8141E7"/>
<path fill-rule="evenodd" clip-rule="evenodd" d="M96.9344 341.59C108.887 334.679 128.128 334.679 139.949 341.59C151.836 348.502 151.77 359.693 139.818 366.604C127.931 373.516 108.624 373.516 96.7374 366.604C84.9164 359.693 84.9821 348.502 96.9344 341.59Z" fill="url(#paint36_linear_131_13)"/>
<path fill-rule="evenodd" clip-rule="evenodd" d="M121.561 279.977V351.859C121.561 352.386 121.167 352.978 120.445 353.373C119.263 354.032 117.555 354.163 116.242 353.834C115.388 353.637 114.074 352.978 114.074 351.859V279.977H121.561Z" fill="#8141E7"/>
<path fill-rule="evenodd" clip-rule="evenodd" d="M157.418 294.788C153.741 304.267 151.705 317.564 149.472 327.964C149.144 329.215 148.487 330.729 146.845 331.585C144.218 332.901 141.329 332.638 140.606 330.729C140.672 320.987 140.081 313.812 140.344 308.48C140.672 302.49 142.905 293.406 145.203 289.917C146.976 281.82 161.293 284.914 157.418 294.788Z" fill="url(#paint37_linear_131_13)"/>
<path opacity="0.3" fill-rule="evenodd" clip-rule="evenodd" d="M157.746 293.669C157.615 294.064 157.483 294.459 157.352 294.788L157.221 295.183L157.155 295.249C156.564 296.895 155.973 298.606 155.448 300.449V300.515L155.316 300.976L155.251 301.107L155.185 301.437C152.755 309.994 151.113 320.197 149.34 328.359C148.421 316.116 150.457 303.872 153.674 293.274C153.871 290.444 153.74 287.942 153.477 285.638C156.498 286.56 158.928 289.39 157.746 293.669Z" fill="#1E2353"/>
<path fill-rule="evenodd" clip-rule="evenodd" d="M152.953 337.048C151.245 338.694 150.26 337.641 149.538 340.603C147.699 343.433 145.992 344.289 144.481 343.96C142.577 343.565 141.066 342.775 140.738 340.603C140.409 336.983 140.344 336.324 141.263 333.691L141.526 333.494C141.723 333.296 141.986 333.165 142.314 333.23C144.021 333.625 144.547 334.679 145.138 335.271C146.451 336.522 147.699 335.534 148.29 334.086V334.02V333.955V333.889V333.823V333.757V333.691V333.56V333.428C148.29 333.362 148.29 333.23 148.356 333.165V333.033V332.967V332.901V332.704V332.638V332.572V332.441V332.375V332.243C148.356 332.177 148.356 332.111 148.29 332.046C148.224 331.453 148.29 331.058 148.356 330.795C148.356 330.663 148.356 330.532 148.356 330.4C150.195 329.347 152.953 326.582 154.923 326.055C156.302 325.66 157.09 327.701 157.156 328.623C157.55 330.663 154.726 335.074 152.953 337.048Z" fill="white"/>
<path fill-rule="evenodd" clip-rule="evenodd" d="M148.159 329.544C148.093 331.585 148.224 333.823 146.714 335.008C145.4 336.061 143.168 336.456 141.789 334.35C141.197 333.494 141.263 331.98 141.066 330.071C141.066 331.519 148.224 330.927 148.159 329.544Z" fill="#FFA495"/>
<path fill-rule="evenodd" clip-rule="evenodd" d="M152.493 336.193C150.786 337.838 149.801 336.785 149.078 339.747C147.239 342.578 145.532 343.434 144.021 343.104C142.117 342.709 140.606 341.92 140.278 339.747C139.95 336.127 139.884 335.469 140.803 332.836L141.066 332.638C141.263 332.441 141.526 332.309 141.854 332.375C143.562 332.77 144.087 333.823 144.678 334.415C145.992 335.666 147.239 334.679 147.83 333.23V333.165V333.099V333.033V332.967V332.901V332.836V332.704V332.572C147.83 332.506 147.83 332.375 147.896 332.309V332.177V332.111V332.046V331.848V331.782V331.716V331.585V331.519V331.387C147.896 331.322 147.896 331.256 147.83 331.19C147.765 330.597 147.83 330.202 147.896 329.939C147.896 329.808 147.896 329.676 147.896 329.544C149.735 328.491 152.427 326.516 154.398 325.99C155.777 325.595 156.63 326.845 156.696 327.767C157.09 329.808 154.266 334.218 152.493 336.193Z" fill="#193161"/>
<path fill-rule="evenodd" clip-rule="evenodd" d="M155.185 326.253C155.711 326.78 156.761 326.45 157.287 327.701C157.287 326.911 156.499 325.726 155.645 325.726C155.448 325.726 154.923 326.055 155.185 326.253Z" fill="white"/>
<path fill-rule="evenodd" clip-rule="evenodd" d="M149.866 326.055C149.735 326.714 149.603 327.306 149.472 327.964C149.144 329.215 148.487 330.729 146.845 331.585C144.218 332.901 141.329 332.638 140.606 330.729C140.606 329.873 140.475 329.084 140.475 328.228C141.92 330.005 146.845 331.124 149.866 326.055Z" fill="url(#paint38_linear_131_13)"/>
<path fill-rule="evenodd" clip-rule="evenodd" d="M121.233 282.61C113.09 280.306 97.4599 289.061 82.7494 304.86C69.418 319.144 120.248 334.152 130.361 330.268C139.95 326.582 164.314 314.404 162.278 309.204C158.272 299.133 136.009 286.691 121.233 282.61Z" fill="#161D5C"/>
<path fill-rule="evenodd" clip-rule="evenodd" d="M127.8 283.993C120.51 284.256 112.367 283.993 105.866 286.362C99.8238 288.6 100.743 297.355 106.26 302.424C111.119 306.834 119.263 308.151 131.346 303.148C135.09 301.634 138.702 300.186 144.284 299.528C149.669 298.935 153.215 299.988 156.17 294.92C158.272 291.299 157.615 287.021 152.624 285.375C145.4 283.005 135.287 283.729 127.8 283.993Z" fill="url(#paint39_linear_131_13)"/>
<path fill-rule="evenodd" clip-rule="evenodd" d="M192.946 327.504C194.982 331.124 195.967 332.572 196.493 333.362C197.675 335.074 195.179 337.904 193.537 338.826C191.83 339.747 189.203 339.747 188.087 337.114C187.627 336.127 187.496 334.745 187.036 333.428C187.824 334.81 191.502 330.795 192.946 327.504Z" fill="#FFA495"/>
<path fill-rule="evenodd" clip-rule="evenodd" d="M190.451 338.628C191.305 338.431 196.362 340.274 196.624 333.823C200.236 334.745 206.147 331.848 209.43 331.914C210.021 331.914 211.006 331.256 211.335 331.585C212.254 332.638 213.371 334.284 211.926 335.864C210.875 336.983 208.576 338.76 206.935 339.747C205.293 340.801 202.403 342.512 200.367 343.368C198.135 344.289 197.084 344.619 196.427 345.54C195.311 346.462 194.129 346.988 193.341 347.054C191.764 347.186 189.794 346.659 188.547 345.079C188.153 344.553 187.627 342.117 187.561 340.471C187.496 339.155 187.89 337.575 188.087 336.127L190.451 338.628Z" fill="white"/>
<path fill-rule="evenodd" clip-rule="evenodd" d="M197.412 332.967C199.448 333.099 204.505 331.519 207.854 331.058C209.299 330.861 210.547 330.532 211.532 331.717C212.385 332.77 212.32 333.823 211.138 335.14C210.087 336.259 208.248 337.773 206.672 338.76C205.03 339.813 202.141 341.525 200.105 342.38C197.872 343.302 196.821 343.631 196.165 344.553C195.048 345.474 193.866 346.001 193.078 346.067C191.502 346.198 189.466 345.474 188.284 343.96C187.89 343.434 187.365 341.196 187.299 339.55C187.299 338.628 187.167 337.246 187.167 336.456C187.233 335.14 187.824 334.942 188.415 335.074C189.597 335.403 190.254 336.39 190.845 337.114C191.37 337.773 191.962 338.102 192.553 338.168C193.932 338.299 194.917 337.312 195.376 336.061C195.639 335.271 195.705 334.284 195.639 333.362C195.639 333.296 195.573 333.165 195.573 333.099C195.311 330.861 196.427 330.861 196.362 331.322C196.493 331.717 196.756 332.638 197.412 332.967Z" fill="#193161"/>
<path fill-rule="evenodd" clip-rule="evenodd" d="M210.547 331.519C210.744 332.375 211.86 331.519 212.189 333.626C212.911 332.638 211.729 331.256 210.941 331.058C210.744 330.993 210.35 330.927 210.547 331.519Z" fill="white"/>
<path fill-rule="evenodd" clip-rule="evenodd" d="M169.961 292.747C175.806 302.753 186.576 317.63 192.618 326.516C194.128 329.413 191.567 333.889 186.773 334.547C179.943 326.385 171.997 321.777 165.233 311.64C163.985 309.731 161.621 305.715 160.11 302.819C158.272 303.016 155.776 303.411 153.083 303.872C147.501 304.794 142.904 306.11 139.227 307.887C127.471 313.549 119.197 312.693 114.14 308.612C108.361 303.872 106.85 295.183 112.827 292.616C119.197 289.851 126.421 289.259 133.645 288.6C140.277 288.008 153.477 286.691 161.555 287.811C162.212 287.876 162.803 288.008 163.328 288.14C165.495 288.535 166.94 289.061 168.582 290.707C169.173 291.299 169.633 292.023 169.961 292.747Z" fill="url(#paint40_linear_131_13)"/>
<path fill-rule="evenodd" clip-rule="evenodd" d="M191.83 324.805C192.158 325.397 193.406 327.24 193.734 327.767C194.653 330.203 191.436 334.284 186.576 334.679C186.182 334.218 184.868 332.77 184.474 332.309C188.874 331.058 191.633 328.623 191.83 324.805Z" fill="url(#paint41_linear_131_13)"/>
<path fill-rule="evenodd" clip-rule="evenodd" d="M119.92 243.641C121.167 241.469 122.481 239.626 123.86 237.651C124.976 236.071 125.37 236.071 127.144 235.611C129.114 235.084 129.508 235.216 131.215 235.742C132.726 236.203 133.973 237.256 134.367 237.915C135.55 240.087 130.559 240.548 130.164 240.745C129.376 242.325 129.114 243.576 127.669 244.431C125.239 245.88 124.32 245.945 123.4 247.723L119.92 243.641Z" fill="#FFA698"/>
<path fill-rule="evenodd" clip-rule="evenodd" d="M125.239 240.745C126.815 238.968 126.881 238.507 128.917 236.861C128.982 236.861 129.048 236.796 129.179 236.796L130.887 236.861C131.741 237.783 133.251 238.639 134.236 237.651C134.302 237.717 134.302 237.783 134.368 237.849C135.09 238.968 134.368 240.482 133.711 240.548C132.135 240.811 130.887 240.416 130.23 240.745C129.442 242.325 129.179 243.576 127.735 244.431C125.305 245.88 124.385 245.945 123.466 247.723L121.233 245.156L125.239 240.745Z" fill="#FF9281"/>
<path fill-rule="evenodd" clip-rule="evenodd" d="M110.134 265.43C111.711 263.192 120.051 254.371 122.152 250.751C122.481 250.224 122.612 248.907 122.612 248.71L123.729 247.262C123.532 245.55 121.627 243.51 119.92 243.312L118.672 244.3C117.818 244.234 116.505 244.563 115.848 244.958C110.2 248.249 100.087 257.662 100.087 264.377C100.152 268.919 107.967 267.405 110.134 265.43Z" fill="url(#paint42_linear_131_13)"/>
<path fill-rule="evenodd" clip-rule="evenodd" d="M134.367 228.567L119.656 252.067L143.561 257.926L158.272 234.426L134.367 228.567Z" fill="url(#paint43_linear_131_13)"/>
<path fill-rule="evenodd" clip-rule="evenodd" d="M122.809 245.155C126.158 245.484 125.633 243.575 126.815 241.337C127.406 241.074 127.866 240.547 128.391 240.087C130.69 239.692 130.952 238.639 130.69 237.519C129.902 237.519 128.391 237.519 127.735 237.585C124.582 238.902 122.218 239.033 120.839 242.522C120.379 243.839 121.758 243.575 122.809 245.155Z" fill="#FFA698"/>
<path fill-rule="evenodd" clip-rule="evenodd" d="M139.292 255.556C139.161 255.885 139.358 256.28 139.686 256.346C140.014 256.477 140.408 256.28 140.474 255.951C140.934 254.503 141.591 251.343 141.591 248.776C141.591 246.933 141.196 245.353 140.146 244.76C138.373 243.773 137.191 244.497 136.008 245.287C135.811 245.419 135.614 245.55 135.417 245.682C134.958 245.945 134.498 246.077 134.17 246.143C133.841 246.143 133.513 246.011 133.316 245.814C133.053 245.55 132.856 245.089 132.791 244.629C132.593 243.707 132.593 242.522 132.791 241.667C132.922 241.206 132.988 240.679 133.119 240.218C133.776 237.519 134.367 234.952 131.937 233.965C131.608 233.833 131.214 233.965 131.083 234.294C130.952 234.623 131.083 235.018 131.411 235.15C132.791 235.742 132.331 237.783 131.805 239.955C131.674 240.482 131.543 241.008 131.477 241.469C131.28 242.522 131.214 243.905 131.477 245.024C131.608 245.748 131.937 246.34 132.331 246.801C132.791 247.328 133.382 247.591 134.17 247.525C134.695 247.525 135.286 247.328 135.943 246.933C136.205 246.801 136.402 246.669 136.599 246.538C137.453 246.011 138.307 245.419 139.423 246.077C140.014 246.406 140.211 247.591 140.277 249.039C140.343 251.211 139.686 254.173 139.292 255.556Z" fill="white"/>
<path fill-rule="evenodd" clip-rule="evenodd" d="M101.465 288.403L101.925 290.444C105.8 296.631 120.313 300.778 130.623 291.826C130.361 290.839 130.229 290.18 130.164 289.259C130.426 288.535 130.361 287.416 130.229 285.836C129.835 281.886 128.391 274.909 128.325 274.579C127.865 265.825 129.77 257.136 125.895 250.948C125.041 249.631 123.925 249.105 122.677 248.381C119.919 246.867 107.376 243.049 100.874 242.061C96.9339 241.469 92.6652 242.259 91.2861 246.735C89.3816 252.923 93.3219 262.073 96.6055 270.696C100.94 282.018 98.9697 283.729 101.465 288.403Z" fill="url(#paint44_linear_131_13)"/>
<path opacity="0.35" fill-rule="evenodd" clip-rule="evenodd" d="M130.295 286.494C130.295 286.297 130.23 286.033 130.23 285.836C129.836 281.886 128.391 274.909 128.325 274.58C127.865 265.825 130.033 256.938 125.895 250.948C123.465 247.393 118.212 248.052 116.373 252.396C114.928 255.687 116.241 260.427 117.949 268.326C119.197 273.855 121.364 286.889 124.647 288.271C125.764 288.666 127.668 288.074 130.295 286.494Z" fill="#3469C0"/>
<path fill-rule="evenodd" clip-rule="evenodd" d="M111.25 236.4C111.513 238.507 112.17 241.469 112.958 243.51C108.689 244.168 102.516 244.168 101.268 241.074L101.006 235.018C104.421 231.003 111.053 236.466 111.25 236.4Z" fill="url(#paint45_linear_131_13)"/>
<path fill-rule="evenodd" clip-rule="evenodd" d="M101.202 241.008C100.02 241.666 99.1009 243.18 99.4949 243.97C101.728 248.907 111.447 248.578 117.095 246.274C116.307 244.958 114.205 243.312 113.023 243.18C109.346 244.234 102.91 243.839 101.202 241.008Z" fill="#4A9FF8"/>
<path fill-rule="evenodd" clip-rule="evenodd" d="M110.659 240.482C109.345 240.152 108.623 238.638 108.163 235.94C107.769 233.701 101.465 236.532 101.531 236.4C100.939 234.36 98.9693 232.78 98.5096 229.949C97.8529 225.934 98.838 221.787 102.778 219.417C110.002 215.073 117.817 219.878 118.934 227.777C119.131 229.291 117.883 229.949 117.751 231.2C117.751 231.463 118.014 231.727 118.211 232.319C118.474 233.109 117.686 238.178 116.241 240.152C115.716 241.008 111.644 240.876 110.659 240.482Z" fill="#FFA698"/>
<path fill-rule="evenodd" clip-rule="evenodd" d="M116.307 240.152C116.044 240.481 114.205 240.087 113.548 239.823C116.438 236.203 113.089 233.241 116.044 229.752C117.817 227.645 115.978 225.341 117.948 224.222C118.408 225.276 118.802 226.461 118.933 227.711C119.13 229.225 117.883 229.883 117.751 231.134C117.751 231.397 118.014 231.661 118.211 232.253C118.539 233.109 117.751 238.178 116.307 240.152Z" fill="url(#paint46_linear_131_13)"/>
<path fill-rule="evenodd" clip-rule="evenodd" d="M112.235 235.347C112.694 234.425 112.497 234.03 112.038 234.096C111.578 234.162 110.79 234.755 110.33 235.676C109.542 237.19 110.067 239.362 111.775 238.77C110.396 238.638 110.79 237.059 111.315 236.137C111.644 235.479 112.103 235.084 112.235 235.347Z" fill="#FFB49C"/>
<path fill-rule="evenodd" clip-rule="evenodd" d="M111.578 235.742C111.841 236.466 111.906 236.927 111.775 237.124C111.644 237.256 111.381 237.453 110.987 236.993C111.053 236.466 111.315 236.071 111.578 235.742Z" fill="#FF9D8E"/>
<path fill-rule="evenodd" clip-rule="evenodd" d="M100.676 236.664C100.217 234.36 98.3778 232.253 97.9837 229.686C97.5897 227.119 97.5897 223.564 100.217 221.589C101.858 215.138 110.33 214.612 115.846 216.718C119.787 218.232 119.524 223.301 116.372 224.881C116.766 227.185 115.518 229.094 115.058 229.554C113.811 230.937 113.745 231.134 113.482 232.582C113.285 233.701 112.891 236.532 112.038 234.03C111.446 232.451 109.476 233.899 108.951 235.479C108.754 236.203 108.426 237.124 107.506 238.243C105.47 240.942 100.939 237.98 100.676 236.664Z" fill="#562E65"/>
<path fill-rule="evenodd" clip-rule="evenodd" d="M103.369 220.207C105.47 214.283 113.876 215.928 116.635 217.574C119.393 219.22 118.67 224.947 114.533 224.486C111.709 224.091 108.623 219.417 103.369 220.207Z" fill="url(#paint47_linear_131_13)"/>
<path fill-rule="evenodd" clip-rule="evenodd" d="M145.925 252.067L148.487 251.738L150.719 249.895L150.851 246.406L149.012 245.287C147.108 245.55 145.925 244.958 145.531 245.353C145.137 245.748 145.334 247.986 145.925 252.067Z" fill="#FF9584"/>
<path fill-rule="evenodd" clip-rule="evenodd" d="M140.409 258.123C140.868 257.596 141.262 257.07 141.525 256.477C141.459 254.371 141.985 253.12 142.904 251.869C144.415 249.829 144.612 249.566 144.94 248.052C145.071 247.393 145.137 246.932 145.268 246.669C145.597 245.879 146.516 246.077 146.779 246.932C147.042 247.525 146.976 248.446 146.845 248.973L146.45 249.96L149.143 246.867C149.603 246.208 144.349 246.867 145.531 245.287C146.188 244.892 147.107 244.826 148.224 244.76C149.274 244.694 150.194 244.76 150.588 244.76C151.639 244.826 152.098 249.302 152.098 250.487C152.098 250.948 152.098 251.804 151.836 252.33C151.179 253.647 150.325 254.963 149.471 255.753C147.698 257.333 146.122 257.136 144.809 260.098L140.409 258.123Z" fill="#FFA698"/>
<path fill-rule="evenodd" clip-rule="evenodd" d="M154.069 243.18C149.275 245.089 142.708 247.591 140.344 249.631C142.905 249.631 149.8 246.538 154.594 244.497C155.776 244.036 155.185 242.72 154.069 243.18Z" fill="#273087"/>
<path fill-rule="evenodd" clip-rule="evenodd" d="M142.905 251.869C144.415 249.829 144.612 249.566 144.941 248.052C145.072 247.393 145.138 246.933 145.269 246.669C145.597 245.879 146.517 246.077 146.779 246.933C147.042 247.525 146.976 248.447 146.845 248.973L146.385 250.685L142.905 251.869Z" fill="#FFA698"/>
<path fill-rule="evenodd" clip-rule="evenodd" d="M131.214 266.549C133.775 263.192 136.599 259.439 138.307 257.925C138.767 257.531 140.014 257.136 140.211 257.07L141.393 255.687C143.167 255.556 145.465 257.004 146.056 258.584L145.334 259.966C145.531 260.756 145.531 262.138 145.268 262.928C143.232 269.05 136.337 280.701 129.835 282.281C129.178 282.479 128.325 282.479 127.34 282.281C126.158 282.018 125.632 280.438 125.107 279.385C121.232 271.354 119.328 268.458 116.832 260.361C115.19 255.029 115.716 252.001 117.62 250.158C119.984 247.854 123.531 247.854 125.435 250.29C128.325 254.042 130.098 261.019 131.214 266.549Z" fill="url(#paint48_linear_131_13)"/>
<path fill-rule="evenodd" clip-rule="evenodd" d="M157.221 318.486L139.095 330.466C128.391 337.18 113.418 337.443 102.451 331.19L82.0266 319.605C74.6057 315.392 72.7012 308.875 73.555 300.054C74.2117 293.406 79.5968 276.159 82.8804 269.379C91.2207 252.133 117.883 269.906 122.283 282.084C125.042 289.654 128.391 294.525 132.988 299.264C144.546 311.179 147.501 300.581 155.579 297.75C163.131 295.117 163.591 303.675 163.263 310.257C163.131 314.141 161.03 315.984 157.221 318.486Z" fill="url(#paint49_linear_131_13)"/>
<path opacity="0.5" fill-rule="evenodd" clip-rule="evenodd" d="M157.221 318.485L139.095 330.466C128.391 337.18 113.418 337.443 102.451 331.19L82.0266 319.605C74.6057 315.392 72.7012 308.875 73.555 300.054C73.6863 298.54 74.0803 296.5 74.6057 294.196C76.4445 296.5 102.779 319.67 122.677 321.184C135.089 322.106 147.698 318.222 163.328 310.257C163.131 314.141 161.03 315.984 157.221 318.485Z" fill="url(#paint50_linear_131_13)"/>
<defs>
<linearGradient id="paint0_linear_131_13" x1="206.145" y1="-6.51916" x2="221.088" y2="35.3673" gradientUnits="userSpaceOnUse">
<stop stop-color="#FD90DA"/>
<stop offset="1" stop-color="#8E6DFD"/>
</linearGradient>
<linearGradient id="paint1_linear_131_13" x1="215.314" y1="93.3024" x2="172.971" y2="252.04" gradientUnits="userSpaceOnUse">
<stop stop-color="#D1E8FF"/>
<stop offset="1" stop-color="#EAEFFF"/>
</linearGradient>
<linearGradient id="paint2_linear_131_13" x1="243.546" y1="175.821" x2="97.6062" y2="94.8989" gradientUnits="userSpaceOnUse">
<stop stop-color="#6D6AFE"/>
<stop offset="1" stop-color="#3FB0F7"/>
</linearGradient>
<linearGradient id="paint3_linear_131_13" x1="163.515" y1="161.124" x2="184.468" y2="117.939" gradientUnits="userSpaceOnUse">
<stop stop-color="#965CF2"/>
<stop offset="1" stop-color="#FF8ADC"/>
</linearGradient>
<linearGradient id="paint4_linear_131_13" x1="226.603" y1="188.132" x2="241.935" y2="165.294" gradientUnits="userSpaceOnUse">
<stop stop-color="#965CF2"/>
<stop offset="1" stop-color="#FF8ADC"/>
</linearGradient>
<linearGradient id="paint5_linear_131_13" x1="233.122" y1="166.414" x2="223.54" y2="187.241" gradientUnits="userSpaceOnUse">
<stop stop-color="#FD90DA"/>
<stop offset="1" stop-color="#8E6DFD"/>
</linearGradient>
<linearGradient id="paint6_linear_131_13" x1="191.98" y1="246.169" x2="215.154" y2="206.156" gradientUnits="userSpaceOnUse">
<stop stop-color="#965CF2"/>
<stop offset="1" stop-color="#FF8ADC"/>
</linearGradient>
<linearGradient id="paint7_linear_131_13" x1="211.95" y1="253.145" x2="192.646" y2="184.758" gradientUnits="userSpaceOnUse">
<stop stop-color="#1C8EF4"/>
<stop offset="1" stop-color="#00CFDD"/>
</linearGradient>
<linearGradient id="paint8_linear_131_13" x1="130.846" y1="163.455" x2="139.456" y2="207.047" gradientUnits="userSpaceOnUse">
<stop stop-color="#FD70CB"/>
<stop offset="1" stop-color="#6E4DFD"/>
</linearGradient>
<linearGradient id="paint9_linear_131_13" x1="121.363" y1="198.774" x2="126.446" y2="181.44" gradientUnits="userSpaceOnUse">
<stop stop-color="#6D6AFE"/>
<stop offset="1" stop-color="#3FB0F7"/>
</linearGradient>
<linearGradient id="paint10_linear_131_13" x1="251.434" y1="99.7786" x2="264.378" y2="62.5763" gradientUnits="userSpaceOnUse">
<stop stop-color="#965CF2"/>
<stop offset="1" stop-color="#FF8ADC"/>
</linearGradient>
<linearGradient id="paint11_linear_131_13" x1="277.166" y1="54.1215" x2="266.732" y2="94.0723" gradientUnits="userSpaceOnUse">
<stop stop-color="#6D6AFE"/>
<stop offset="1" stop-color="#3FB0F7"/>
</linearGradient>
<linearGradient id="paint12_linear_131_13" x1="158.318" y1="80.8555" x2="153.705" y2="37.9857" gradientUnits="userSpaceOnUse">
<stop stop-color="#965CF2"/>
<stop offset="1" stop-color="#FF8ADC"/>
</linearGradient>
<linearGradient id="paint13_linear_131_13" x1="136.532" y1="43.2347" x2="138.619" y2="26.4837" gradientUnits="userSpaceOnUse">
<stop stop-color="#6D6AFE"/>
<stop offset="1" stop-color="#3FB0F7"/>
</linearGradient>
<linearGradient id="paint14_linear_131_13" x1="113.284" y1="51.6742" x2="115.636" y2="41.5395" gradientUnits="userSpaceOnUse">
<stop stop-color="#6D6AFE"/>
<stop offset="1" stop-color="#3FB0F7"/>
</linearGradient>
<linearGradient id="paint15_linear_131_13" x1="120.31" y1="128.655" x2="120.873" y2="134.596" gradientUnits="userSpaceOnUse">
<stop stop-color="#FF8A78"/>
<stop offset="1" stop-color="#FFA799"/>
</linearGradient>
<linearGradient id="paint16_linear_131_13" x1="120.776" y1="128.241" x2="121.24" y2="133.142" gradientUnits="userSpaceOnUse">
<stop stop-color="#FF8A78"/>
<stop offset="1" stop-color="#FFA799"/>
</linearGradient>
<linearGradient id="paint17_linear_131_13" x1="90.189" y1="117.158" x2="98.0281" y2="138.202" gradientUnits="userSpaceOnUse">
<stop stop-color="#6D6AFE"/>
<stop offset="1" stop-color="#3FB0F7"/>
</linearGradient>
<linearGradient id="paint18_linear_131_13" x1="83.1711" y1="171.818" x2="70.3305" y2="213.204" gradientUnits="userSpaceOnUse">
<stop stop-color="#235DA3"/>
<stop offset="1" stop-color="#123A76"/>
</linearGradient>
<linearGradient id="paint19_linear_131_13" x1="75.7703" y1="174.335" x2="51.97" y2="222.177" gradientUnits="userSpaceOnUse">
<stop stop-color="#235DA3"/>
<stop offset="1" stop-color="#123A76"/>
</linearGradient>
<linearGradient id="paint20_linear_131_13" x1="68.7164" y1="122.651" x2="76.1675" y2="160.748" gradientUnits="userSpaceOnUse">
<stop stop-color="#6D6AFE"/>
<stop offset="1" stop-color="#3FB0F7"/>
</linearGradient>
<linearGradient id="paint21_linear_131_13" x1="64.4675" y1="169.01" x2="65.442" y2="167.318" gradientUnits="userSpaceOnUse">
<stop stop-color="#FF8A78"/>
<stop offset="1" stop-color="#FFA799"/>
</linearGradient>
<linearGradient id="paint22_linear_131_13" x1="51.4531" y1="130.407" x2="55.8631" y2="162.595" gradientUnits="userSpaceOnUse">
<stop stop-color="#6D6AFE"/>
<stop offset="1" stop-color="#3FB0F7"/>
</linearGradient>
<linearGradient id="paint23_linear_131_13" x1="72.5563" y1="111.546" x2="70.3671" y2="113.996" gradientUnits="userSpaceOnUse">
<stop stop-color="#FF8A78"/>
<stop offset="1" stop-color="#FFA799"/>
</linearGradient>
<linearGradient id="paint24_linear_131_13" x1="79.9087" y1="104.328" x2="77.1893" y2="111.024" gradientUnits="userSpaceOnUse">
<stop stop-color="#FFB89E"/>
<stop offset="1" stop-color="#FFA799"/>
</linearGradient>
<linearGradient id="paint25_linear_131_13" x1="81.2554" y1="99.2474" x2="79.2545" y2="97.3336" gradientUnits="userSpaceOnUse">
<stop stop-color="#8A4791"/>
<stop offset="1" stop-color="#562E65"/>
</linearGradient>
<linearGradient id="paint26_linear_131_13" x1="301.88" y1="152.354" x2="291.512" y2="172.24" gradientUnits="userSpaceOnUse">
<stop stop-color="#5A2D68"/>
<stop offset="1" stop-color="#22043D"/>
</linearGradient>
<linearGradient id="paint27_linear_131_13" x1="245.877" y1="143.435" x2="246.58" y2="142.902" gradientUnits="userSpaceOnUse">
<stop stop-color="#FF8A78"/>
<stop offset="1" stop-color="#FFA799"/>
</linearGradient>
<linearGradient id="paint28_linear_131_13" x1="250.077" y1="158.989" x2="275.109" y2="153.336" gradientUnits="userSpaceOnUse">
<stop stop-color="#965CF2"/>
<stop offset="1" stop-color="#FF8ADC"/>
</linearGradient>
<linearGradient id="paint29_linear_131_13" x1="279.797" y1="207.395" x2="303.209" y2="252.954" gradientUnits="userSpaceOnUse">
<stop stop-color="#3E4795"/>
<stop offset="1" stop-color="#273088"/>
</linearGradient>
<linearGradient id="paint30_linear_131_13" x1="274.775" y1="216.453" x2="310.673" y2="256.709" gradientUnits="userSpaceOnUse">
<stop stop-color="#3E4795"/>
<stop offset="1" stop-color="#273088"/>
</linearGradient>
<linearGradient id="paint31_linear_131_13" x1="284.556" y1="192.783" x2="289.663" y2="162.582" gradientUnits="userSpaceOnUse">
<stop stop-color="#965CF2"/>
<stop offset="1" stop-color="#FF8ADC"/>
</linearGradient>
<linearGradient id="paint32_linear_131_13" x1="297.583" y1="201.834" x2="297.165" y2="201.079" gradientUnits="userSpaceOnUse">
<stop stop-color="#FF8A78"/>
<stop offset="1" stop-color="#FFA799"/>
</linearGradient>
<linearGradient id="paint33_linear_131_13" x1="308.899" y1="189.063" x2="302.841" y2="163.565" gradientUnits="userSpaceOnUse">
<stop stop-color="#965CF2"/>
<stop offset="1" stop-color="#FF8ADC"/>
</linearGradient>
<linearGradient id="paint34_linear_131_13" x1="287.692" y1="152.884" x2="288.183" y2="155.332" gradientUnits="userSpaceOnUse">
<stop stop-color="#FF8A78"/>
<stop offset="1" stop-color="#FFA799"/>
</linearGradient>
<linearGradient id="paint35_linear_131_13" x1="278.998" y1="143.336" x2="282.776" y2="149.44" gradientUnits="userSpaceOnUse">
<stop stop-color="#FFB89E"/>
<stop offset="1" stop-color="#FFA799"/>
</linearGradient>
<linearGradient id="paint36_linear_131_13" x1="110.092" y1="361.728" x2="129.025" y2="344.292" gradientUnits="userSpaceOnUse">
<stop stop-color="#965CF2"/>
<stop offset="1" stop-color="#FF8ADC"/>
</linearGradient>
<linearGradient id="paint37_linear_131_13" x1="154.921" y1="297.012" x2="139.427" y2="321.29" gradientUnits="userSpaceOnUse">
<stop stop-color="#235DA3"/>
<stop offset="1" stop-color="#123A76"/>
</linearGradient>
<linearGradient id="paint38_linear_131_13" x1="145.656" y1="328.095" x2="141.607" y2="332.137" gradientUnits="userSpaceOnUse">
<stop stop-color="#235DA3"/>
<stop offset="1" stop-color="#123A76"/>
</linearGradient>
<linearGradient id="paint39_linear_131_13" x1="151.941" y1="286.167" x2="107.52" y2="298.327" gradientUnits="userSpaceOnUse">
<stop stop-color="#235DA3"/>
<stop offset="1" stop-color="#123A76"/>
</linearGradient>
<linearGradient id="paint40_linear_131_13" x1="150.934" y1="299.77" x2="151.111" y2="330.299" gradientUnits="userSpaceOnUse">
<stop stop-color="#235DA3"/>
<stop offset="1" stop-color="#123A76"/>
</linearGradient>
<linearGradient id="paint41_linear_131_13" x1="189.76" y1="328.524" x2="188.129" y2="335.261" gradientUnits="userSpaceOnUse">
<stop stop-color="#235DA3"/>
<stop offset="1" stop-color="#123A76"/>
</linearGradient>
<linearGradient id="paint42_linear_131_13" x1="110.96" y1="253.925" x2="116.249" y2="265.04" gradientUnits="userSpaceOnUse">
<stop stop-color="#6D6AFE"/>
<stop offset="1" stop-color="#3FB0F7"/>
</linearGradient>
<linearGradient id="paint43_linear_131_13" x1="143.003" y1="246.562" x2="132.942" y2="238.345" gradientUnits="userSpaceOnUse">
<stop stop-color="#A77EF7"/>
<stop offset="1" stop-color="#5E65D6"/>
</linearGradient>
<linearGradient id="paint44_linear_131_13" x1="105.855" y1="249.415" x2="121.636" y2="290.123" gradientUnits="userSpaceOnUse">
<stop stop-color="#6D6AFE"/>
<stop offset="1" stop-color="#3FB0F7"/>
</linearGradient>
<linearGradient id="paint45_linear_131_13" x1="107.711" y1="236.504" x2="106.346" y2="241.607" gradientUnits="userSpaceOnUse">
<stop stop-color="#FF8A78"/>
<stop offset="1" stop-color="#FFA799"/>
</linearGradient>
<linearGradient id="paint46_linear_131_13" x1="118.315" y1="231.522" x2="112.728" y2="234.779" gradientUnits="userSpaceOnUse">
<stop stop-color="#FFB89E"/>
<stop offset="1" stop-color="#FFA799"/>
</linearGradient>
<linearGradient id="paint47_linear_131_13" x1="120.64" y1="220.596" x2="108.293" y2="220.082" gradientUnits="userSpaceOnUse">
<stop stop-color="#8A4791"/>
<stop offset="1" stop-color="#562E65"/>
</linearGradient>
<linearGradient id="paint48_linear_131_13" x1="127.828" y1="252.423" x2="137.61" y2="273.557" gradientUnits="userSpaceOnUse">
<stop stop-color="#6D6AFE"/>
<stop offset="1" stop-color="#3FB0F7"/>
</linearGradient>
<linearGradient id="paint49_linear_131_13" x1="110.521" y1="320.74" x2="123.693" y2="289.2" gradientUnits="userSpaceOnUse">
<stop stop-color="#965CF2"/>
<stop offset="1" stop-color="#FF8ADC"/>
</linearGradient>
<linearGradient id="paint50_linear_131_13" x1="112.252" y1="338.372" x2="116.762" y2="314.258" gradientUnits="userSpaceOnUse">
<stop stop-color="#965CF2"/>
<stop offset="1" stop-color="#FF8ADC"/>
</linearGradient>
</defs>
</svg>
