<svg width="22" height="24" viewBox="0 0 22 24" fill="none" xmlns="http://www.w3.org/2000/svg">
<path d="M11 0C4.91333 0 0 5.025 0 11.25C0 13.8 0.806667 16.2 2.34667 18.15L0.806667 22.95C0.733333 23.25 0.806667 23.55 1.02667 23.775C1.1 23.925 1.32 24 1.46667 24C1.54 24 1.68667 24 1.76 23.925L6.82 21.6C8.14 22.2 9.53333 22.5 11 22.5C17.0867 22.5 22 17.475 22 11.25C22 5.025 17.0867 0 11 0ZM17.38 15.375C17.0867 16.275 15.9867 17.025 15.0333 17.175C14.8133 17.25 14.5933 17.25 14.3 17.25C13.7133 17.25 12.8333 17.1 11.2933 16.425C9.53333 15.675 7.77333 14.1 6.38 12.075V12C5.94 11.325 5.13333 10.05 5.13333 8.7C5.13333 7.05 5.94 6.225 6.23333 5.85C6.6 5.475 7.11333 5.25 7.7 5.25C7.84667 5.25 7.92 5.25 8.06667 5.25C8.58 5.25 8.94667 5.4 9.31333 6.15L9.60667 6.75C9.82667 7.35 10.12 8.025 10.1933 8.1C10.4133 8.55 10.4133 8.925 10.1933 9.3C10.12 9.525 9.97333 9.675 9.82667 9.825C9.75333 9.975 9.68 10.05 9.60667 10.05C9.53333 10.125 9.53333 10.125 9.46 10.2C9.68 10.575 10.12 11.25 10.7067 11.775C11.5867 12.6 12.2467 12.825 12.6133 12.975C12.76 12.825 12.9067 12.525 13.1267 12.3L13.2 12.15C13.5667 11.625 14.1533 11.475 14.74 11.7C15.0333 11.85 16.6467 12.6 16.6467 12.6L16.7933 12.675C17.0133 12.825 17.3067 12.9 17.4533 13.2C17.7467 13.875 17.5267 14.85 17.38 15.375Z" fill="#DEE2F4"/>
</svg>
